  0
SECTION
  2
HEADER
  9
$ACADVER
  1
AC1032
  9
$ACADMAINTVER
 90
      248
  9
$DWGCODEPAGE
  3
ANSI_1252
  9
$LASTSAVEDBY
  1
sevir
  9
$REQUIREDVERSIONS
160
                 0
  9
$INSBASE
 10
0.0
 20
0.0
 30
0.0
  9
$EXTMIN
 10
-120.0
 20
-0.1334897083304422
 30
0.0
  9
$EXTMAX
 10
120.0
 20
120.0
 30
0.0
  9
$LIMMIN
 10
-128.485281374239
 20
-128.4852813742393
  9
$LIMMAX
 10
128.485281374239
 20
128.4852813742393
  9
$ORTHOMODE
 70
     0
  9
$REGENMODE
 70
     1
  9
$FILLMODE
 70
     1
  9
$QTEXTMODE
 70
     0
  9
$MIRRTEXT
 70
     0
  9
$LTSCALE
 40
1.0
  9
$ATTMODE
 70
     1
  9
$TEXTSIZE
 40
0.2
  9
$TRACEWID
 40
0.05
  9
$TEXTSTYLE
  7
STANDARD
  9
$CLAYER
  8
DEFAULT
  9
$CELTYPE
  6
CONTINUOUS
  9
$CECOLOR
 62
   256
  9
$CELTSCALE
 40
1.0
  9
$DISPSILH
 70
     0
  9
$DIMSCALE
 40
1.0
  9
$DIMASZ
 40
0.18
  9
$DIMEXO
 40
0.0625
  9
$DIMDLI
 40
0.38
  9
$DIMRND
 40
0.0
  9
$DIMDLE
 40
0.0
  9
$DIMEXE
 40
0.18
  9
$DIMTP
 40
0.0
  9
$DIMTM
 40
0.0
  9
$DIMTXT
 40
0.18
  9
$DIMCEN
 40
0.09
  9
$DIMTSZ
 40
0.0
  9
$DIMTOL
 70
     0
  9
$DIMLIM
 70
     0
  9
$DIMTIH
 70
     1
  9
$DIMTOH
 70
     1
  9
$DIMSE1
 70
     0
  9
$DIMSE2
 70
     0
  9
$DIMTAD
 70
     0
  9
$DIMZIN
 70
     0
  9
$DIMBLK
  1

  9
$DIMASO
 70
     1
  9
$DIMSHO
 70
     1
  9
$DIMPOST
  1

  9
$DIMAPOST
  1

  9
$DIMALT
 70
     0
  9
$DIMALTD
 70
     2
  9
$DIMALTF
 40
25.4
  9
$DIMLFAC
 40
1.0
  9
$DIMTOFL
 70
     0
  9
$DIMTVP
 40
0.0
  9
$DIMTIX
 70
     0
  9
$DIMSOXD
 70
     0
  9
$DIMSAH
 70
     0
  9
$DIMBLK1
  1

  9
$DIMBLK2
  1

  9
$DIMSTYLE
  2
Standard
  9
$DIMCLRD
 70
     0
  9
$DIMCLRE
 70
     0
  9
$DIMCLRT
 70
     0
  9
$DIMTFAC
 40
1.0
  9
$DIMGAP
 40
0.09
  9
$DIMJUST
 70
     0
  9
$DIMSD1
 70
     0
  9
$DIMSD2
 70
     0
  9
$DIMTOLJ
 70
     1
  9
$DIMTZIN
 70
     0
  9
$DIMALTZ
 70
     0
  9
$DIMALTTZ
 70
     0
  9
$DIMUPT
 70
     0
  9
$DIMDEC
 70
     4
  9
$DIMTDEC
 70
     4
  9
$DIMALTU
 70
     2
  9
$DIMALTTD
 70
     2
  9
$DIMTXSTY
  7
STANDARD
  9
$DIMAUNIT
 70
     0
  9
$DIMADEC
 70
     0
  9
$DIMALTRND
 40
0.0
  9
$DIMAZIN
 70
     0
  9
$DIMDSEP
 70
    46
  9
$DIMATFIT
 70
     3
  9
$DIMFRAC
 70
     0
  9
$DIMLDRBLK
  1

  9
$DIMLUNIT
 70
     2
  9
$DIMLWD
 70
    -2
  9
$DIMLWE
 70
    -2
  9
$DIMTMOVE
 70
     0
  9
$DIMFXL
 40
1.0
  9
$DIMFXLON
 70
     0
  9
$DIMJOGANG
 40
0.7853981633974483
  9
$DIMTFILL
 70
     0
  9
$DIMTFILLCLR
 70
     0
  9
$DIMARCSYM
 70
     0
  9
$DIMLTYPE
  6

  9
$DIMLTEX1
  6

  9
$DIMLTEX2
  6

  9
$DIMTXTDIRECTION
 70
     0
  9
$LUNITS
 70
     2
  9
$LUPREC
 70
     4
  9
$SKETCHINC
 40
0.1
  9
$FILLETRAD
 40
0.0
  9
$AUNITS
 70
     0
  9
$AUPREC
 70
     0
  9
$MENU
  1
.
  9
$ELEVATION
 40
0.0
  9
$PELEVATION
 40
0.0
  9
$THICKNESS
 40
0.0
  9
$LIMCHECK
 70
     0
  9
$CHAMFERA
 40
0.0
  9
$CHAMFERB
 40
0.0
  9
$CHAMFERC
 40
0.0
  9
$CHAMFERD
 40
0.0
  9
$SKPOLY
 70
     0
  9
$TDCREATE
 40
2460123.811979167
  9
$TDUCREATE
 40
2460123.728645833
  9
$TDUPDATE
 40
2460197.657465278
  9
$TDUUPDATE
 40
2460197.574131945
  9
$TDINDWG
 40
0.1248379630
  9
$TDUSRTIMER
 40
0.1248379630
  9
$USRTIMER
 70
     1
  9
$ANGBASE
 50
0.0
  9
$ANGDIR
 70
     0
  9
$PDMODE
 70
     0
  9
$PDSIZE
 40
0.0
  9
$PLINEWID
 40
0.0
  9
$SPLFRAME
 70
     0
  9
$SPLINETYPE
 70
     6
  9
$SPLINESEGS
 70
     8
  9
$HANDSEED
  5
4C2
  9
$SURFTAB1
 70
     6
  9
$SURFTAB2
 70
     6
  9
$SURFTYPE
 70
     6
  9
$SURFU
 70
     6
  9
$SURFV
 70
     6
  9
$UCSBASE
  2

  9
$UCSNAME
  2

  9
$UCSORG
 10
0.0
 20
0.0
 30
0.0
  9
$UCSXDIR
 10
1.0
 20
0.0
 30
0.0
  9
$UCSYDIR
 10
0.0
 20
1.0
 30
0.0
  9
$UCSORTHOREF
  2

  9
$UCSORTHOVIEW
 70
     0
  9
$UCSORGTOP
 10
0.0
 20
0.0
 30
0.0
  9
$UCSORGBOTTOM
 10
0.0
 20
0.0
 30
0.0
  9
$UCSORGLEFT
 10
0.0
 20
0.0
 30
0.0
  9
$UCSORGRIGHT
 10
0.0
 20
0.0
 30
0.0
  9
$UCSORGFRONT
 10
0.0
 20
0.0
 30
0.0
  9
$UCSORGBACK
 10
0.0
 20
0.0
 30
0.0
  9
$PUCSBASE
  2

  9
$PUCSNAME
  2

  9
$PUCSORG
 10
0.0
 20
0.0
 30
0.0
  9
$PUCSXDIR
 10
1.0
 20
0.0
 30
0.0
  9
$PUCSYDIR
 10
0.0
 20
1.0
 30
0.0
  9
$PUCSORTHOREF
  2

  9
$PUCSORTHOVIEW
 70
     0
  9
$PUCSORGTOP
 10
0.0
 20
0.0
 30
0.0
  9
$PUCSORGBOTTOM
 10
0.0
 20
0.0
 30
0.0
  9
$PUCSORGLEFT
 10
0.0
 20
0.0
 30
0.0
  9
$PUCSORGRIGHT
 10
0.0
 20
0.0
 30
0.0
  9
$PUCSORGFRONT
 10
0.0
 20
0.0
 30
0.0
  9
$PUCSORGBACK
 10
0.0
 20
0.0
 30
0.0
  9
$USERI1
 70
     0
  9
$USERI2
 70
     0
  9
$USERI3
 70
     0
  9
$USERI4
 70
     0
  9
$USERI5
 70
     0
  9
$USERR1
 40
0.0
  9
$USERR2
 40
0.0
  9
$USERR3
 40
0.0
  9
$USERR4
 40
0.0
  9
$USERR5
 40
0.0
  9
$WORLDVIEW
 70
     1
  9
$SHADEDGE
 70
     3
  9
$SHADEDIF
 70
    70
  9
$TILEMODE
 70
     1
  9
$MAXACTVP
 70
    64
  9
$PINSBASE
 10
0.0
 20
0.0
 30
0.0
  9
$PLIMCHECK
 70
     0
  9
$PEXTMIN
 10
1.000000000000000E+20
 20
1.000000000000000E+20
 30
1.000000000000000E+20
  9
$PEXTMAX
 10
-1.000000000000000E+20
 20
-1.000000000000000E+20
 30
-1.000000000000000E+20
  9
$PLIMMIN
 10
0.0
 20
0.0
  9
$PLIMMAX
 10
12.0
 20
9.0
  9
$UNITMODE
 70
     0
  9
$VISRETAIN
 70
     1
  9
$PLINEGEN
 70
     0
  9
$PSLTSCALE
 70
     1
  9
$TREEDEPTH
 70
  3020
  9
$CMLSTYLE
  2
Standard
  9
$CMLJUST
 70
     0
  9
$CMLSCALE
 40
1.0
  9
$PROXYGRAPHICS
 70
     1
  9
$MEASUREMENT
 70
     0
  9
$CELWEIGHT
370
    -1
  9
$ENDCAPS
280
     0
  9
$JOINSTYLE
280
     0
  9
$LWDISPLAY
290
     0
  9
$INSUNITS
 70
     0
  9
$HYPERLINKBASE
  1

  9
$STYLESHEET
  1

  9
$XEDIT
290
     1
  9
$CEPSNTYPE
380
     0
  9
$PSTYLEMODE
290
     1
  9
$FINGERPRINTGUID
  2
{FB63770A-2006-2B47-8F41-1C434B6E1169}
  9
$VERSIONGUID
  2
{545B5381-FCA1-644B-AAAC-A10545760C44}
  9
$EXTNAMES
290
     1
  9
$PSVPSCALE
 40
0.0
  9
$OLESTARTUP
290
     0
  9
$SORTENTS
280
   127
  9
$INDEXCTL
280
     0
  9
$HIDETEXT
280
     0
  9
$XCLIPFRAME
280
     2
  9
$HALOGAP
280
     0
  9
$OBSCOLOR
 70
   257
  9
$OBSLTYPE
280
     0
  9
$INTERSECTIONDISPLAY
280
     0
  9
$INTERSECTIONCOLOR
 70
   257
  9
$DIMASSOC
280
     1
  9
$PROJECTNAME
  1

  9
$CAMERADISPLAY
290
     0
  9
$LENSLENGTH
 40
50.0
  9
$CAMERAHEIGHT
 40
0.0
  9
$STEPSPERSEC
 40
2.0
  9
$STEPSIZE
 40
6.0
  9
$3DDWFPREC
 40
2.0
  9
$PSOLWIDTH
 40
0.25
  9
$PSOLHEIGHT
 40
4.0
  9
$LOFTANG1
 40
1.570796326794896
  9
$LOFTANG2
 40
1.570796326794896
  9
$LOFTMAG1
 40
0.0
  9
$LOFTMAG2
 40
0.0
  9
$LOFTPARAM
 70
     7
  9
$LOFTNORMALS
280
     1
  9
$LATITUDE
 40
37.795
  9
$LONGITUDE
 40
-122.394
  9
$NORTHDIRECTION
 40
0.0
  9
$TIMEZONE
 70
 -8000
  9
$LIGHTGLYPHDISPLAY
280
     1
  9
$TILEMODELIGHTSYNCH
280
     1
  9
$CMATERIAL
347
11
  9
$SOLIDHIST
280
     0
  9
$SHOWHIST
280
     1
  9
$DWFFRAME
280
     2
  9
$DGNFRAME
280
     0
  9
$REALWORLDSCALE
290
     1
  9
$INTERFERECOLOR
 62
     1
  9
$INTERFEREOBJVS
345
33
  9
$INTERFEREVPVS
346
30
  9
$CSHADOW
280
     0
  9
$SHADOWPLANELOCATION
 40
0.0
  0
ENDSEC
  0
SECTION
  2
CLASSES
  0
CLASS
  1
ACDBDICTIONARYWDFLT
  2
AcDbDictionaryWithDefault
  3
ObjectDBX Classes
 90
        0
 91
        1
280
     0
281
     0
  0
CLASS
  1
MATERIAL
  2
AcDbMaterial
  3
ObjectDBX Classes
 90
     1153
 91
        3
280
     0
281
     0
  0
CLASS
  1
VISUALSTYLE
  2
AcDbVisualStyle
  3
ObjectDBX Classes
 90
     4095
 91
       24
280
     0
281
     0
  0
CLASS
  1
SCALE
  2
AcDbScale
  3
ObjectDBX Classes
 90
     1153
 91
       17
280
     0
281
     0
  0
CLASS
  1
TABLESTYLE
  2
AcDbTableStyle
  3
ObjectDBX Classes
 90
     4095
 91
        1
280
     0
281
     0
  0
CLASS
  1
MLEADERSTYLE
  2
AcDbMLeaderStyle
  3
ACDB_MLEADERSTYLE_CLASS
 90
     4095
 91
        1
280
     0
281
     0
  0
CLASS
  1
ACDBSECTIONVIEWSTYLE
  2
AcDbSectionViewStyle
  3
ObjectDBX Classes
 90
     1025
 91
        1
280
     0
281
     0
  0
CLASS
  1
ACDBDETAILVIEWSTYLE
  2
AcDbDetailViewStyle
  3
ObjectDBX Classes
 90
     1025
 91
        1
280
     0
281
     0
  0
CLASS
  1
DICTIONARYVAR
  2
AcDbDictionaryVar
  3
ObjectDBX Classes
 90
        0
 91
        9
280
     0
281
     0
  0
CLASS
  1
CELLSTYLEMAP
  2
AcDbCellStyleMap
  3
ObjectDBX Classes
 90
     1152
 91
       12
280
     0
281
     0
  0
CLASS
  1
SORTENTSTABLE
  2
AcDbSortentsTable
  3
ObjectDBX Classes
 90
        0
 91
        1
280
     0
281
     0
  0
ENDSEC
  0
SECTION
  2
TABLES
  0
TABLE
  2
VPORT
  5
8
330
0
100
AcDbSymbolTable
 70
     1
  0
VPORT
  5
76
330
8
100
AcDbSymbolTableRecord
100
AcDbViewportTableRecord
  2
*Active
 70
     0
 10
0.0
 20
0.0
 11
1.0
 21
1.0
 12
-7.03132293220267
 22
27.44327174365926
 13
0.0
 23
0.0
 14
1.0
 24
1.0
 15
0.0
 25
0.0
 16
0.0
 26
0.0
 36
1.0
 17
0.0
 27
0.0
 37
0.0
 40
119.5903596266287
 41
2.351715686274509
 42
50.0
 43
0.0
 44
0.0
 50
0.0
 51
0.0
 71
     0
 72
   100
 73
     1
 74
     1
 75
     0
 76
     0
 77
     0
 78
     0
281
     0
 65
     1
110
0.0
120
0.0
130
0.0
111
1.0
121
0.0
131
0.0
112
0.0
122
1.0
132
0.0
 79
     0
146
0.0
348
2F
 60
     3
 61
     5
292
     1
282
     1
141
0.0
142
0.0
 63
   250
421
  3355443
1001
ACAD_NAV_VCDISPLAY
1070
     3
  0
ENDTAB
  0
TABLE
  2
LTYPE
  5
5
330
0
100
AcDbSymbolTable
 70
     1
  0
LTYPE
  5
5A
330
5
100
AcDbSymbolTableRecord
100
AcDbLinetypeTableRecord
  2
ByBlock
 70
     0
  3

 72
    65
 73
     0
 40
0.0
  0
LTYPE
  5
5B
330
5
100
AcDbSymbolTableRecord
100
AcDbLinetypeTableRecord
  2
ByLayer
 70
     0
  3

 72
    65
 73
     0
 40
0.0
  0
LTYPE
  5
5C
330
5
100
AcDbSymbolTableRecord
100
AcDbLinetypeTableRecord
  2
CONTINUOUS
 70
     0
  3
Solid line
 72
    65
 73
     0
 40
0.0
  0
ENDTAB
  0
TABLE
  2
LAYER
  5
2
102
{ACAD_XDICTIONARY
360
421
102
}
330
0
100
AcDbSymbolTable
 70
     3
  0
LAYER
  5
54
102
{ACAD_XDICTIONARY
360
3D5
102
}
330
2
100
AcDbSymbolTableRecord
100
AcDbLayerTableRecord
  2
0
 70
     0
 62
     7
  6
CONTINUOUS
370
    -3
390
F
347
21
348
0
  0
LAYER
  5
73
102
{ACAD_XDICTIONARY
360
3D7
102
}
330
2
100
AcDbSymbolTableRecord
100
AcDbLayerTableRecord
  2
DEFAULT
 70
     0
 62
     7
  6
CONTINUOUS
370
    -3
390
F
347
21
348
0
  0
LAYER
  5
74
102
{ACAD_XDICTIONARY
360
3D9
102
}
330
2
100
AcDbSymbolTableRecord
100
AcDbLayerTableRecord
  2
LAYER1
 70
     0
 62
     7
  6
CONTINUOUS
370
    -3
390
F
347
21
348
0
  0
ENDTAB
  0
TABLE
  2
STYLE
  5
3
330
0
100
AcDbSymbolTable
 70
     2
  0
STYLE
  5
55
330
3
100
AcDbSymbolTableRecord
100
AcDbTextStyleTableRecord
  2
STANDARD
 70
     0
 40
0.0
 41
1.0
 50
0.0
 71
     0
 42
0.2
  3
txt
  4

  0
STYLE
  5
59
330
3
100
AcDbSymbolTableRecord
100
AcDbTextStyleTableRecord
  2
Annotative
 70
     0
 40
0.0
 41
1.0
 50
0.0
 71
     0
 42
0.2
  3
txt
  4

1001
AcadAnnotative
1000
AnnotativeData
1002
{
1070
     1
1070
     1
1002
}
  0
ENDTAB
  0
TABLE
  2
VIEW
  5
6
330
0
100
AcDbSymbolTable
 70
     7
  0
ENDTAB
  0
TABLE
  2
UCS
  5
7
330
0
100
AcDbSymbolTable
 70
     0
  0
ENDTAB
  0
TABLE
  2
APPID
  5
9
330
0
100
AcDbSymbolTable
 70
     5
  0
APPID
  5
56
330
9
100
AcDbSymbolTableRecord
100
AcDbRegAppTableRecord
  2
ACAD
 70
     0
  0
APPID
  5
5D
330
9
100
AcDbSymbolTableRecord
100
AcDbRegAppTableRecord
  2
AcadAnnotative
 70
     0
  0
APPID
  5
39D
330
9
100
AcDbSymbolTableRecord
100
AcDbRegAppTableRecord
  2
ACAD_EXEMPT_FROM_CAD_STANDARDS
 70
     0
  0
APPID
  5
3E5
330
9
100
AcDbSymbolTableRecord
100
AcDbRegAppTableRecord
  2
ACAD_NAV_VCDISPLAY
 70
     0
  0
APPID
  5
458
330
9
100
AcDbSymbolTableRecord
100
AcDbRegAppTableRecord
  2
ACAD_DSTYLE_DIMRADIAL_EXTENSION
 70
     0
  0
ENDTAB
  0
TABLE
  2
DIMSTYLE
  5
A
330
0
100
AcDbSymbolTable
 70
     2
100
AcDbDimStyleTable
 71
     1
340
57
  0
DIMSTYLE
105
57
330
A
100
AcDbSymbolTableRecord
100
AcDbDimStyleTableRecord
  2
Standard
 70
     0
340
55
  0
DIMSTYLE
105
58
330
A
100
AcDbSymbolTableRecord
100
AcDbDimStyleTableRecord
  2
Annotative
 70
     0
340
55
1001
AcadAnnotative
1000
AnnotativeData
1002
{
1070
     1
1070
     1
1002
}
  0
ENDTAB
  0
TABLE
  2
BLOCK_RECORD
  5
1
330
0
100
AcDbSymbolTable
 70
     0
  0
BLOCK_RECORD
  5
6F
102
{ACAD_XDICTIONARY
360
40F
102
}
330
1
100
AcDbSymbolTableRecord
100
AcDbBlockTableRecord
  2
*Model_Space
340
72
 70
     0
280
     1
281
     0
  0
BLOCK_RECORD
  5
6B
330
1
100
AcDbSymbolTableRecord
100
AcDbBlockTableRecord
  2
*Paper_Space
340
6E
 70
     0
280
     1
281
     0
  0
ENDTAB
  0
ENDSEC
  0
SECTION
  2
BLOCKS
  0
BLOCK
  5
70
330
6F
100
AcDbEntity
  8
0
100
AcDbBlockBegin
  2
*Model_Space
 70
     0
 10
0.0
 20
0.0
 30
0.0
  3
*Model_Space
  1

  0
ENDBLK
  5
71
330
6F
100
AcDbEntity
  8
0
100
AcDbBlockEnd
  0
BLOCK
  5
6C
330
6B
100
AcDbEntity
 67
     1
  8
0
100
AcDbBlockBegin
  2
*Paper_Space
 70
     0
 10
0.0
 20
0.0
 30
0.0
  3
*Paper_Space
  1

  0
ENDBLK
  5
6D
330
6B
100
AcDbEntity
 67
     1
  8
0
100
AcDbBlockEnd
  0
ENDSEC
  0
SECTION
  2
ENTITIES
  0
LINE
  5
77
330
6F
100
AcDbEntity
  8
LAYER1
100
AcDbLine
 10
86.68188999999998
 20
61.52188299999999
 30
0.0
 11
71.48979199999998
 21
51.37084699999999
 31
0.0
  0
LINE
  5
78
330
6F
100
AcDbEntity
  8
LAYER1
100
AcDbLine
 10
68.12334799999999
 20
55.75808199999999
 30
0.0
 11
81.860499
 21
67.805241
 31
0.0
  0
LINE
  5
79
330
6F
100
AcDbEntity
  8
LAYER1
100
AcDbLine
 10
106.219735
 20
16.770501
 30
0.0
 11
106.94091
 21
11.292631
 31
0.0
  0
LINE
  5
7A
330
6F
100
AcDbEntity
  8
LAYER1
100
AcDbLine
 10
8.743562999999998
 20
87.59739899999997
 30
0.0
 11
9.938568
 21
105.82966
 31
0.0
  0
LINE
  5
7B
330
6F
100
AcDbEntity
  8
LAYER1
100
AcDbLine
 10
73.030422
 20
43.492039
 30
0.0
 11
73.600076
 21
43.82092899999999
 31
0.0
  0
LINE
  5
7C
330
6F
100
AcDbEntity
  8
LAYER1
100
AcDbLine
 10
66.728786
 20
52.652342
 30
0.0
 11
67.250638
 21
53.052773
 31
0.0
  0
LINE
  5
7D
330
6F
100
AcDbEntity
  8
LAYER1
100
AcDbLine
 10
80.23335499999998
 20
36.226552
 30
0.0
 11
96.62045800000001
 21
44.307777
 31
0.0
  0
LINE
  5
7E
330
6F
100
AcDbEntity
  8
LAYER1
100
AcDbLine
 10
56.540219
 20
90.010531
 30
0.0
 11
46.389183
 21
74.818433
 31
0.0
  0
LINE
  5
7F
330
6F
100
AcDbEntity
  8
LAYER1
100
AcDbLine
 10
67.805241
 20
81.860499
 30
0.0
 11
55.75808199999999
 21
68.12334799999999
 31
0.0
  0
LINE
  5
80
330
6F
100
AcDbEntity
  8
LAYER1
100
AcDbLine
 10
78.082487
 20
33.587576
 30
0.0
 11
78.690196
 21
33.83929699999999
 31
0.0
  0
LINE
  5
81
330
6F
100
AcDbEntity
  8
LAYER1
100
AcDbLine
 10
25.15461
 20
104.552032
 30
0.0
 11
30.491484
 21
103.122021
 31
0.0
  0
LINE
  5
82
330
6F
100
AcDbEntity
  8
LAYER1
100
AcDbLine
 10
11.292631
 20
106.94091
 30
0.0
 11
16.770501
 21
106.219735
 31
0.0
  0
LINE
  5
83
330
6F
100
AcDbEntity
  8
LAYER1
100
AcDbLine
 10
74.818433
 20
46.389183
 30
0.0
 11
90.010531
 21
56.540219
 31
0.0
  0
LINE
  5
84
330
6F
100
AcDbEntity
  8
LAYER1
100
AcDbLine
 10
41.60007199999999
 20
77.583428
 30
0.0
 11
49.68129799999999
 21
93.97053099999999
 31
0.0
  0
LINE
  5
85
330
6F
100
AcDbEntity
  8
LAYER1
100
AcDbLine
 10
83.02918899999998
 20
21.057037
 30
0.0
 11
82.393821
 21
20.886795
 31
0.0
  0
LINE
  5
86
330
6F
100
AcDbEntity
  8
LAYER1
100
AcDbLine
 10
61.37686899999999
 20
59.750523
 30
0.0
 11
60.91174500000001
 21
59.28540600000001
 31
0.0
  0
LINE
  5
87
330
6F
100
AcDbEntity
  8
LAYER1
100
AcDbLine
 10
68.650789
 20
51.22806
 30
0.0
 11
68.128935
 21
50.82763299999999
 31
0.0
  0
LINE
  5
88
330
6F
100
AcDbEntity
  8
LAYER1
100
AcDbLine
 10
9.953549
 20
84.41520500000001
 30
0.0
 11
10.039407
 21
85.067357
 31
0.0
  0
LINE
  5
89
330
6F
100
AcDbEntity
  8
LAYER1
100
AcDbLine
 10
20.102515
 20
85.70672700000001
 30
0.0
 11
23.667085
 21
103.627029
 31
0.0
  0
LINE
  5
8A
330
6F
100
AcDbEntity
  8
LAYER1
100
AcDbLine
 10
63.25016
 20
86.96723
 30
0.0
 11
67.63354699999999
 21
83.60373800000003
 31
0.0
  0
LINE
  5
8B
330
6F
100
AcDbEntity
  8
LAYER1
100
AcDbLine
 10
12.31973
 20
84.76714699999998
 30
0.0
 11
12.233868
 21
84.11499599999999
 31
0.0
  0
LINE
  5
8C
330
6F
100
AcDbEntity
  8
LAYER1
100
AcDbLine
 10
105.82966
 20
9.938568
 30
0.0
 11
87.59739899999997
 21
8.743562999999998
 31
0.0
  0
LINE
  5
8D
330
6F
100
AcDbEntity
  8
LAYER1
100
AcDbLine
 10
3.959999999999998
 20
106.221516
 30
0.0
 11
2.764993999999999
 21
87.98925500000001
 31
0.0
  0
LINE
  5
8E
330
6F
100
AcDbEntity
  8
LAYER1
100
AcDbLine
 10
107.5
 20
2.762569
 30
0.0
 11
107.5
 21
0.0
 31
0.0
  0
LINE
  5
8F
330
6F
100
AcDbEntity
  8
LAYER1
100
AcDbLine
 10
41.50018099999999
 20
74.18042199999998
 30
0.0
 11
41.829071
 21
74.75007600000002
 31
0.0
  0
LINE
  5
90
330
6F
100
AcDbEntity
  8
LAYER1
100
AcDbLine
 10
99.651311
 20
36.990651
 30
0.0
 11
82.34959000000001
 21
31.117508
 31
0.0
  0
LINE
  5
91
330
6F
100
AcDbEntity
  8
LAYER1
100
AcDbLine
 10
31.317218
 20
101.577182
 30
0.0
 11
25.444075
 21
84.27546099999998
 31
0.0
  0
LINE
  5
92
330
6F
100
AcDbEntity
  8
LAYER1
100
AcDbLine
 10
59.285402
 20
60.911748
 30
0.0
 11
59.750523
 21
61.37686899999999
 31
0.0
  0
LINE
  5
93
330
6F
100
AcDbEntity
  8
LAYER1
100
AcDbLine
 10
31.462653
 20
78.962659
 30
0.0
 11
31.714375
 21
79.570368
 31
0.0
  0
LINE
  5
94
330
6F
100
AcDbEntity
  8
LAYER1
100
AcDbLine
 10
81.79853900000003
 20
23.10842
 30
0.0
 11
82.43390499999998
 21
23.278666
 31
0.0
  0
LINE
  5
95
330
6F
100
AcDbEntity
  8
LAYER1
100
AcDbLine
 10
103.627029
 20
23.667085
 30
0.0
 11
85.70672700000001
 21
20.102515
 31
0.0
  0
LINE
  5
96
330
6F
100
AcDbEntity
  8
LAYER1
100
AcDbLine
 10
84.99222000000001
 20
1.149999999999999
 30
0.0
 11
85.65000000000003
 21
1.149999999999999
 31
0.0
  0
LINE
  5
97
330
6F
100
AcDbEntity
  8
LAYER1
100
AcDbLine
 10
43.82092899999999
 20
73.600076
 30
0.0
 11
43.49203499999999
 21
73.03042399999998
 31
0.0
  0
LINE
  5
98
330
6F
100
AcDbEntity
  8
LAYER1
100
AcDbLine
 10
23.278666
 20
82.43390499999998
 30
0.0
 11
23.108416
 21
81.79854
 31
0.0
  0
LINE
  5
99
330
6F
100
AcDbEntity
  8
LAYER1
100
AcDbLine
 10
51.357545
 20
94.47901599999999
 30
0.0
 11
56.14245499999999
 21
91.71644599999998
 31
0.0
  0
LINE
  5
9A
330
6F
100
AcDbEntity
  8
LAYER1
100
AcDbLine
 10
60.262653
 20
64.172945
 30
0.0
 11
72.30981199999998
 21
77.91009699999998
 31
0.0
  0
LINE
  5
9B
330
6F
100
AcDbEntity
  8
LAYER1
100
AcDbLine
 10
77.91009699999998
 20
72.30981199999998
 30
0.0
 11
64.172945
 21
60.262653
 31
0.0
  0
LINE
  5
9C
330
6F
100
AcDbEntity
  8
LAYER1
100
AcDbLine
 10
31.117508
 20
82.34959000000001
 30
0.0
 11
36.990651
 21
99.651311
 31
0.0
  0
LINE
  5
9D
330
6F
100
AcDbEntity
  8
LAYER1
100
AcDbLine
 10
74.060547
 20
77.96741
 30
0.0
 11
77.96741
 21
74.060547
 31
0.0
  0
LINE
  5
9E
330
6F
100
AcDbEntity
  8
LAYER1
100
AcDbLine
 10
33.83929699999999
 20
78.690196
 30
0.0
 11
33.58757199999999
 21
78.08248899999998
 31
0.0
  0
LINE
  5
9F
330
6F
100
AcDbEntity
  8
LAYER1
100
AcDbLine
 10
98.25986
 20
43.69075
 30
0.0
 11
100.374239
 21
38.586188
 31
0.0
  0
LINE
  5
A0
330
6F
100
AcDbEntity
  8
LAYER1
100
AcDbLine
 10
84.11499499999996
 20
12.233872
 30
0.0
 11
84.76714699999998
 21
12.31973
 31
0.0
  0
LINE
  5
A1
330
6F
100
AcDbEntity
  8
LAYER1
100
AcDbLine
 10
51.37084699999999
 20
71.48979199999998
 30
0.0
 11
61.52188299999999
 21
86.68188999999998
 31
0.0
  0
LINE
  5
A2
330
6F
100
AcDbEntity
  8
LAYER1
100
AcDbLine
 10
93.97053099999999
 20
49.68129799999999
 30
0.0
 11
77.583428
 21
41.60007199999999
 31
0.0
  0
LINE
  5
A3
330
6F
100
AcDbEntity
  8
LAYER1
100
AcDbLine
 10
20.886791
 20
82.39382199999999
 30
0.0
 11
21.057037
 21
83.02918899999998
 31
0.0
  0
LINE
  5
A4
330
6F
100
AcDbEntity
  8
LAYER1
100
AcDbLine
 10
85.067357
 20
10.039407
 30
0.0
 11
84.41520500000001
 21
9.953553999999998
 31
0.0
  0
LINE
  5
A5
330
6F
100
AcDbEntity
  8
LAYER1
100
AcDbLine
 10
38.586188
 20
100.374239
 30
0.0
 11
43.69075
 21
98.25986
 31
0.0
  0
LINE
  5
A6
330
6F
100
AcDbEntity
  8
LAYER1
100
AcDbLine
 10
1.149999999999999
 20
85.65000000000003
 30
0.0
 11
1.149995
 21
84.99222000000001
 31
0.0
  0
LINE
  5
A7
330
6F
100
AcDbEntity
  8
LAYER1
100
AcDbLine
 10
87.98925500000001
 20
2.764993999999999
 30
0.0
 11
106.221516
 21
3.959999999999998
 31
0.0
  0
LINE
  5
A8
330
6F
100
AcDbEntity
  8
LAYER1
100
AcDbLine
 10
53.052773
 20
67.250638
 30
0.0
 11
52.652338
 21
66.728789
 31
0.0
  0
LINE
  5
A9
330
6F
100
AcDbEntity
  8
LAYER1
100
AcDbLine
 10
50.82762899999999
 20
68.128937
 30
0.0
 11
51.22806
 21
68.650789
 31
0.0
  0
LINE
  5
AA
330
6F
100
AcDbEntity
  8
LAYER1
100
AcDbLine
 10
79.570368
 20
31.714375
 30
0.0
 11
78.96265699999998
 21
31.462657
 31
0.0
  0
LINE
  5
AB
330
6F
100
AcDbEntity
  8
LAYER1
100
AcDbLine
 10
83.60373800000003
 20
67.63354699999999
 30
0.0
 11
86.96723
 21
63.25016
 31
0.0
  0
LINE
  5
AC
330
6F
100
AcDbEntity
  8
LAYER1
100
AcDbLine
 10
91.71644599999998
 20
56.14245499999999
 30
0.0
 11
94.47901599999999
 21
51.357545
 31
0.0
  0
LINE
  5
AD
330
6F
100
AcDbEntity
  8
LAYER1
100
AcDbLine
 10
44.307777
 20
96.62045800000001
 30
0.0
 11
36.226552
 21
80.23335499999998
 31
0.0
  0
LINE
  5
AE
330
6F
100
AcDbEntity
  8
LAYER1
100
AcDbLine
 10
74.75007600000002
 20
41.829071
 30
0.0
 11
74.18041999999998
 21
41.50018499999999
 31
0.0
  0
LINE
  5
AF
330
6F
100
AcDbEntity
  8
LAYER1
100
AcDbLine
 10
84.27546099999998
 20
25.444075
 30
0.0
 11
101.577182
 21
31.317218
 31
0.0
  0
LINE
  5
B0
330
6F
100
AcDbEntity
  8
LAYER1
100
AcDbLine
 10
17.790812
 20
104.795893
 30
0.0
 11
14.226242
 21
86.87559099999999
 31
0.0
  0
LINE
  5
B1
330
6F
100
AcDbEntity
  8
LAYER1
100
AcDbLine
 10
86.87559099999999
 20
14.226242
 30
0.0
 11
104.795893
 21
17.790812
 31
0.0
  0
LINE
  5
B2
330
6F
100
AcDbEntity
  8
LAYER1
100
AcDbLine
 10
103.122021
 20
30.491484
 30
0.0
 11
104.552032
 21
25.15461
 31
0.0
  0
LINE
  5
B3
330
6F
100
AcDbEntity
  8
LAYER1
100
AcDbLine
 10
0.0000000000000066
 20
107.5
 30
0.0
 11
2.762569
 21
107.5
 31
0.0
  0
LINE
  5
B4
330
6F
100
AcDbEntity
  8
LAYER1
100
AcDbLine
 10
10.039407
 20
85.067357
 30
0.0
 11
12.31973
 21
84.76714699999998
 31
0.0
  0
LINE
  5
B5
330
6F
100
AcDbEntity
  8
LAYER1
100
AcDbLine
 10
21.057037
 20
83.02918899999998
 30
0.0
 11
23.278666
 21
82.43390499999998
 31
0.0
  0
LINE
  5
B6
330
6F
100
AcDbEntity
  8
LAYER1
100
AcDbLine
 10
31.714375
 20
79.570368
 30
0.0
 11
33.83929699999999
 21
78.690196
 31
0.0
  0
LINE
  5
B7
330
6F
100
AcDbEntity
  8
LAYER1
100
AcDbLine
 10
41.829071
 20
74.75007600000002
 30
0.0
 11
43.82092899999999
 21
73.600076
 31
0.0
  0
LINE
  5
B8
330
6F
100
AcDbEntity
  8
LAYER1
100
AcDbLine
 10
51.22806
 20
68.650789
 30
0.0
 11
53.052773
 21
67.250638
 31
0.0
  0
LINE
  5
B9
330
6F
100
AcDbEntity
  8
LAYER1
100
AcDbLine
 10
59.750523
 20
61.37686899999999
 30
0.0
 11
61.37686899999999
 21
59.750523
 31
0.0
  0
LINE
  5
BA
330
6F
100
AcDbEntity
  8
LAYER1
100
AcDbLine
 10
67.250638
 20
53.052773
 30
0.0
 11
68.650789
 21
51.22806
 31
0.0
  0
LINE
  5
BB
330
6F
100
AcDbEntity
  8
LAYER1
100
AcDbLine
 10
73.600076
 20
43.82092899999999
 30
0.0
 11
74.75007600000002
 21
41.829071
 31
0.0
  0
LINE
  5
BC
330
6F
100
AcDbEntity
  8
LAYER1
100
AcDbLine
 10
78.690196
 20
33.83929699999999
 30
0.0
 11
79.570368
 21
31.714375
 31
0.0
  0
LINE
  5
BD
330
6F
100
AcDbEntity
  8
LAYER1
100
AcDbLine
 10
82.43390499999998
 20
23.278666
 30
0.0
 11
83.02918899999998
 21
21.057037
 31
0.0
  0
LINE
  5
BE
330
6F
100
AcDbEntity
  8
LAYER1
100
AcDbLine
 10
84.76714699999998
 20
12.31973
 30
0.0
 11
85.067357
 21
10.039407
 31
0.0
  0
LINE
  5
BF
330
6F
100
AcDbEntity
  8
LAYER1
100
AcDbLine
 10
85.65000000000003
 20
1.149999999999999
 30
0.0
 11
85.65000000000003
 21
0.0
 31
0.0
  0
LINE
  5
C0
330
6F
100
AcDbEntity
  8
LAYER1
100
AcDbLine
 10
-78.962659
 20
31.462653
 30
0.0
 11
-79.570368
 21
31.714375
 31
0.0
  0
LINE
  5
C1
330
6F
100
AcDbEntity
  8
LAYER1
100
AcDbLine
 10
-85.65000000000003
 20
1.149999999999999
 30
0.0
 11
-84.99222000000001
 21
1.149995
 31
0.0
  0
LINE
  5
C2
330
6F
100
AcDbEntity
  8
LAYER1
100
AcDbLine
 10
-77.583428
 20
41.60007199999999
 30
0.0
 11
-93.97053099999999
 21
49.68129799999999
 31
0.0
  0
LINE
  5
C3
330
6F
100
AcDbEntity
  8
LAYER1
100
AcDbLine
 10
-82.34959000000001
 20
31.117508
 30
0.0
 11
-99.651311
 21
36.990651
 31
0.0
  0
LINE
  5
C4
330
6F
100
AcDbEntity
  8
LAYER1
100
AcDbLine
 10
-82.43768693455399
 20
23.27967939286535
 30
0.0
 11
-81.79853999999997
 21
23.1084160000001
 31
0.0
  0
LINE
  5
C5
330
6F
100
AcDbEntity
  8
LAYER1
100
AcDbLine
 10
-86.96723
 20
63.25016
 30
0.0
 11
-83.60373800000003
 21
67.63354699999999
 31
0.0
  0
LINE
  5
C6
330
6F
100
AcDbEntity
  8
LAYER1
100
AcDbLine
 10
-84.41520500000001
 20
9.953549
 30
0.0
 11
-85.067357
 21
10.039407
 31
0.0
  0
LINE
  5
C7
330
6F
100
AcDbEntity
  8
LAYER1
100
AcDbLine
 10
-67.63354699999999
 20
83.60373800000003
 30
0.0
 11
-63.25016
 21
86.96723
 31
0.0
  0
LINE
  5
C8
330
6F
100
AcDbEntity
  8
LAYER1
100
AcDbLine
 10
-12.233872
 20
84.11499499999996
 30
0.0
 11
-12.31973
 21
84.76714699999998
 31
0.0
  0
LINE
  5
C9
330
6F
100
AcDbEntity
  8
LAYER1
100
AcDbLine
 10
-16.770501
 20
106.219735
 30
0.0
 11
-11.292631
 21
106.94091
 31
0.0
  0
LINE
  5
CA
330
6F
100
AcDbEntity
  8
LAYER1
100
AcDbLine
 10
-43.69075
 20
98.25986
 30
0.0
 11
-38.586188
 21
100.374239
 31
0.0
  0
LINE
  5
CB
330
6F
100
AcDbEntity
  8
LAYER1
100
AcDbLine
 10
-10.039407
 20
85.067357
 30
0.0
 11
-9.953553999999998
 21
84.41520500000001
 31
0.0
  0
LINE
  5
CC
330
6F
100
AcDbEntity
  8
LAYER1
100
AcDbLine
 10
-56.14245499999999
 20
91.71644599999998
 30
0.0
 11
-51.357545
 21
94.47901599999999
 31
0.0
  0
LINE
  5
CD
330
6F
100
AcDbEntity
  8
LAYER1
100
AcDbLine
 10
-81.860499
 20
67.805241
 30
0.0
 11
-68.12334799999999
 21
55.75808199999999
 31
0.0
  0
LINE
  5
CE
330
6F
100
AcDbEntity
  8
LAYER1
100
AcDbLine
 10
-23.667085
 20
103.627029
 30
0.0
 11
-20.102515
 21
85.70672700000001
 31
0.0
  0
LINE
  5
CF
330
6F
100
AcDbEntity
  8
LAYER1
100
AcDbLine
 10
-59.750523
 20
61.37686899999999
 30
0.0
 11
-59.28540600000001
 21
60.91174500000001
 31
0.0
  0
LINE
  5
D0
330
6F
100
AcDbEntity
  8
LAYER1
100
AcDbLine
 10
-104.552032
 20
25.15461
 30
0.0
 11
-103.122021
 21
30.491484
 31
0.0
  0
LINE
  5
D1
330
6F
100
AcDbEntity
  8
LAYER1
100
AcDbLine
 10
-85.70672700000001
 20
20.102515
 30
0.0
 11
-103.627029
 21
23.667085
 31
0.0
  0
LINE
  5
D2
330
6F
100
AcDbEntity
  8
LAYER1
100
AcDbLine
 10
-23.10842
 20
81.79853900000003
 30
0.0
 11
-23.278666
 21
82.43390499999998
 31
0.0
  0
LINE
  5
D3
330
6F
100
AcDbEntity
  8
LAYER1
100
AcDbLine
 10
-51.22806
 20
68.650789
 30
0.0
 11
-50.82763299999999
 21
68.128935
 31
0.0
  0
LINE
  5
D4
330
6F
100
AcDbEntity
  8
LAYER1
100
AcDbLine
 10
-55.75808199999999
 20
68.12334799999999
 30
0.0
 11
-67.805241
 21
81.860499
 31
0.0
  0
LINE
  5
D5
330
6F
100
AcDbEntity
  8
LAYER1
100
AcDbLine
 10
-94.47901599999999
 20
51.357545
 30
0.0
 11
-91.71644599999998
 21
56.14245499999999
 31
0.0
  0
LINE
  5
D6
330
6F
100
AcDbEntity
  8
LAYER1
100
AcDbLine
 10
-84.76714699999998
 20
12.31973
 30
0.0
 11
-84.11499599999999
 21
12.233868
 31
0.0
  0
LINE
  5
D7
330
6F
100
AcDbEntity
  8
LAYER1
100
AcDbLine
 10
-36.990651
 20
99.651311
 30
0.0
 11
-31.117508
 21
82.34959000000001
 31
0.0
  0
LINE
  5
D8
330
6F
100
AcDbEntity
  8
LAYER1
100
AcDbLine
 10
-73.600076
 20
43.82092899999999
 30
0.0
 11
-73.03042399999998
 21
43.49203499999999
 31
0.0
  0
LINE
  5
D9
330
6F
100
AcDbEntity
  8
LAYER1
100
AcDbLine
 10
-100.374239
 20
38.586188
 30
0.0
 11
-98.25986
 21
43.69075
 31
0.0
  0
LINE
  5
DA
330
6F
100
AcDbEntity
  8
LAYER1
100
AcDbLine
 10
-71.48979199999998
 20
51.37084699999999
 30
0.0
 11
-86.68188999999998
 21
61.52188299999999
 31
0.0
  0
LINE
  5
DB
330
6F
100
AcDbEntity
  8
LAYER1
100
AcDbLine
 10
-68.128937
 20
50.82762899999999
 30
0.0
 11
-68.650789
 21
51.22806
 31
0.0
  0
LINE
  5
DC
330
6F
100
AcDbEntity
  8
LAYER1
100
AcDbLine
 10
-72.30981199999998
 20
77.91009699999998
 30
0.0
 11
-60.262653
 21
64.172945
 31
0.0
  0
LINE
  5
DD
330
6F
100
AcDbEntity
  8
LAYER1
100
AcDbLine
 10
-1.149999999999999
 20
84.99222000000001
 30
0.0
 11
-1.149999999999999
 21
85.65000000000003
 31
0.0
  0
LINE
  5
DE
330
6F
100
AcDbEntity
  8
LAYER1
100
AcDbLine
 10
-31.714375
 20
79.570368
 30
0.0
 11
-31.462657
 21
78.96265699999998
 31
0.0
  0
LINE
  5
DF
330
6F
100
AcDbEntity
  8
LAYER1
100
AcDbLine
 10
-104.795893
 20
17.790812
 30
0.0
 11
-86.87559099999999
 21
14.226242
 31
0.0
  0
LINE
  5
E0
330
6F
100
AcDbEntity
  8
LAYER1
100
AcDbLine
 10
-30.491484
 20
103.122021
 30
0.0
 11
-25.15461
 21
104.552032
 31
0.0
  0
LINE
  5
E1
330
6F
100
AcDbEntity
  8
LAYER1
100
AcDbLine
 10
-43.492039
 20
73.030422
 30
0.0
 11
-43.82092899999999
 21
73.600076
 31
0.0
  0
LINE
  5
E2
330
6F
100
AcDbEntity
  8
LAYER1
100
AcDbLine
 10
-41.829071
 20
74.75007600000002
 30
0.0
 11
-41.50018499999999
 21
74.18041999999998
 31
0.0
  0
LINE
  5
E3
330
6F
100
AcDbEntity
  8
LAYER1
100
AcDbLine
 10
-77.96741
 20
74.060547
 30
0.0
 11
-74.060547
 21
77.96741
 31
0.0
  0
LINE
  5
E4
330
6F
100
AcDbEntity
  8
LAYER1
100
AcDbLine
 10
-82.39382199999999
 20
20.886791
 30
0.0
 11
-83.02918899999998
 21
21.057037
 31
0.0
  0
LINE
  5
E5
330
6F
100
AcDbEntity
  8
LAYER1
100
AcDbLine
 10
-25.444075
 20
84.27546099999998
 30
0.0
 11
-31.317218
 21
101.577182
 31
0.0
  0
LINE
  5
E6
330
6F
100
AcDbEntity
  8
LAYER1
100
AcDbLine
 10
-67.250638
 20
53.052773
 30
0.0
 11
-66.728789
 21
52.652338
 31
0.0
  0
LINE
  5
E7
330
6F
100
AcDbEntity
  8
LAYER1
100
AcDbLine
 10
-46.389183
 20
74.818433
 30
0.0
 11
-56.540219
 21
90.010531
 31
0.0
  0
LINE
  5
E8
330
6F
100
AcDbEntity
  8
LAYER1
100
AcDbLine
 10
-60.911748
 20
59.285402
 30
0.0
 11
-61.37686899999999
 21
59.750523
 31
0.0
  0
LINE
  5
E9
330
6F
100
AcDbEntity
  8
LAYER1
100
AcDbLine
 10
-74.18042199999998
 20
41.50018099999999
 30
0.0
 11
-74.75007600000002
 21
41.829071
 31
0.0
  0
LINE
  5
EA
330
6F
100
AcDbEntity
  8
LAYER1
100
AcDbLine
 10
-87.59739899999997
 20
8.743562999999998
 30
0.0
 11
-105.82966
 21
9.938568
 31
0.0
  0
LINE
  5
EB
330
6F
100
AcDbEntity
  8
LAYER1
100
AcDbLine
 10
-96.62045800000001
 20
44.307777
 30
0.0
 11
-80.23335499999998
 21
36.226552
 31
0.0
  0
LINE
  5
EC
330
6F
100
AcDbEntity
  8
LAYER1
100
AcDbLine
 10
-2.764993999999999
 20
87.98925500000001
 30
0.0
 11
-3.959999999999998
 21
106.221516
 31
0.0
  0
LINE
  5
ED
330
6F
100
AcDbEntity
  8
LAYER1
100
AcDbLine
 10
-33.587576
 20
78.082487
 30
0.0
 11
-33.83929699999999
 21
78.690196
 31
0.0
  0
LINE
  5
EE
330
6F
100
AcDbEntity
  8
LAYER1
100
AcDbLine
 10
-52.652342
 20
66.728786
 30
0.0
 11
-53.052773
 21
67.250638
 31
0.0
  0
LINE
  5
EF
330
6F
100
AcDbEntity
  8
LAYER1
100
AcDbLine
 10
-21.057037
 20
83.02918899999998
 30
0.0
 11
-20.886795
 21
82.393821
 31
0.0
  0
LINE
  5
F0
330
6F
100
AcDbEntity
  8
LAYER1
100
AcDbLine
 10
-64.172945
 20
60.262653
 30
0.0
 11
-77.91009699999998
 21
72.30981199999998
 31
0.0
  0
LINE
  5
F1
330
6F
100
AcDbEntity
  8
LAYER1
100
AcDbLine
 10
-78.690196
 20
33.83929699999999
 30
0.0
 11
-78.08248899999998
 21
33.58757199999999
 31
0.0
  0
LINE
  5
F2
330
6F
100
AcDbEntity
  8
LAYER1
100
AcDbLine
 10
-61.52188299999999
 20
86.68188999999998
 30
0.0
 11
-51.37084699999999
 21
71.48979199999998
 31
0.0
  0
LINE
  5
F3
330
6F
100
AcDbEntity
  8
LAYER1
100
AcDbLine
 10
-36.226552
 20
80.23335499999998
 30
0.0
 11
-44.307777
 21
96.62045800000001
 31
0.0
  0
LINE
  5
F4
330
6F
100
AcDbEntity
  8
LAYER1
100
AcDbLine
 10
-106.94091
 20
11.292631
 30
0.0
 11
-106.219735
 21
16.770501
 31
0.0
  0
LINE
  5
F5
330
6F
100
AcDbEntity
  8
LAYER1
100
AcDbLine
 10
-90.010531
 20
56.540219
 30
0.0
 11
-74.818433
 21
46.389183
 31
0.0
  0
LINE
  5
F6
330
6F
100
AcDbEntity
  8
LAYER1
100
AcDbLine
 10
-14.226242
 20
86.87559099999999
 30
0.0
 11
-17.790812
 21
104.795893
 31
0.0
  0
LINE
  5
F7
330
6F
100
AcDbEntity
  8
LAYER1
100
AcDbLine
 10
-106.221516
 20
3.959999999999998
 30
0.0
 11
-87.98925500000001
 21
2.764993999999999
 31
0.0
  0
LINE
  5
F8
330
6F
100
AcDbEntity
  8
LAYER1
100
AcDbLine
 10
-2.762569
 20
107.5
 30
0.0
 11
0.0000000000000066
 21
107.5
 31
0.0
  0
LINE
  5
F9
330
6F
100
AcDbEntity
  8
LAYER1
100
AcDbLine
 10
-49.68129799999999
 20
93.97053099999999
 30
0.0
 11
-41.60007199999999
 21
77.583428
 31
0.0
  0
LINE
  5
FA
330
6F
100
AcDbEntity
  8
LAYER1
100
AcDbLine
 10
-101.577182
 20
31.317218
 30
0.0
 11
-84.27546099999998
 21
25.444075
 31
0.0
  0
LINE
  5
FB
330
6F
100
AcDbEntity
  8
LAYER1
100
AcDbLine
 10
-9.938568
 20
105.82966
 30
0.0
 11
-8.743562999999998
 21
87.59739899999997
 31
0.0
  0
LINE
  5
FC
330
6F
100
AcDbEntity
  8
LAYER1
100
AcDbLine
 10
-107.5
 20
0.0
 30
0.0
 11
-107.5
 21
2.762569
 31
0.0
  0
LINE
  5
FD
330
6F
100
AcDbEntity
  8
LAYER1
100
AcDbLine
 10
-10.039407
 20
85.067357
 30
0.0
 11
-12.31973
 21
84.76714699999998
 31
0.0
  0
LINE
  5
FE
330
6F
100
AcDbEntity
  8
LAYER1
100
AcDbLine
 10
-21.057037
 20
83.02918899999998
 30
0.0
 11
-23.278666
 21
82.43390499999998
 31
0.0
  0
LINE
  5
FF
330
6F
100
AcDbEntity
  8
LAYER1
100
AcDbLine
 10
-31.714375
 20
79.570368
 30
0.0
 11
-33.83929699999999
 21
78.690196
 31
0.0
  0
LINE
  5
100
330
6F
100
AcDbEntity
  8
LAYER1
100
AcDbLine
 10
-41.829071
 20
74.75007600000002
 30
0.0
 11
-43.82092899999999
 21
73.600076
 31
0.0
  0
LINE
  5
101
330
6F
100
AcDbEntity
  8
LAYER1
100
AcDbLine
 10
-51.22806
 20
68.650789
 30
0.0
 11
-53.052773
 21
67.250638
 31
0.0
  0
LINE
  5
102
330
6F
100
AcDbEntity
  8
LAYER1
100
AcDbLine
 10
-59.750523
 20
61.37686899999999
 30
0.0
 11
-61.37686899999999
 21
59.750523
 31
0.0
  0
LINE
  5
103
330
6F
100
AcDbEntity
  8
LAYER1
100
AcDbLine
 10
-67.250638
 20
53.052773
 30
0.0
 11
-68.650789
 21
51.22806
 31
0.0
  0
LINE
  5
104
330
6F
100
AcDbEntity
  8
LAYER1
100
AcDbLine
 10
-73.600076
 20
43.82092899999999
 30
0.0
 11
-74.75007600000002
 21
41.829071
 31
0.0
  0
LINE
  5
105
330
6F
100
AcDbEntity
  8
LAYER1
100
AcDbLine
 10
-78.690196
 20
33.83929699999999
 30
0.0
 11
-79.570368
 21
31.714375
 31
0.0
  0
LINE
  5
106
330
6F
100
AcDbEntity
  8
LAYER1
100
AcDbLine
 10
-82.43390499999998
 20
23.278666
 30
0.0
 11
-83.02918899999998
 21
21.057037
 31
0.0
  0
LINE
  5
107
330
6F
100
AcDbEntity
  8
LAYER1
100
AcDbLine
 10
-84.76714699999998
 20
12.31973
 30
0.0
 11
-85.067357
 21
10.039407
 31
0.0
  0
LINE
  5
108
330
6F
100
AcDbEntity
  8
LAYER1
100
AcDbLine
 10
-85.65000000000003
 20
1.149999999999999
 30
0.0
 11
-85.65000000000003
 21
0.0
 31
0.0
  0
LINE
  5
109
330
6F
100
AcDbEntity
  8
LAYER1
100
AcDbLine
 10
-1.149999999999999
 20
85.65000000000003
 30
0.0
 11
1.149999999999999
 21
85.65000000000003
 31
0.0
  0
LINE
  5
1EB
330
6F
100
AcDbEntity
  8
LAYER1
100
AcDbLine
 10
-65.36841735213463
 20
20.44176883908991
 30
0.0
 11
-65.38690476499998
 21
0.0000000000000098
 31
0.0
  0
LINE
  5
1ED
330
6F
100
AcDbEntity
  8
LAYER1
100
AcDbLine
 10
-75.23081199283573
 20
34.80219496016135
 30
0.0
 11
-65.95800511682146
 21
22.23641768694859
 31
0.0
  0
LINE
  5
1EE
330
6F
100
AcDbEntity
  8
LAYER1
100
AcDbLine
 10
65.36841735213463
 20
20.44176883908988
 30
0.0
 11
65.38690476499998
 21
0.0000000000000166
 31
0.0
  0
LINE
  5
1F0
330
6F
100
AcDbEntity
  8
LAYER1
100
AcDbLine
 10
75.23081199283573
 20
34.80219496016133
 30
0.0
 11
65.95800511682148
 21
22.23641768694855
 31
0.0
  0
LINE
  5
1F1
330
6F
100
AcDbEntity
  8
LAYER1
100
AcDbLine
 10
-27.20124683090696
 20
65.38690476499998
 30
0.0
 11
27.20124683090697
 21
65.38690476499998
 31
0.0
  0
LINE
  5
1F2
330
6F
100
AcDbEntity
  8
LAYER1
100
AcDbLine
 10
-28.83787465679521
 20
65.86923216155951
 30
0.0
 11
-39.59736453763078
 21
72.81424259027154
 31
0.0
  0
LINE
  5
1F3
330
6F
100
AcDbEntity
  8
LAYER1
100
AcDbLine
 10
28.83787465679523
 20
65.86923216155951
 30
0.0
 11
39.59736453763078
 21
72.81424259027153
 31
0.0
  0
LINE
  5
1F8
330
6F
100
AcDbEntity
  8
LAYER1
100
AcDbLine
 10
-60.9607142886
 20
0.0000000000000093
 30
0.0
 11
-60.9607142886
 21
21.92568124875075
 31
0.0
  0
LINE
  5
1F9
330
6F
100
AcDbEntity
  8
LAYER1
100
AcDbLine
 10
-73.07761248742051
 20
39.33850195605463
 30
0.0
 11
-61.55030328748149
 21
23.71760076586514
 31
0.0
  0
LINE
  5
1FA
330
6F
100
AcDbEntity
  8
LAYER1
100
AcDbLine
 10
-57.9428571456
 20
0.0000000000000089
 30
0.0
 11
-57.9428571456
 21
22.91863620834296
 31
0.0
  0
LINE
  5
1FC
330
6F
100
AcDbEntity
  8
LAYER1
100
AcDbLine
 10
-70.91131808933844
 20
41.48542765286621
 30
0.0
 11
-58.53244614448152
 21
24.71055572545733
 31
0.0
  0
LINE
  5
1FD
330
6F
100
AcDbEntity
  8
LAYER1
100
AcDbLine
 10
-73.14030800035182
 20
40.43715663405293
 30
0.0
 11
-72.59285903168207
 21
41.3894693194549
 31
0.0
  0
LINE
  5
1FF
330
6F
100
AcDbEntity
  8
LAYER1
100
AcDbLine
 10
-52.4101190501
 20
0.0000000000000082
 30
0.0
 11
-52.4101190501
 21
24.73879710976937
 31
0.0
  0
LINE
  5
201
330
6F
100
AcDbEntity
  8
LAYER1
100
AcDbLine
 10
-49.3922619071
 20
0.0000000000000078
 30
0.0
 11
-49.3922619071
 21
25.73161214691107
 31
0.0
  0
LINE
  5
204
330
6F
100
AcDbEntity
  8
LAYER1
100
AcDbLine
 10
-67.80957315595784
 20
46.59987894946086
 30
0.0
 11
-52.9997080489815
 21
26.53071662688376
 31
0.0
  0
LINE
  5
205
330
6F
100
AcDbEntity
  8
LAYER1
100
AcDbLine
 10
-65.56950748795905
 20
48.64669571127476
 30
0.0
 11
-49.98185090598152
 21
27.52353166402544
 31
0.0
  0
LINE
  5
206
330
6F
100
AcDbEntity
  8
LAYER1
100
AcDbLine
 10
-67.81304851171111
 20
47.78975352710581
 30
0.0
 11
-67.19182827312464
 21
48.64195727751017
 31
0.0
  0
LINE
  5
208
330
6F
100
AcDbEntity
  8
LAYER1
100
AcDbLine
 10
60.9607142886
 20
0.0000000000000166
 30
0.0
 11
60.96071428860001
 21
21.92568124875073
 31
0.0
  0
LINE
  5
209
330
6F
100
AcDbEntity
  8
LAYER1
100
AcDbLine
 10
73.07761248742051
 20
39.33850195605459
 30
0.0
 11
61.55030328748152
 21
23.71760076586512
 31
0.0
  0
LINE
  5
20A
330
6F
100
AcDbEntity
  8
LAYER1
100
AcDbLine
 10
57.94285714559999
 20
0.0000000000000166
 30
0.0
 11
57.9428571456
 21
22.91863620834293
 31
0.0
  0
LINE
  5
20C
330
6F
100
AcDbEntity
  8
LAYER1
100
AcDbLine
 10
70.91131808933846
 20
41.48542765286618
 30
0.0
 11
58.53244614448153
 21
24.71055572545731
 31
0.0
  0
LINE
  5
20D
330
6F
100
AcDbEntity
  8
LAYER1
100
AcDbLine
 10
73.14030800035183
 20
40.43715663405288
 30
0.0
 11
72.59285903168208
 21
41.38946931945489
 31
0.0
  0
LINE
  5
20F
330
6F
100
AcDbEntity
  8
LAYER1
100
AcDbLine
 10
52.41011905009998
 20
0.0000000000000166
 30
0.0
 11
52.4101190501
 21
24.73879710976936
 31
0.0
  0
LINE
  5
211
330
6F
100
AcDbEntity
  8
LAYER1
100
AcDbLine
 10
49.39226190710001
 20
0.0000000000000166
 30
0.0
 11
49.39226190710001
 21
25.73161214691105
 31
0.0
  0
LINE
  5
214
330
6F
100
AcDbEntity
  8
LAYER1
100
AcDbLine
 10
67.80957315595786
 20
46.59987894946083
 30
0.0
 11
52.99970804898153
 21
26.53071662688374
 31
0.0
  0
LINE
  5
215
330
6F
100
AcDbEntity
  8
LAYER1
100
AcDbLine
 10
65.56950748795907
 20
48.64669571127475
 30
0.0
 11
49.98185090598152
 21
27.52353166402543
 31
0.0
  0
LINE
  5
216
330
6F
100
AcDbEntity
  8
LAYER1
100
AcDbLine
 10
67.81304851171111
 20
47.78975352710581
 30
0.0
 11
67.19182827312465
 21
48.64195727751013
 31
0.0
  0
LINE
  5
217
330
6F
100
AcDbEntity
  8
LAYER1
100
AcDbLine
 10
-28.66182436133758
 20
61.06152166964851
 30
0.0
 11
28.6618243613376
 21
61.06152166964851
 31
0.0
  0
LINE
  5
218
330
6F
100
AcDbEntity
  8
LAYER1
100
AcDbLine
 10
-30.29845218722583
 20
61.54384906620805
 30
0.0
 11
-43.81253924620525
 21
70.26689045558716
 31
0.0
  0
LINE
  5
219
330
6F
100
AcDbEntity
  8
LAYER1
100
AcDbLine
 10
-29.64012636795077
 20
57.74187881234851
 30
0.0
 11
29.64012636795079
 21
57.74187881234851
 31
0.0
  0
LINE
  5
21A
330
6F
100
AcDbEntity
  8
LAYER1
100
AcDbLine
 10
-31.27675419383902
 20
58.22420620890806
 30
0.0
 11
-46.08937908079698
 21
67.78542476628203
 31
0.0
  0
LINE
  5
21B
330
6F
100
AcDbEntity
  8
LAYER1
100
AcDbLine
 10
-46.10213617843929
 20
69.46740576453601
 30
0.0
 11
-44.9163815611064
 21
70.25851828954753
 31
0.0
  0
LINE
  5
21C
330
6F
100
AcDbEntity
  8
LAYER1
100
AcDbLine
 10
30.29845218722586
 20
61.54384906620805
 30
0.0
 11
43.81253924620525
 21
70.26689045558713
 31
0.0
  0
LINE
  5
21D
330
6F
100
AcDbEntity
  8
LAYER1
100
AcDbLine
 10
31.27675419383904
 20
58.22420620890806
 30
0.0
 11
46.08937908079702
 21
67.78542476628202
 31
0.0
  0
LINE
  5
21E
330
6F
100
AcDbEntity
  8
LAYER1
100
AcDbLine
 10
46.10213617843932
 20
69.46740576453598
 30
0.0
 11
44.91638156110642
 21
70.25851828954751
 31
0.0
  0
LINE
  5
21F
330
6F
100
AcDbEntity
  8
LAYER1
100
AcDbLine
 10
-31.27062971230607
 20
52.20914071684851
 30
0.0
 11
31.27062971230609
 21
52.20914071684851
 31
0.0
  0
LINE
  5
220
330
6F
100
AcDbEntity
  8
LAYER1
100
AcDbLine
 10
-32.90725753819431
 20
52.69146811340806
 30
0.0
 11
-51.21400792998206
 21
64.50806665059821
 31
0.0
  0
LINE
  5
221
330
6F
100
AcDbEntity
  8
LAYER1
100
AcDbLine
 10
-32.07105862680775
 20
49.49306928814851
 30
0.0
 11
32.07105862680777
 21
49.49306928814851
 31
0.0
  0
LINE
  5
222
330
6F
100
AcDbEntity
  8
LAYER1
100
AcDbLine
 10
-33.707686452696
 20
49.97539668470804
 30
0.0
 11
-52.87076311318219
 21
62.34473470419317
 31
0.0
  0
LINE
  5
223
330
6F
100
AcDbEntity
  8
LAYER1
100
AcDbLine
 10
-52.97049252537764
 20
63.96163935501454
 30
0.0
 11
-52.40482255943635
 21
64.43461813712595
 31
0.0
  0
LINE
  5
224
330
6F
100
AcDbEntity
  8
LAYER1
100
AcDbLine
 10
32.90725753819434
 20
52.69146811340806
 30
0.0
 11
51.21400792998208
 21
64.50806665059821
 31
0.0
  0
LINE
  5
225
330
6F
100
AcDbEntity
  8
LAYER1
100
AcDbLine
 10
33.70768645269603
 20
49.97539668470804
 30
0.0
 11
52.87076311318219
 21
62.34473470419314
 31
0.0
  0
LINE
  5
226
330
6F
100
AcDbEntity
  8
LAYER1
100
AcDbLine
 10
52.97049252537766
 20
63.96163935501451
 30
0.0
 11
52.40482255943635
 21
64.43461813712594
 31
0.0
  0
LINE
  5
237
330
6F
100
AcDbEntity
  8
LAYER1
100
AcDbLine
 10
60.02913747678229
 20
53.50594079798023
 30
0.0
 11
42.55610289077087
 21
29.82786102874041
 31
0.0
  0
LINE
  5
238
330
6F
100
AcDbEntity
  8
LAYER1
100
AcDbLine
 10
35.56230595238625
 20
42.06714206159516
 30
0.0
 11
57.67220771543761
 21
56.03939364778439
 31
0.0
  0
LINE
  5
239
330
6F
100
AcDbEntity
  8
LAYER1
100
AcDbLine
 10
35.56230595238625
 20
42.06714206159516
 30
0.0
 11
29.89636608925888
 21
42.06714206159516
 31
0.0
  0
LINE
  5
23A
330
6F
100
AcDbEntity
  8
LAYER1
100
AcDbLine
 10
29.54070821418096
 20
41.20850799601724
 30
0.0
 11
41.03536442590885
 21
29.71385178428936
 31
0.0
  0
LINE
  5
23F
330
6F
100
AcDbEntity
  8
LAYER1
100
AcDbLine
 10
-60.02913747678228
 20
53.50594079798023
 30
0.0
 11
-42.55610289077087
 21
29.82786102874041
 31
0.0
  0
LINE
  5
240
330
6F
100
AcDbEntity
  8
LAYER1
100
AcDbLine
 10
-35.56230595238624
 20
42.06714206159518
 30
0.0
 11
-57.6722077154376
 21
56.03939364778439
 31
0.0
  0
LINE
  5
241
330
6F
100
AcDbEntity
  8
LAYER1
100
AcDbLine
 10
-35.56230595238624
 20
42.06714206159518
 30
0.0
 11
-29.89636608925888
 21
42.06714206159518
 31
0.0
  0
LINE
  5
242
330
6F
100
AcDbEntity
  8
LAYER1
100
AcDbLine
 10
-29.54070821418095
 20
41.20850799601726
 30
0.0
 11
-41.03536442590884
 21
29.71385178428936
 31
0.0
  0
ARC
  5
247
330
6F
100
AcDbEntity
  8
LAYER1
100
AcDbCircle
 10
38.12696748050964
 20
99.2655832614335
 30
0.0
 40
1.200000430073862
100
AcDbArc
 50
67.49998779980129
 51
161.2499877998013
  0
ARC
  5
248
330
6F
100
AcDbEntity
  8
LAYER1
100
AcDbCircle
 10
11.50946650785164
 20
87.41599094585899
 30
0.0
 40
2.77000021231449
100
AcDbArc
 50
287.0085180642416
 51
348.7500060642416
  0
ARC
  5
249
330
6F
100
AcDbEntity
  8
LAYER1
100
AcDbCircle
 10
-0.0000072078140363
 20
0.0000058826530096
 30
0.0
 40
85.00000689537982
100
AcDbArc
 50
0.7751978155463533
 51
6.724796815546352
  0
ARC
  5
24A
330
6F
100
AcDbEntity
  8
LAYER1
100
AcDbCircle
 10
-0.0000045704729388
 20
-0.0000006604907554
 30
0.0
 40
85.00000399197507
100
AcDbArc
 50
38.27520047302512
 51
44.22479947302512
  0
ARC
  5
24B
330
6F
100
AcDbEntity
  8
LAYER1
100
AcDbCircle
 10
44.08440986427122
 20
76.35828860243404
 30
0.0
 40
2.770000210707566
100
AcDbArc
 50
153.7500084763685
 51
215.4914964763685
  0
ARC
  5
24C
330
6F
100
AcDbEntity
  8
LAYER1
100
AcDbCircle
 10
53.67401840604807
 20
69.95086230663779
 30
0.0
 40
2.770000564395129
100
AcDbArc
 50
146.2500041211887
 51
207.9914921211887
  0
ARC
  5
24D
330
6F
100
AcDbEntity
  8
LAYER1
100
AcDbCircle
 10
44.08601242194177
 20
76.35736276836661
 30
0.0
 40
2.769999917616959
100
AcDbArc
 50
264.5085053162727
 51
326.2499933162725
  0
ARC
  5
24E
330
6F
100
AcDbEntity
  8
LAYER1
100
AcDbCircle
 10
87.41623232706938
 20
11.5076324447289
 30
0.0
 40
2.770000227195781
100
AcDbArc
 50
212.0085117948639
 51
273.7499997948638
  0
ARC
  5
24F
330
6F
100
AcDbEntity
  8
LAYER1
100
AcDbCircle
 10
86.01520597288907
 20
62.51964653701421
 30
0.0
 40
1.199999861583331
100
AcDbArc
 50
303.7499899155969
 51
37.49998991559679
  0
ARC
  5
250
330
6F
100
AcDbEntity
  8
LAYER1
100
AcDbCircle
 10
-0.0000060607986399
 20
-0.0000078924747697
 30
0.0
 40
85.00000951785587
100
AcDbArc
 50
53.27520161910936
 51
59.22480061910932
  0
ARC
  5
251
330
6F
100
AcDbEntity
  8
LAYER1
100
AcDbCircle
 10
16.61386971948408
 20
105.0300012322807
 30
0.0
 40
1.199999915036492
100
AcDbArc
 50
348.750006696832
 51
82.50000669683201
  0
ARC
  5
252
330
6F
100
AcDbEntity
  8
LAYER1
100
AcDbCircle
 10
85.16584847557034
 20
22.82107827412977
 30
0.0
 40
2.770000303353515
100
AcDbArc
 50
108.7500012925053
 51
170.4914892925053
  0
ARC
  5
253
330
6F
100
AcDbEntity
  8
LAYER1
100
AcDbCircle
 10
33.74221392102131
 20
81.45849475136669
 30
0.0
 40
2.77000055975489
100
AcDbArc
 50
272.0085158771603
 51
333.7500038771602
  0
ARC
  5
254
330
6F
100
AcDbEntity
  8
LAYER1
100
AcDbCircle
 10
-0.0000046604908377
 20
-0.0000015704728753
 30
0.0
 40
85.00000399197501
100
AcDbArc
 50
45.77520052697482
 51
51.72479952697481
  0
ARC
  5
255
330
6F
100
AcDbEntity
  8
LAYER1
100
AcDbCircle
 10
106.2999997407409
 20
2.762569031358738
 30
0.0
 40
1.200000259259071
100
AcDbArc
 50
359.9999985027308
 51
93.74999850273113
  0
ARC
  5
256
330
6F
100
AcDbEntity
  8
LAYER1
100
AcDbCircle
 10
88.17042144980499
 20
0.0009253340674573
 30
0.0
 40
2.769999435473778
100
AcDbArc
 50
93.74999624310035
 51
155.4914842431004
  0
ARC
  5
257
330
6F
100
AcDbEntity
  8
LAYER1
100
AcDbCircle
 10
69.95086230663779
 20
53.67401840604807
 30
0.0
 40
2.770000564395128
100
AcDbArc
 50
242.0085078788113
 51
303.7499958788113
  0
ARC
  5
258
330
6F
100
AcDbEntity
  8
LAYER1
100
AcDbCircle
 10
99.2655832614335
 20
38.12696748050964
 30
0.0
 40
1.200000430073862
100
AcDbArc
 50
288.7500122001987
 51
22.50001220019874
  0
ARC
  5
259
330
6F
100
AcDbEntity
  8
LAYER1
100
AcDbCircle
 10
62.51964653701421
 20
86.01520597288907
 30
0.0
 40
1.199999861583331
100
AcDbArc
 50
52.50001008440321
 51
146.2500100844031
  0
ARC
  5
25A
330
6F
100
AcDbEntity
  8
LAYER1
100
AcDbCircle
 10
22.82107827412977
 20
85.16584847557034
 30
0.0
 40
2.770000303353515
100
AcDbArc
 50
279.5085107074947
 51
341.2499987074947
  0
ARC
  5
25B
330
6F
100
AcDbEntity
  8
LAYER1
100
AcDbCircle
 10
55.54245512217661
 20
90.67721517967013
 30
0.0
 40
1.200000229713145
100
AcDbArc
 50
326.2500130683209
 51
60.00001306832069
  0
ARC
  5
25C
330
6F
100
AcDbEntity
  8
LAYER1
100
AcDbCircle
 10
-0.0000060098215187
 20
-0.0000011470156451
 30
0.0
 40
85.00000619550302
100
AcDbArc
 50
23.27520087088516
 51
29.22479987088517
  0
ARC
  5
25D
330
6F
100
AcDbEntity
  8
LAYER1
100
AcDbCircle
 10
-0.0000016101857909
 20
-0.0000048217580293
 30
0.0
 40
85.00000319822971
100
AcDbArc
 50
15.77520462517311
 51
21.72480362517311
  0
ARC
  5
25E
330
6F
100
AcDbEntity
  8
LAYER1
100
AcDbCircle
 10
66.90303325177106
 20
82.65171401025051
 30
0.0
 40
1.20000000558751
100
AcDbArc
 50
318.7499981934823
 51
52.49999819348282
  0
ARC
  5
25F
330
6F
100
AcDbEntity
  8
LAYER1
100
AcDbCircle
 10
97.15120457470465
 20
43.23152973350668
 30
0.0
 40
1.200000043831258
100
AcDbArc
 50
22.50000676402114
 51
116.2500067640209
  0
ARC
  5
260
330
6F
100
AcDbEntity
  8
LAYER1
100
AcDbCircle
 10
103.3929209002783
 20
24.84402742609964
 30
0.0
 40
1.200000031961922
100
AcDbArc
 50
281.2499857394622
 51
14.99998573946219
  0
ARC
  5
261
330
6F
100
AcDbEntity
  8
LAYER1
100
AcDbCircle
 10
50.75754558686543
 20
93.43978517932994
 30
0.0
 40
1.199999997663485
100
AcDbArc
 50
60.00003229117201
 51
153.7500322911718
  0
ARC
  5
262
330
6F
100
AcDbEntity
  8
LAYER1
100
AcDbCircle
 10
81.45849475136669
 20
33.74221392102131
 30
0.0
 40
2.77000055975489
100
AcDbArc
 50
116.2499961228398
 51
177.9914841228398
  0
ARC
  5
263
330
6F
100
AcDbEntity
  8
LAYER1
100
AcDbCircle
 10
105.0300012322807
 20
16.61386971948408
 30
0.0
 40
1.199999915036492
100
AcDbArc
 50
7.499993303167982
 51
101.249993303168
  0
ARC
  5
264
330
6F
100
AcDbEntity
  8
LAYER1
100
AcDbCircle
 10
69.94973517090153
 20
53.67548584824506
 30
0.0
 40
2.769999427678325
100
AcDbArc
 50
131.2499901076763
 51
192.9914781076764
  0
ARC
  5
265
330
6F
100
AcDbEntity
  8
LAYER1
100
AcDbCircle
 10
87.41599094585899
 20
11.50946650785164
 30
0.0
 40
2.77000021231449
100
AcDbArc
 50
101.2499939357584
 51
162.9914819357584
  0
ARC
  5
266
330
6F
100
AcDbEntity
  8
LAYER1
100
AcDbCircle
 10
0.0009253340674586
 20
88.17042144980499
 30
0.0
 40
2.769999435473776
100
AcDbArc
 50
294.5085157568997
 51
356.2500037568996
  0
ARC
  5
267
330
6F
100
AcDbEntity
  8
LAYER1
100
AcDbCircle
 10
-0.0000099822487272
 20
-0.000005661249693
 30
0.0
 40
85.00001073996493
100
AcDbArc
 50
8.275204330103386
 51
14.22480333010338
  0
ARC
  5
268
330
6F
100
AcDbEntity
  8
LAYER1
100
AcDbCircle
 10
-0.0000051470156706
 20
-0.0000040098215379
 30
0.0
 40
85.00000619550304
100
AcDbArc
 50
60.77520012911485
 51
66.72479912911481
  0
ARC
  5
269
330
6F
100
AcDbEntity
  8
LAYER1
100
AcDbCircle
 10
11.5076324447289
 20
87.41623232706938
 30
0.0
 40
2.770000227195781
100
AcDbArc
 50
176.2500002051361
 51
237.9914882051361
  0
ARC
  5
26A
330
6F
100
AcDbEntity
  8
LAYER1
100
AcDbCircle
 10
62.3452484185495
 20
62.34655735565851
 30
0.0
 40
2.769999188585911
100
AcDbArc
 50
138.7499925301073
 51
200.4914805301072
  0
ARC
  5
26B
330
6F
100
AcDbEntity
  8
LAYER1
100
AcDbCircle
 10
0.0000007997790767
 20
-0.0000001101855105
 30
0.0
 40
85.00000010131428
100
AcDbArc
 50
68.27520252449545
 51
74.22480152449544
  0
ARC
  5
26C
330
6F
100
AcDbEntity
  8
LAYER1
100
AcDbCircle
 10
85.16632786549534
 20
22.81929028350381
 30
0.0
 40
2.769999849391804
100
AcDbArc
 50
219.5084903177993
 51
281.2499783177991
  0
ARC
  5
26D
330
6F
100
AcDbEntity
  8
LAYER1
100
AcDbCircle
 10
0.0000008826529889
 20
-0.0000072078143631
 30
0.0
 40
85.00000689538014
100
AcDbArc
 50
83.27520318445365
 51
89.22480218445363
  0
ARC
  5
26E
330
6F
100
AcDbEntity
  8
LAYER1
100
AcDbCircle
 10
-0.0000096612498091
 20
-0.0000089822486018
 30
0.0
 40
85.00001073996481
100
AcDbArc
 50
75.77519666989653
 51
81.72479566989656
  0
ARC
  5
26F
330
6F
100
AcDbEntity
  8
LAYER1
100
AcDbCircle
 10
24.84402742609964
 20
103.3929209002783
 30
0.0
 40
1.200000031961922
100
AcDbArc
 50
75.00001426053781
 51
168.7500142605377
  0
ARC
  5
270
330
6F
100
AcDbEntity
  8
LAYER1
100
AcDbCircle
 10
43.23152973350668
 20
97.15120457470465
 30
0.0
 40
1.200000043831258
100
AcDbArc
 50
333.7499932359791
 51
67.49999323597887
  0
ARC
  5
271
330
6F
100
AcDbEntity
  8
LAYER1
100
AcDbCircle
 10
76.35828860243404
 20
44.08440986427122
 30
0.0
 40
2.770000210707566
100
AcDbArc
 50
234.5085035236315
 51
296.2499915236315
  0
ARC
  5
272
330
6F
100
AcDbEntity
  8
LAYER1
100
AcDbCircle
 10
73.21201924117331
 20
77.1188823666955
 30
0.0
 40
1.19999937582515
100
AcDbArc
 50
44.99999576213536
 51
138.7499957621352
  0
ARC
  5
273
330
6F
100
AcDbEntity
  8
LAYER1
100
AcDbCircle
 10
93.43978517932994
 20
50.75754558686543
 30
0.0
 40
1.199999997663485
100
AcDbArc
 50
296.2499677088281
 51
29.99996770882799
  0
ARC
  5
274
330
6F
100
AcDbEntity
  8
LAYER1
100
AcDbCircle
 10
30.18090119080388
 20
101.9629093561929
 30
0.0
 40
1.200000618407037
100
AcDbArc
 50
341.2500101324386
 51
75.00001013243871
  0
ARC
  5
275
330
6F
100
AcDbEntity
  8
LAYER1
100
AcDbCircle
 10
77.1188823666955
 20
73.21201924117331
 30
0.0
 40
1.19999937582515
100
AcDbArc
 50
311.2500042378647
 51
45.00000423786461
  0
ARC
  5
276
330
6F
100
AcDbEntity
  8
LAYER1
100
AcDbCircle
 10
11.13599910181559
 20
105.7511758022198
 30
0.0
 40
1.200000422040135
100
AcDbArc
 50
82.49998013785539
 51
176.2499801378548
  0
ARC
  5
277
330
6F
100
AcDbEntity
  8
LAYER1
100
AcDbCircle
 10
90.67721517967013
 20
55.54245512217661
 30
0.0
 40
1.200000229713145
100
AcDbArc
 50
29.99998693167933
 51
123.7499869316791
  0
ARC
  5
278
330
6F
100
AcDbEntity
  8
LAYER1
100
AcDbCircle
 10
76.35736276836661
 20
44.08601242194177
 30
0.0
 40
2.76999991761696
100
AcDbArc
 50
123.7500066837274
 51
185.4914946837273
  0
ARC
  5
279
330
6F
100
AcDbEntity
  8
LAYER1
100
AcDbCircle
 10
82.65171401025051
 20
66.90303325177106
 30
0.0
 40
1.20000000558751
100
AcDbArc
 50
37.50000180651717
 51
131.2500018065177
  0
ARC
  5
27A
330
6F
100
AcDbEntity
  8
LAYER1
100
AcDbCircle
 10
2.762569031358738
 20
106.2999997407409
 30
0.0
 40
1.200000259259071
100
AcDbArc
 50
356.2500014972688
 51
90.00000149726913
  0
ARC
  5
27B
330
6F
100
AcDbEntity
  8
LAYER1
100
AcDbCircle
 10
53.67548584824506
 20
69.94973517090153
 30
0.0
 40
2.769999427678325
100
AcDbArc
 50
257.0085218923236
 51
318.7500098923236
  0
ARC
  5
27C
330
6F
100
AcDbEntity
  8
LAYER1
100
AcDbCircle
 10
22.81929028350381
 20
85.16632786549534
 30
0.0
 40
2.769999849391804
100
AcDbArc
 50
168.7500216822009
 51
230.4915096822007
  0
ARC
  5
27D
330
6F
100
AcDbEntity
  8
LAYER1
100
AcDbCircle
 10
81.45920335156926
 20
33.74050509761394
 30
0.0
 40
2.770000389493631
100
AcDbArc
 50
227.0084946199474
 51
288.7499826199473
  0
ARC
  5
27E
330
6F
100
AcDbEntity
  8
LAYER1
100
AcDbCircle
 10
62.34655735565851
 20
62.3452484185495
 30
0.0
 40
2.769999188585911
100
AcDbArc
 50
249.5085194698927
 51
311.2500074698927
  0
ARC
  5
27F
330
6F
100
AcDbEntity
  8
LAYER1
100
AcDbCircle
 10
-0.0000098924745231
 20
-0.0000020607984794
 30
0.0
 40
85.00000951785557
100
AcDbArc
 50
30.77519938089068
 51
36.72479838089068
  0
ARC
  5
280
330
6F
100
AcDbEntity
  8
LAYER1
100
AcDbCircle
 10
101.9629093561929
 20
30.18090119080388
 30
0.0
 40
1.200000618407037
100
AcDbArc
 50
14.99998986756132
 51
108.7499898675613
  0
ARC
  5
281
330
6F
100
AcDbEntity
  8
LAYER1
100
AcDbCircle
 10
105.7511758022198
 20
11.13599910181559
 30
0.0
 40
1.200000422040135
100
AcDbArc
 50
273.7500198621452
 51
7.500019862144686
  0
ARC
  5
282
330
6F
100
AcDbEntity
  8
LAYER1
100
AcDbCircle
 10
33.74050509761394
 20
81.45920335156926
 30
0.0
 40
2.770000389493633
100
AcDbArc
 50
161.2500173800525
 51
222.9915053800525
  0
ARC
  5
283
330
6F
100
AcDbEntity
  8
LAYER1
100
AcDbCircle
 10
-73.21201924117331
 20
77.1188823666955
 30
0.0
 40
1.19999937582515
100
AcDbArc
 50
41.25000423786475
 51
135.0000042378646
  0
ARC
  5
284
330
6F
100
AcDbEntity
  8
LAYER1
100
AcDbCircle
 10
-99.2655832614335
 20
38.12696748050964
 30
0.0
 40
1.200000430073862
100
AcDbArc
 50
157.4999877998012
 51
251.2499877998013
  0
ARC
  5
285
330
6F
100
AcDbEntity
  8
LAYER1
100
AcDbCircle
 10
-76.35828860243404
 20
44.08440986427122
 30
0.0
 40
2.770000210707566
100
AcDbArc
 50
243.7500084763685
 51
305.4914964763685
  0
ARC
  5
286
330
6F
100
AcDbEntity
  8
LAYER1
100
AcDbCircle
 10
-24.84402742609964
 20
103.3929209002783
 30
0.0
 40
1.200000031961922
100
AcDbArc
 50
11.24998573946222
 51
104.9999857394622
  0
ARC
  5
287
330
6F
100
AcDbEntity
  8
LAYER1
100
AcDbCircle
 10
0.0000006604906915
 20
-0.0000045704728535
 30
0.0
 40
85.00000399197494
100
AcDbArc
 50
128.275200473025
 51
134.2247994730251
  0
ARC
  5
288
330
6F
100
AcDbEntity
  8
LAYER1
100
AcDbCircle
 10
-81.45920335156926
 20
33.74050509761394
 30
0.0
 40
2.770000389493631
100
AcDbArc
 50
251.2500173800526
 51
312.9915053800526
  0
ARC
  5
289
330
6F
100
AcDbEntity
  8
LAYER1
100
AcDbCircle
 10
-43.23152973350668
 20
97.15120457470465
 30
0.0
 40
1.200000043831259
100
AcDbArc
 50
112.5000067640211
 51
206.2500067640209
  0
ARC
  5
28A
330
6F
100
AcDbEntity
  8
LAYER1
100
AcDbCircle
 10
-2.762569031358736
 20
106.2999997407409
 30
0.0
 40
1.200000259259072
100
AcDbArc
 50
89.99999850273086
 51
183.7499985027312
  0
ARC
  5
28B
330
6F
100
AcDbEntity
  8
LAYER1
100
AcDbCircle
 10
-62.34655735565851
 20
62.3452484185495
 30
0.0
 40
2.769999188585911
100
AcDbArc
 50
228.7499925301073
 51
290.4914805301073
  0
ARC
  5
28C
330
6F
100
AcDbEntity
  8
LAYER1
100
AcDbCircle
 10
-85.16632786549534
 20
22.81929028350381
 30
0.0
 40
2.769999849391804
100
AcDbArc
 50
258.7500216822009
 51
320.4915096822007
  0
ARC
  5
28D
330
6F
100
AcDbEntity
  8
LAYER1
100
AcDbCircle
 10
-33.74221392102131
 20
81.45849475136669
 30
0.0
 40
2.77000055975489
100
AcDbArc
 50
206.2499961228398
 51
267.9914841228397
  0
ARC
  5
28E
330
6F
100
AcDbEntity
  8
LAYER1
100
AcDbCircle
 10
-93.43978517932994
 20
50.75754558686543
 30
0.0
 40
1.199999997663485
100
AcDbArc
 50
150.000032291172
 51
243.7500322911718
  0
ARC
  5
28F
330
6F
100
AcDbEntity
  8
LAYER1
100
AcDbCircle
 10
-0.0000058826530283
 20
-0.0000072078137521
 30
0.0
 40
85.00000689537952
100
AcDbArc
 50
90.77519781554636
 51
96.72479681554635
  0
ARC
  5
290
330
6F
100
AcDbEntity
  8
LAYER1
100
AcDbCircle
 10
-66.90303325177106
 20
82.65171401025051
 30
0.0
 40
1.20000000558751
100
AcDbArc
 50
127.5000018065171
 51
221.2500018065177
  0
ARC
  5
291
330
6F
100
AcDbEntity
  8
LAYER1
100
AcDbCircle
 10
0.0000040098213674
 20
-0.0000051470155995
 30
0.0
 40
85.00000619550286
100
AcDbArc
 50
150.7752001291148
 51
156.7247991291148
  0
ARC
  5
292
330
6F
100
AcDbEntity
  8
LAYER1
100
AcDbCircle
 10
-62.51964653701421
 20
86.01520597288907
 30
0.0
 40
1.199999861583331
100
AcDbArc
 50
33.74998991559693
 51
127.4999899155967
  0
ARC
  5
293
330
6F
100
AcDbEntity
  8
LAYER1
100
AcDbCircle
 10
-33.74050509761394
 20
81.45920335156926
 30
0.0
 40
2.770000389493633
100
AcDbArc
 50
317.0084946199474
 51
18.74998261994741
  0
ARC
  5
294
330
6F
100
AcDbEntity
  8
LAYER1
100
AcDbCircle
 10
-85.16584847557034
 20
22.82107827412977
 30
0.0
 40
2.770000303353513
100
AcDbArc
 50
9.508510707494671
 51
71.24999870749474
  0
ARC
  5
295
330
6F
100
AcDbEntity
  8
LAYER1
100
AcDbCircle
 10
-69.94973517090153
 20
53.67548584824506
 30
0.0
 40
2.769999427678325
100
AcDbArc
 50
347.0085218923236
 51
48.75000989232368
  0
ARC
  5
296
330
6F
100
AcDbEntity
  8
LAYER1
100
AcDbCircle
 10
-105.7511758022198
 20
11.13599910181559
 30
0.0
 40
1.200000422040135
100
AcDbArc
 50
172.4999801378554
 51
266.2499801378548
  0
ARC
  5
297
330
6F
100
AcDbEntity
  8
LAYER1
100
AcDbCircle
 10
-86.01520597288907
 20
62.51964653701421
 30
0.0
 40
1.199999861583331
100
AcDbArc
 50
142.5000100844032
 51
236.2500100844031
  0
ARC
  5
298
330
6F
100
AcDbEntity
  8
LAYER1
100
AcDbCircle
 10
-62.3452484185495
 20
62.34655735565851
 30
0.0
 40
2.769999188585911
100
AcDbArc
 50
339.5085194698927
 51
41.25000746989271
  0
ARC
  5
299
330
6F
100
AcDbEntity
  8
LAYER1
100
AcDbCircle
 10
-22.81929028350381
 20
85.16632786549534
 30
0.0
 40
2.769999849391799
100
AcDbArc
 50
309.5084903177992
 51
11.24997831779915
  0
ARC
  5
29A
330
6F
100
AcDbEntity
  8
LAYER1
100
AcDbCircle
 10
-106.2999997407409
 20
2.762569031358738
 30
0.0
 40
1.200000259259072
100
AcDbArc
 50
86.25000149726885
 51
180.0000014972691
  0
ARC
  5
29B
330
6F
100
AcDbEntity
  8
LAYER1
100
AcDbCircle
 10
-87.41599094585899
 20
11.50946650785165
 30
0.0
 40
2.77000021231449
100
AcDbArc
 50
17.00851806424154
 51
78.75000606424158
  0
ARC
  5
29C
330
6F
100
AcDbEntity
  8
LAYER1
100
AcDbCircle
 10
0.0000072078139652
 20
0.0000008826530138
 30
0.0
 40
85.00000689537975
100
AcDbArc
 50
173.2752031844535
 51
179.2248021844537
  0
ARC
  5
29D
330
6F
100
AcDbEntity
  8
LAYER1
100
AcDbCircle
 10
-76.35736276836661
 20
44.08601242194177
 30
0.0
 40
2.769999917616959
100
AcDbArc
 50
354.5085053162726
 51
56.24999331627263
  0
ARC
  5
29E
330
6F
100
AcDbEntity
  8
LAYER1
100
AcDbCircle
 10
-38.12696748050964
 20
99.2655832614335
 30
0.0
 40
1.200000430073862
100
AcDbArc
 50
18.75001220019868
 51
112.5000122001987
  0
ARC
  5
29F
330
6F
100
AcDbEntity
  8
LAYER1
100
AcDbCircle
 10
-69.95086230663779
 20
53.67401840604807
 30
0.0
 40
2.770000564395129
100
AcDbArc
 50
236.2500041211887
 51
297.9914921211887
  0
ARC
  5
2A0
330
6F
100
AcDbEntity
  8
LAYER1
100
AcDbCircle
 10
-82.65171401025051
 20
66.90303325177106
 30
0.0
 40
1.20000000558751
100
AcDbArc
 50
48.74999819348229
 51
142.4999981934828
  0
ARC
  5
2A1
330
6F
100
AcDbEntity
  8
LAYER1
100
AcDbCircle
 10
-53.67401840604807
 20
69.95086230663779
 30
0.0
 40
2.770000564395129
100
AcDbArc
 50
332.0085078788113
 51
33.74999587881131
  0
ARC
  5
2A2
330
6F
100
AcDbEntity
  8
LAYER1
100
AcDbCircle
 10
0.0000015704731098
 20
-0.0000046604910366
 30
0.0
 40
85.00000399197537
100
AcDbArc
 50
135.7752005269748
 51
141.7247995269748
  0
ARC
  5
2A3
330
6F
100
AcDbEntity
  8
LAYER1
100
AcDbCircle
 10
-11.5076324447289
 20
87.41623232706938
 30
0.0
 40
2.770000227195778
100
AcDbArc
 50
302.0085117948638
 51
3.749999794863962
  0
ARC
  5
2A4
330
6F
100
AcDbEntity
  8
LAYER1
100
AcDbCircle
 10
-16.61386971948408
 20
105.0300012322807
 30
0.0
 40
1.199999915036494
100
AcDbArc
 50
97.499993303168
 51
191.249993303168
  0
ARC
  5
2A5
330
6F
100
AcDbEntity
  8
LAYER1
100
AcDbCircle
 10
0.0000001101852831
 20
0.0000007997791549
 30
0.0
 40
85.00000010131405
100
AcDbArc
 50
158.2752025244954
 51
164.2248015244954
  0
ARC
  5
2A6
330
6F
100
AcDbEntity
  8
LAYER1
100
AcDbCircle
 10
-77.1188823666955
 20
73.21201924117331
 30
0.0
 40
1.19999937582515
100
AcDbArc
 50
134.9999957621353
 51
228.7499957621353
  0
ARC
  5
2A7
330
6F
100
AcDbEntity
  8
LAYER1
100
AcDbCircle
 10
-55.54245512217661
 20
90.67721517967013
 30
0.0
 40
1.200000229713146
100
AcDbArc
 50
119.9999869316793
 51
213.7499869316792
  0
ARC
  5
2A8
330
6F
100
AcDbEntity
  8
LAYER1
100
AcDbCircle
 10
0.0000020607981881
 20
-0.0000098924740826
 30
0.0
 40
85.00000951785507
100
AcDbArc
 50
120.7751993808906
 51
126.7247983808907
  0
ARC
  5
2A9
330
6F
100
AcDbEntity
  8
LAYER1
100
AcDbCircle
 10
-88.17042144980499
 20
0.0009253340674569
 30
0.0
 40
2.769999435473779
100
AcDbArc
 50
24.50851575689962
 51
86.25000375689966
  0
ARC
  5
2AA
330
6F
100
AcDbEntity
  8
LAYER1
100
AcDbCircle
 10
-90.67721517967013
 20
55.54245512217661
 30
0.0
 40
1.200000229713145
100
AcDbArc
 50
56.25001306832086
 51
150.0000130683207
  0
ARC
  5
2AB
330
6F
100
AcDbEntity
  8
LAYER1
100
AcDbCircle
 10
-44.08440986427122
 20
76.35828860243404
 30
0.0
 40
2.770000210707566
100
AcDbArc
 50
324.5085035236315
 51
26.24999152363151
  0
ARC
  5
2AC
330
6F
100
AcDbEntity
  8
LAYER1
100
AcDbCircle
 10
-103.3929209002783
 20
24.84402742609964
 30
0.0
 40
1.200000031961922
100
AcDbArc
 50
165.0000142605378
 51
258.7500142605378
  0
ARC
  5
2AD
330
6F
100
AcDbEntity
  8
LAYER1
100
AcDbCircle
 10
-105.0300012322807
 20
16.61386971948408
 30
0.0
 40
1.199999915036492
100
AcDbArc
 50
78.75000669683197
 51
172.500006696832
  0
ARC
  5
2AE
330
6F
100
AcDbEntity
  8
LAYER1
100
AcDbCircle
 10
0.0000089822486018
 20
-0.0000096612498091
 30
0.0
 40
85.00001073996481
100
AcDbArc
 50
165.7751966698965
 51
171.7247956698965
  0
ARC
  5
2AF
330
6F
100
AcDbEntity
  8
LAYER1
100
AcDbCircle
 10
-50.75754558686543
 20
93.43978517932994
 30
0.0
 40
1.199999997663485
100
AcDbArc
 50
26.24996770882816
 51
119.999967708828
  0
ARC
  5
2B0
330
6F
100
AcDbEntity
  8
LAYER1
100
AcDbCircle
 10
-44.08601242194177
 20
76.35736276836661
 30
0.0
 40
2.769999917616959
100
AcDbArc
 50
213.7500066837274
 51
275.4914946837273
  0
ARC
  5
2B1
330
6F
100
AcDbEntity
  8
LAYER1
100
AcDbCircle
 10
-87.41623232706938
 20
11.5076324447289
 30
0.0
 40
2.770000227195778
100
AcDbArc
 50
266.250000205136
 51
327.9914882051361
  0
ARC
  5
2B2
330
6F
100
AcDbEntity
  8
LAYER1
100
AcDbCircle
 10
-53.67548584824506
 20
69.94973517090153
 30
0.0
 40
2.769999427678324
100
AcDbArc
 50
221.2499901076764
 51
282.9914781076764
  0
ARC
  5
2B3
330
6F
100
AcDbEntity
  8
LAYER1
100
AcDbCircle
 10
-101.9629093561929
 20
30.18090119080388
 30
0.0
 40
1.200000618407037
100
AcDbArc
 50
71.25001013243866
 51
165.0000101324387
  0
ARC
  5
2B4
330
6F
100
AcDbEntity
  8
LAYER1
100
AcDbCircle
 10
-30.18090119080388
 20
101.9629093561929
 30
0.0
 40
1.200000618407037
100
AcDbArc
 50
104.9999898675613
 51
198.7499898675613
  0
ARC
  5
2B5
330
6F
100
AcDbEntity
  8
LAYER1
100
AcDbCircle
 10
0.0000048217579938
 20
-0.0000016101856772
 30
0.0
 40
85.00000319822957
100
AcDbArc
 50
105.7752046251731
 51
111.7248036251731
  0
ARC
  5
2B6
330
6F
100
AcDbEntity
  8
LAYER1
100
AcDbCircle
 10
0.00000566124959
 20
-0.0000099822482156
 30
0.0
 40
85.00001073996436
100
AcDbArc
 50
98.27520433010336
 51
104.2248033301034
  0
ARC
  5
2B7
330
6F
100
AcDbEntity
  8
LAYER1
100
AcDbCircle
 10
-11.50946650785165
 20
87.41599094585899
 30
0.0
 40
2.77000021231449
100
AcDbArc
 50
191.2499939357584
 51
252.9914819357585
  0
ARC
  5
2B8
330
6F
100
AcDbEntity
  8
LAYER1
100
AcDbCircle
 10
-22.82107827412975
 20
85.16584847557034
 30
0.0
 40
2.770000303353515
100
AcDbArc
 50
198.7500012925051
 51
260.4914892925052
  0
ARC
  5
2B9
330
6F
100
AcDbEntity
  8
LAYER1
100
AcDbCircle
 10
-0.0009253340674573
 20
88.17042144980499
 30
0.0
 40
2.769999435473778
100
AcDbArc
 50
183.7499962431003
 51
245.4914842431004
  0
ARC
  5
2BA
330
6F
100
AcDbEntity
  8
LAYER1
100
AcDbCircle
 10
-11.13599910181559
 20
105.7511758022198
 30
0.0
 40
1.200000422040135
100
AcDbArc
 50
3.750019862145211
 51
97.50001986214469
  0
ARC
  5
2BB
330
6F
100
AcDbEntity
  8
LAYER1
100
AcDbCircle
 10
-97.15120457470465
 20
43.23152973350668
 30
0.0
 40
1.200000043831259
100
AcDbArc
 50
63.74999323597915
 51
157.4999932359788
  0
ARC
  5
2BC
330
6F
100
AcDbEntity
  8
LAYER1
100
AcDbCircle
 10
0.0000078924740876
 20
-0.0000060607981851
 30
0.0
 40
85.00000951785507
100
AcDbArc
 50
143.2752016191093
 51
149.2248006191093
  0
ARC
  5
2BD
330
6F
100
AcDbEntity
  8
LAYER1
100
AcDbCircle
 10
0.0000011470156807
 20
-0.0000060098216039
 30
0.0
 40
85.00000619550309
100
AcDbArc
 50
113.2752008708851
 51
119.2247998708851
  0
ARC
  5
2BE
330
6F
100
AcDbEntity
  8
LAYER1
100
AcDbCircle
 10
-81.45849475136669
 20
33.74221392102131
 30
0.0
 40
2.77000055975489
100
AcDbArc
 50
2.008515877160228
 51
63.75000387716017
  0
ARC
  5
337
330
6F
100
AcDbEntity
  8
LAYER1
100
AcDbCircle
 10
0.0
 20
0.0000000000000018
 30
0.0
 40
14.81891721086436
100
AcDbArc
 50
0.0
 51
180.0
  0
ARC
  5
33B
330
6F
100
AcDbEntity
  8
LAYER1
100
AcDbCircle
 10
-68.3862732609397
 20
20.44449816983391
 30
0.0
 40
3.017857142999983
100
AcDbArc
 50
359.9481820555334
 51
36.42515070156003
  0
ARC
  5
33E
330
6F
100
AcDbEntity
  8
LAYER1
100
AcDbCircle
 10
68.38627326093973
 20
20.44449816983386
 30
0.0
 40
3.017857142999995
100
AcDbArc
 50
143.57484929844
 51
180.0518179444663
  0
ARC
  5
33F
330
6F
100
AcDbEntity
  8
LAYER1
100
AcDbCircle
 10
72.80254384871748
 20
36.59411447727602
 30
0.0
 40
3.017857142999995
100
AcDbArc
 50
323.5748492984401
 51
26.68633653680861
  0
ARC
  5
340
330
6F
100
AcDbEntity
  8
LAYER1
100
AcDbCircle
 10
-27.20124683090696
 20
68.40476190799998
 30
0.0
 40
3.017857142999999
100
AcDbArc
 50
237.1586605636606
 51
270.0
  0
ARC
  5
341
330
6F
100
AcDbEntity
  8
LAYER1
100
AcDbCircle
 10
27.20124683090697
 20
68.404761908
 30
0.0
 40
3.017857143000016
100
AcDbArc
 50
269.9999999999999
 51
302.8413394363393
  0
ARC
  5
342
330
6F
100
AcDbEntity
  8
LAYER1
100
AcDbCircle
 10
41.23399236351903
 20
70.27871284383107
 30
0.0
 40
3.017857142999999
100
AcDbArc
 50
59.59895899121366
 51
122.8413394363393
  0
ARC
  5
343
330
6F
100
AcDbEntity
  8
LAYER1
100
AcDbCircle
 10
-41.23399236351904
 20
70.27871284383107
 30
0.0
 40
3.017857143000001
100
AcDbArc
 50
57.15866056366061
 51
120.4010410087865
  0
ARC
  5
344
330
6F
100
AcDbEntity
  8
LAYER1
100
AcDbCircle
 10
0.0000000000000143
 20
0.0000000000000143
 30
0.0
 40
84.50000000399999
100
AcDbArc
 50
26.6863365368086
 51
59.59895899121352
  0
ARC
  5
345
330
6F
100
AcDbEntity
  8
LAYER1
100
AcDbCircle
 10
0.0000000000001215
 20
-0.000000000000143
 30
0.0
 40
84.50000000400018
100
AcDbArc
 50
120.4010410087865
 51
153.3136634631914
  0
ARC
  5
34A
330
6F
100
AcDbEntity
  8
LAYER1
100
AcDbCircle
 10
-71.7207408040446
 20
40.88812114716141
 30
0.0
 40
1.005952380999994
100
AcDbArc
 50
36.42515070155253
 51
150.1070138506979
  0
ARC
  5
34B
330
6F
100
AcDbEntity
  8
LAYER1
100
AcDbCircle
 10
-72.26818977271436
 20
39.93580846175941
 30
0.0
 40
1.00595238099998
100
AcDbArc
 50
150.1070138506978
 51
216.4251507015531
  0
ARC
  5
352
330
6F
100
AcDbEntity
  8
LAYER1
100
AcDbCircle
 10
-67.00015044125166
 20
47.19718545516564
 30
0.0
 40
1.005952380999993
100
AcDbArc
 50
143.9095444915
 51
216.4251507015525
  0
ARC
  5
353
330
6F
100
AcDbEntity
  8
LAYER1
100
AcDbCircle
 10
-66.37893020266523
 20
48.04938920556999
 30
0.0
 40
1.005952380999993
100
AcDbArc
 50
36.42515070155172
 51
143.9095444914992
  0
ARC
  5
354
330
6F
100
AcDbEntity
  8
LAYER1
100
AcDbCircle
 10
-55.42797619309998
 20
24.73879710976937
 30
0.0
 40
3.017857142999984
100
AcDbArc
 50
0.0
 51
36.42515070155258
  0
ARC
  5
355
330
6F
100
AcDbEntity
  8
LAYER1
100
AcDbCircle
 10
-52.4101190501
 20
25.73161214691105
 30
0.0
 40
3.017857142999999
100
AcDbArc
 50
0.0000000000004071
 51
36.42515070155294
  0
ARC
  5
356
330
6F
100
AcDbEntity
  8
LAYER1
100
AcDbCircle
 10
-72.80254384871753
 20
36.59411447727606
 30
0.0
 40
3.017857142999956
100
AcDbArc
 50
153.3136634631928
 51
216.4251507015609
  0
ARC
  5
357
330
6F
100
AcDbEntity
  8
LAYER1
100
AcDbCircle
 10
-63.9785714316
 20
21.92568124875076
 30
0.0
 40
3.017857143000008
100
AcDbArc
 50
0.0
 51
36.42515070155243
  0
ARC
  5
358
330
6F
100
AcDbEntity
  8
LAYER1
100
AcDbCircle
 10
-60.9607142886
 20
22.91863620834294
 30
0.0
 40
3.017857142999992
100
AcDbArc
 50
0.0000000000002714
 51
36.42515070155278
  0
ARC
  5
35E
330
6F
100
AcDbEntity
  8
LAYER1
100
AcDbCircle
 10
63.97857143159999
 20
21.92568124875071
 30
0.0
 40
3.017857142999992
100
AcDbArc
 50
143.5748492984472
 51
179.9999999999999
  0
ARC
  5
361
330
6F
100
AcDbEntity
  8
LAYER1
100
AcDbCircle
 10
60.9607142886
 20
22.91863620834291
 30
0.0
 40
3.017857142999986
100
AcDbArc
 50
143.5748492984469
 51
179.9999999999996
  0
ARC
  5
362
330
6F
100
AcDbEntity
  8
LAYER1
100
AcDbCircle
 10
71.72074080404461
 20
40.88812114716137
 30
0.0
 40
1.005952380999996
100
AcDbArc
 50
29.89298614930248
 51
143.5748492984474
  0
ARC
  5
363
330
6F
100
AcDbEntity
  8
LAYER1
100
AcDbCircle
 10
72.26818977271436
 20
39.9358084617594
 30
0.0
 40
1.005952380999983
100
AcDbArc
 50
323.5748492984467
 51
29.89298614930218
  0
ARC
  5
368
330
6F
100
AcDbEntity
  8
LAYER1
100
AcDbCircle
 10
55.4279761931
 20
24.73879710976933
 30
0.0
 40
3.017857142999988
100
AcDbArc
 50
143.574849298447
 51
179.9999999999997
  0
ARC
  5
369
330
6F
100
AcDbEntity
  8
LAYER1
100
AcDbCircle
 10
52.4101190501
 20
25.73161214691104
 30
0.0
 40
3.017857142999983
100
AcDbArc
 50
143.5748492984472
 51
179.9999999999998
  0
ARC
  5
36A
330
6F
100
AcDbEntity
  8
LAYER1
100
AcDbCircle
 10
66.37893020266523
 20
48.04938920556995
 30
0.0
 40
1.005952380999991
100
AcDbArc
 50
36.09045550849967
 51
143.5748492984474
  0
ARC
  5
36B
330
6F
100
AcDbEntity
  8
LAYER1
100
AcDbCircle
 10
67.00015044125166
 20
47.19718545516562
 30
0.0
 40
1.005952381000007
100
AcDbArc
 50
323.5748492984476
 51
36.09045550849984
  0
ARC
  5
36C
330
6F
100
AcDbEntity
  8
LAYER1
100
AcDbCircle
 10
-44.35808185483466
 20
69.42171387344034
 30
0.0
 40
1.005952381000001
100
AcDbArc
 50
57.15866056366026
 51
123.7104501329307
  0
ARC
  5
36D
330
6F
100
AcDbEntity
  8
LAYER1
100
AcDbCircle
 10
-45.54383647216757
 20
68.63060134842886
 30
0.0
 40
1.005952380999994
100
AcDbArc
 50
123.7104501329315
 51
237.1586605636609
  0
ARC
  5
36E
330
6F
100
AcDbEntity
  8
LAYER1
100
AcDbCircle
 10
-28.66182436133758
 20
64.07937881264851
 30
0.0
 40
3.017857142999992
100
AcDbArc
 50
237.1586605636603
 51
269.9999999999997
  0
ARC
  5
36F
330
6F
100
AcDbEntity
  8
LAYER1
100
AcDbCircle
 10
-29.64012636795077
 20
60.75973595534851
 30
0.0
 40
3.017857142999992
100
AcDbArc
 50
237.1586605636606
 51
270.0000000000001
  0
ARC
  5
370
330
6F
100
AcDbEntity
  8
LAYER1
100
AcDbCircle
 10
45.54383647216758
 20
68.63060134842881
 30
0.0
 40
1.005952380999989
100
AcDbArc
 50
302.8413394363399
 51
56.28954986706886
  0
ARC
  5
371
330
6F
100
AcDbEntity
  8
LAYER1
100
AcDbCircle
 10
44.35808185483469
 20
69.42171387344032
 30
0.0
 40
1.005952381000017
100
AcDbArc
 50
56.28954986706939
 51
122.8413394363396
  0
ARC
  5
372
330
6F
100
AcDbEntity
  8
LAYER1
100
AcDbCircle
 10
28.66182436133758
 20
64.07937881264851
 30
0.0
 40
3.017857143000008
100
AcDbArc
 50
270.0000000000003
 51
302.8413394363396
  0
ARC
  5
373
330
6F
100
AcDbEntity
  8
LAYER1
100
AcDbCircle
 10
29.64012636795079
 20
60.75973595534851
 30
0.0
 40
3.017857143000004
100
AcDbArc
 50
270.0
 51
302.8413394363393
  0
ARC
  5
374
330
6F
100
AcDbEntity
  8
LAYER1
100
AcDbCircle
 10
-51.75955053861148
 20
63.66289006845141
 30
0.0
 40
1.005952380999993
100
AcDbArc
 50
57.15866056366039
 51
129.9003145433975
  0
ARC
  5
375
330
6F
100
AcDbEntity
  8
LAYER1
100
AcDbCircle
 10
-52.32522050455278
 20
63.18991128633999
 30
0.0
 40
1.005952380999994
100
AcDbArc
 50
129.900314543398
 51
237.1586605636609
  0
ARC
  5
376
330
6F
100
AcDbEntity
  8
LAYER1
100
AcDbCircle
 10
52.32522050455278
 20
63.18991128633996
 30
0.0
 40
1.005952381000007
100
AcDbArc
 50
302.8413394363392
 51
50.0996854566021
  0
ARC
  5
377
330
6F
100
AcDbEntity
  8
LAYER1
100
AcDbCircle
 10
51.75955053861149
 20
63.6628900684514
 30
0.0
 40
1.005952380999991
100
AcDbArc
 50
50.09968545660249
 51
122.8413394363393
  0
ARC
  5
378
330
6F
100
AcDbEntity
  8
LAYER1
100
AcDbCircle
 10
-31.27062971230607
 20
55.22699785984851
 30
0.0
 40
3.017857142999987
100
AcDbArc
 50
237.1586605636605
 51
270.0
  0
ARC
  5
379
330
6F
100
AcDbEntity
  8
LAYER1
100
AcDbCircle
 10
-32.07105862680775
 20
52.5109264311485
 30
0.0
 40
3.017857142999987
100
AcDbArc
 50
237.1586605636605
 51
270.0
  0
ARC
  5
37A
330
6F
100
AcDbEntity
  8
LAYER1
100
AcDbCircle
 10
31.27062971230609
 20
55.22699785984851
 30
0.0
 40
3.017857142999997
100
AcDbArc
 50
270.0000000000001
 51
302.8413394363393
  0
ARC
  5
37B
330
6F
100
AcDbEntity
  8
LAYER1
100
AcDbCircle
 10
32.07105862680777
 20
52.51092643114851
 30
0.0
 40
3.017857143000022
100
AcDbArc
 50
269.9999999999999
 51
302.8413394363393
  0
ARC
  5
38C
330
6F
100
AcDbEntity
  8
LAYER1
100
AcDbCircle
 10
58.61264772604651
 20
54.55122718296362
 30
0.0
 40
1.760416666749996
100
AcDbArc
 50
323.5748492984475
 51
122.2906526043195
  0
ARC
  5
38D
330
6F
100
AcDbEntity
  8
LAYER1
100
AcDbCircle
 10
41.7466801760647
 20
30.42516753444522
 30
0.0
 40
1.005952380999999
100
AcDbArc
 50
225.0
 51
323.5748492984474
  0
ARC
  5
38E
330
6F
100
AcDbEntity
  8
LAYER1
100
AcDbCircle
 10
29.89636608925889
 20
41.56416587109514
 30
0.0
 40
0.5029761905000045
100
AcDbArc
 50
90.00000000000039
 51
225.0000000000001
  0
ARC
  5
392
330
6F
100
AcDbEntity
  8
LAYER1
100
AcDbCircle
 10
-58.61264772604648
 20
54.55122718296363
 30
0.0
 40
1.760416666749998
100
AcDbArc
 50
57.7093473956805
 51
216.4251507015528
  0
ARC
  5
393
330
6F
100
AcDbEntity
  8
LAYER1
100
AcDbCircle
 10
-29.89636608925888
 20
41.56416587109518
 30
0.0
 40
0.502976190500002
100
AcDbArc
 50
315.0
 51
90.00000000000039
  0
ARC
  5
394
330
6F
100
AcDbEntity
  8
LAYER1
100
AcDbCircle
 10
-41.7466801760647
 20
30.42516753444522
 30
0.0
 40
1.005952380999999
100
AcDbArc
 50
216.4251507015526
 51
315.0
  0
ARC
  5
399
330
6F
100
AcDbEntity
  8
DEFAULT
100
AcDbCircle
 10
0.0
 20
0.0
 30
0.0
 40
120.0
100
AcDbArc
 50
90.0
 51
180.0
  0
ARC
  5
39A
330
6F
100
AcDbEntity
  8
DEFAULT
100
AcDbCircle
 10
0.0
 20
0.0
 30
0.0
 40
120.0
100
AcDbArc
 50
0.0000000000000079
 51
90.0
  0
ARC
  5
3F6
330
6F
100
AcDbEntity
  8
DEFAULT
  6
Continuous
100
AcDbCircle
 10
0.0
 20
0.0000000000000018
 30
0.0
 40
97.16358567591202
100
AcDbArc
 50
163.0167940708876
 51
166.9832058340471
  0
ARC
  5
40E
330
6F
100
AcDbEntity
  8
DEFAULT
  6
Continuous
100
AcDbCircle
 10
0.0
 20
0.0000000000000018
 30
0.0
 40
97.16358567591202
100
AcDbArc
 50
155.5167944289904
 51
159.4832059706723
  0
ARC
  5
411
330
6F
100
AcDbEntity
  8
DEFAULT
  6
Continuous
100
AcDbCircle
 10
0.0
 20
0.0000000000000018
 30
0.0
 40
97.16358567591202
100
AcDbArc
 50
148.016794159998
 51
151.983205612164
  0
ARC
  5
412
330
6F
100
AcDbEntity
  8
DEFAULT
  6
Continuous
100
AcDbCircle
 10
0.0
 20
0.0000000000000018
 30
0.0
 40
97.16358567591202
100
AcDbArc
 50
140.516794429579
 51
144.4832057642958
  0
ARC
  5
413
330
6F
100
AcDbEntity
  8
DEFAULT
  6
Continuous
100
AcDbCircle
 10
0.0
 20
0.0000000000000018
 30
0.0
 40
97.16358567591202
100
AcDbArc
 50
133.0167945909194
 51
136.9832054090805
  0
ARC
  5
414
330
6F
100
AcDbEntity
  8
DEFAULT
  6
Continuous
100
AcDbCircle
 10
0.0
 20
0.0000000000000018
 30
0.0
 40
97.16358567591202
100
AcDbArc
 50
125.5167942357043
 51
129.4832055704209
  0
ARC
  5
415
330
6F
100
AcDbEntity
  8
DEFAULT
  6
Continuous
100
AcDbCircle
 10
0.0
 20
0.0000000000000018
 30
0.0
 40
97.16358567591202
100
AcDbArc
 50
118.0167943878359
 51
121.9832058400019
  0
ARC
  5
416
330
6F
100
AcDbEntity
  8
DEFAULT
  6
Continuous
100
AcDbCircle
 10
0.0
 20
0.0000000000000018
 30
0.0
 40
97.16358567591202
100
AcDbArc
 50
110.5167940293277
 51
114.4832055710096
  0
ARC
  5
417
330
6F
100
AcDbEntity
  8
DEFAULT
  6
Continuous
100
AcDbCircle
 10
0.0
 20
0.0000000000000018
 30
0.0
 40
97.16358567591202
100
AcDbArc
 50
103.016794165953
 51
106.9832059291123
  0
ARC
  5
418
330
6F
100
AcDbEntity
  8
DEFAULT
  6
Continuous
100
AcDbCircle
 10
0.0
 20
0.0000000000000018
 30
0.0
 40
97.16358567591202
100
AcDbArc
 50
95.51679422627818
 51
99.48320575522208
  0
ARC
  5
419
330
6F
100
AcDbEntity
  8
DEFAULT
  6
Continuous
100
AcDbCircle
 10
0.0
 20
0.0000000000000018
 30
0.0
 40
97.16358567591202
100
AcDbArc
 50
88.01679443125939
 51
91.98320556874064
  0
ARC
  5
41A
330
6F
100
AcDbEntity
  8
DEFAULT
  6
Continuous
100
AcDbCircle
 10
0.0
 20
0.0000000000000018
 30
0.0
 40
97.16358567591202
100
AcDbArc
 50
80.51679424477795
 51
84.48320577372181
  0
ARC
  5
41B
330
6F
100
AcDbEntity
  8
DEFAULT
  6
Continuous
100
AcDbCircle
 10
0.0
 20
0.0000000000000018
 30
0.0
 40
97.16358567591202
100
AcDbArc
 50
73.01679407088768
 51
76.98320583404701
  0
ARC
  5
41C
330
6F
100
AcDbEntity
  8
DEFAULT
  6
Continuous
100
AcDbCircle
 10
0.0
 20
0.0000000000000018
 30
0.0
 40
97.16358567591202
100
AcDbArc
 50
65.51679442899038
 51
69.48320597067231
  0
ARC
  5
41D
330
6F
100
AcDbEntity
  8
DEFAULT
  6
Continuous
100
AcDbCircle
 10
0.0
 20
0.0000000000000018
 30
0.0
 40
97.16358567591202
100
AcDbArc
 50
58.01679415999807
 51
61.9832056121641
  0
ARC
  5
427
330
6F
100
AcDbEntity
  8
DEFAULT
  6
Continuous
100
AcDbCircle
 10
0.0
 20
0.0000000000000018
 30
0.0
 40
97.16358567591202
100
AcDbArc
 50
43.01679459091941
 51
46.98320540908054
  0
ARC
  5
428
330
6F
100
AcDbEntity
  8
DEFAULT
  6
Continuous
100
AcDbCircle
 10
0.0
 20
0.0000000000000018
 30
0.0
 40
97.16358567591202
100
AcDbArc
 50
50.51679442957904
 51
54.48320576429577
  0
ARC
  5
429
330
6F
100
AcDbEntity
  8
DEFAULT
  6
Continuous
100
AcDbCircle
 10
0.0
 20
0.0000000000000018
 30
0.0
 40
97.16358567591202
100
AcDbArc
 50
35.51679423570422
 51
39.48320557042091
  0
ARC
  5
42A
330
6F
100
AcDbEntity
  8
DEFAULT
  6
Continuous
100
AcDbCircle
 10
0.0
 20
0.0000000000000018
 30
0.0
 40
97.16358567591202
100
AcDbArc
 50
28.01679438783592
 51
31.98320584000195
  0
ARC
  5
42B
330
6F
100
AcDbEntity
  8
DEFAULT
  6
Continuous
100
AcDbCircle
 10
0.0
 20
0.0000000000000018
 30
0.0
 40
97.16358567591202
100
AcDbArc
 50
20.51679402932768
 51
24.48320557100962
  0
ARC
  5
42C
330
6F
100
AcDbEntity
  8
DEFAULT
  6
Continuous
100
AcDbCircle
 10
0.0
 20
0.0000000000000018
 30
0.0
 40
97.16358567591202
100
AcDbArc
 50
13.01679416595298
 51
16.98320592911231
  0
ARC
  5
42D
330
6F
100
AcDbEntity
  8
DEFAULT
  6
Continuous
100
AcDbCircle
 10
0.0
 20
0.0000000000000018
 30
0.0
 40
97.16358567591202
100
AcDbArc
 50
5.516794226278188
 51
9.483205755222073
  0
ARC
  5
42E
330
6F
100
AcDbEntity
  8
DEFAULT
  6
Continuous
100
AcDbCircle
 10
0.0
 20
0.0000000000000018
 30
0.0
 40
97.16358567591202
100
AcDbArc
 50
0.0000000000000087
 51
1.98320556874063
  0
ARC
  5
447
330
6F
100
AcDbEntity
  8
DEFAULT
  6
Continuous
100
AcDbCircle
 10
0.0
 20
0.0000000000000018
 30
0.0
 40
97.16358567591202
100
AcDbArc
 50
170.5167942447779
 51
174.4832057737218
  0
LINE
  5
45F
330
6F
100
AcDbEntity
  8
DEFAULT
  6
Continuous
100
AcDbLine
 10
-120.0
 20
0.0000000000000147
 30
0.0
 11
-107.5
 21
0.0
 31
0.0
  0
ARC
  5
460
330
6F
100
AcDbEntity
  8
DEFAULT
  6
Continuous
100
AcDbCircle
 10
0.0
 20
0.0000000000000018
 30
0.0
 40
84.95
100
AcDbArc
 50
0.0
 51
180.0
  0
ARC
  5
461
330
6F
100
AcDbEntity
  8
DEFAULT
  6
Continuous
100
AcDbCircle
 10
0.0
 20
0.0000000000000018
 30
0.0
 40
84.55029762305001
100
AcDbArc
 50
0.00000000000001
 51
180.0
  0
LINE
  5
464
330
6F
100
AcDbEntity
  8
DEFAULT
  6
Continuous
100
AcDbLine
 10
-85.65000000000003
 20
-0.0000000000000257
 30
0.0
 11
-84.94999999999995
 21
-0.0000000000000257
 31
0.0
  0
LINE
  5
465
330
6F
100
AcDbEntity
  8
DEFAULT
  6
Continuous
100
AcDbLine
 10
-65.38690476499998
 20
0.0000000000000098
 30
0.0
 11
-84.55029762305001
 21
0.0000000000000122
 31
0.0
  0
LINE
  5
466
330
6F
100
AcDbEntity
  8
DEFAULT
  6
Continuous
100
AcDbLine
 10
-65.38690476499998
 20
0.0000000000000098
 30
0.0
 11
-60.9607142886
 21
0.0000000000000098
 31
0.0
  0
LINE
  5
467
330
6F
100
AcDbEntity
  8
DEFAULT
  6
Continuous
100
AcDbLine
 10
-60.9607142886
 20
0.0000000000000098
 30
0.0
 11
-57.9428571456
 21
0.0000000000000098
 31
0.0
  0
LINE
  5
468
330
6F
100
AcDbEntity
  8
DEFAULT
  6
Continuous
100
AcDbLine
 10
-57.9428571456
 20
0.0000000000000098
 30
0.0
 11
-52.4101190501
 21
0.0000000000000082
 31
0.0
  0
LINE
  5
469
330
6F
100
AcDbEntity
  8
DEFAULT
  6
Continuous
100
AcDbLine
 10
-52.4101190501
 20
0.0000000000000082
 30
0.0
 11
-49.3922619071
 21
0.0000000000000078
 31
0.0
  0
LINE
  5
46A
330
6F
100
AcDbEntity
  8
DEFAULT
  6
Continuous
100
AcDbLine
 10
-49.3922619071
 20
0.0000000000000078
 30
0.0
 11
-14.81891721086435
 21
0.0000000000000078
 31
0.0
  0
LINE
  5
46B
330
6F
100
AcDbEntity
  8
DEFAULT
  6
Continuous
100
AcDbLine
 10
14.81891721086436
 20
0.0000000000000018
 30
0.0
 11
49.39226190710001
 21
0.0000000000000166
 31
0.0
  0
LINE
  5
46C
330
6F
100
AcDbEntity
  8
DEFAULT
  6
Continuous
100
AcDbLine
 10
49.39226190710001
 20
0.0000000000000166
 30
0.0
 11
52.41011905009998
 21
0.0000000000000166
 31
0.0
  0
LINE
  5
46D
330
6F
100
AcDbEntity
  8
DEFAULT
  6
Continuous
100
AcDbLine
 10
52.41011905009998
 20
0.0000000000000166
 30
0.0
 11
57.94285714559999
 21
0.0000000000000166
 31
0.0
  0
LINE
  5
46E
330
6F
100
AcDbEntity
  8
DEFAULT
  6
Continuous
100
AcDbLine
 10
57.94285714559999
 20
0.0000000000000166
 30
0.0
 11
60.9607142886
 21
0.0000000000000166
 31
0.0
  0
LINE
  5
46F
330
6F
100
AcDbEntity
  8
DEFAULT
  6
Continuous
100
AcDbLine
 10
60.9607142886
 20
0.0000000000000166
 30
0.0
 11
65.38690476499998
 21
0.0000000000000166
 31
0.0
  0
LINE
  5
470
330
6F
100
AcDbEntity
  8
DEFAULT
  6
Continuous
100
AcDbLine
 10
65.38690476499998
 20
0.0000000000000166
 30
0.0
 11
84.55029762305001
 21
0.0000000000000166
 31
0.0
  0
LINE
  5
471
330
6F
100
AcDbEntity
  8
DEFAULT
  6
Continuous
100
AcDbLine
 10
85.65000000000003
 20
0.0
 30
0.0
 11
84.94999999999995
 21
0.0000000000000001
 31
0.0
  0
LINE
  5
472
330
6F
100
AcDbEntity
  8
DEFAULT
  6
Continuous
100
AcDbLine
 10
85.65000000000003
 20
0.0
 30
0.0
 11
97.16358567591202
 21
0.0000000000000165
 31
0.0
  0
LINE
  5
473
330
6F
100
AcDbEntity
  8
DEFAULT
  6
Continuous
100
AcDbLine
 10
97.16358567591202
 20
0.0000000000000165
 30
0.0
 11
107.5
 21
0.0
 31
0.0
  0
LINE
  5
474
330
6F
100
AcDbEntity
  8
DEFAULT
  6
Continuous
100
AcDbLine
 10
107.5
 20
0.0
 30
0.0
 11
120.0
 21
0.0000000000000165
 31
0.0
  0
ARC
  5
493
330
6F
100
AcDbEntity
  8
DEFAULT
  6
Continuous
100
AcDbCircle
 10
0.0
 20
0.0000000000000018
 30
0.0
 40
97.16358567591202
100
AcDbArc
 50
178.0167944312593
 51
180.0
  0
LINE
  5
4A8
330
6F
100
AcDbEntity
  8
DEFAULT
  6
Continuous
100
AcDbLine
 10
-107.5
 20
0.0
 30
0.0
 11
-97.16358567591202
 21
0.0000000000000137
 31
0.0
  0
LINE
  5
4A9
330
6F
100
AcDbEntity
  8
DEFAULT
  6
Continuous
100
AcDbLine
 10
-97.16358567591202
 20
0.0000000000000137
 30
0.0
 11
-85.65000000000003
 21
-0.0000000000000257
 31
0.0
  0
ENDSEC
  0
SECTION
  2
OBJECTS
  0
DICTIONARY
  5
C
330
0
100
AcDbDictionary
281
     1
  3
ACAD_CIP_PREVIOUS_PRODUCT_INFO
350
39C
  3
ACAD_COLOR
350
62
  3
ACAD_DETAILVIEWSTYLE
350
69
  3
ACAD_GROUP
350
D
  3
ACAD_LAST_SAVED_VERSION_INFO
350
3D4
  3
ACAD_LAYOUT
350
61
  3
ACAD_MATERIAL
350
10
  3
ACAD_MLEADERSTYLE
350
65
  3
ACAD_MLINESTYLE
350
5E
  3
ACAD_PLOTSETTINGS
350
60
  3
ACAD_PLOTSTYLENAME
350
E
  3
ACAD_SCALELIST
350
42
  3
ACAD_SECTIONVIEWSTYLE
350
67
  3
ACAD_TABLESTYLE
350
63
  3
ACAD_VISUALSTYLE
350
29
  3
ACDB_RECOMPOSE_DATA
350
4C1
  3
AcDbVariableDictionary
350
3DB
  0
DICTIONARY
  5
421
330
2
100
AcDbDictionary
280
     1
281
     1
  3
ACAD_LAYERSTATES
360
422
  0
DICTIONARY
  5
3D5
330
54
100
AcDbDictionary
280
     1
281
     1
  3
ADSK_XREC_LAYER_RECONCILED
360
3D6
  0
DICTIONARY
  5
3D7
330
73
100
AcDbDictionary
280
     1
281
     1
  3
ADSK_XREC_LAYER_RECONCILED
360
3D8
  0
DICTIONARY
  5
3D9
330
74
100
AcDbDictionary
280
     1
281
     1
  3
ADSK_XREC_LAYER_RECONCILED
360
3DA
  0
DICTIONARY
  5
40F
330
6F
100
AcDbDictionary
280
     1
281
     1
  3
ACAD_SORTENTS
360
410
  0
XRECORD
  5
39C
102
{ACAD_REACTORS
330
C
102
}
330
C
100
AcDbXrecord
280
     1
300
ACD
300
2024
300

  0
DICTIONARY
  5
62
102
{ACAD_REACTORS
330
C
102
}
330
C
100
AcDbDictionary
281
     1
  0
DICTIONARY
  5
69
102
{ACAD_REACTORS
330
C
102
}
330
C
100
AcDbDictionary
281
     1
  3
Imperial24
350
6A
  0
DICTIONARY
  5
D
102
{ACAD_REACTORS
330
C
102
}
330
C
100
AcDbDictionary
281
     1
  0
XRECORD
  5
3D4
102
{ACAD_REACTORS
330
C
102
}
330
C
100
AcDbXrecord
280
     1
300
{545B5381-FCA1-644B-AAAC-A10545760C44}
301
{5B945B11-06AE-954A-9C7F-F49EA16BCFB9}
302
{545B5381-FCA1-644B-AAAC-A10545760C44}
303
C:\Users\sevir\OneDrive\Desktop\COS2023\SzESynRM_half_model_ag05mm.dxf
  0
DICTIONARY
  5
61
102
{ACAD_REACTORS
330
C
102
}
330
C
100
AcDbDictionary
281
     1
  3
Layout1
350
6E
  3
Model
350
72
  0
DICTIONARY
  5
10
102
{ACAD_REACTORS
330
C
102
}
330
C
100
AcDbDictionary
281
     1
  3
ByBlock
350
19
  3
ByLayer
350
11
  3
Global
350
21
  0
DICTIONARY
  5
65
102
{ACAD_REACTORS
330
C
102
}
330
C
100
AcDbDictionary
281
     1
  3
Standard
350
66
  0
DICTIONARY
  5
5E
102
{ACAD_REACTORS
330
C
102
}
330
C
100
AcDbDictionary
281
     1
  3
Standard
350
5F
  0
DICTIONARY
  5
60
102
{ACAD_REACTORS
330
C
102
}
330
C
100
AcDbDictionary
281
     1
  0
ACDBDICTIONARYWDFLT
  5
E
102
{ACAD_REACTORS
330
C
102
}
330
C
100
AcDbDictionary
281
     1
  3
Normal
350
F
100
AcDbDictionaryWithDefault
340
F
  0
DICTIONARY
  5
42
102
{ACAD_REACTORS
330
C
102
}
330
C
100
AcDbDictionary
281
     1
  3
A0
350
43
  3
A1
350
44
  3
A2
350
45
  3
A3
350
46
  3
A4
350
47
  3
A5
350
48
  3
A6
350
49
  3
A7
350
4A
  3
A8
350
4B
  3
A9
350
4C
  3
B0
350
4D
  3
B1
350
4E
  3
B2
350
4F
  3
B3
350
50
  3
B4
350
51
  3
B5
350
52
  3
B6
350
53
  0
DICTIONARY
  5
67
102
{ACAD_REACTORS
330
C
102
}
330
C
100
AcDbDictionary
281
     1
  3
Imperial24
350
68
  0
DICTIONARY
  5
63
102
{ACAD_REACTORS
330
C
102
}
330
C
100
AcDbDictionary
281
     1
  3
Standard
350
64
  0
DICTIONARY
  5
29
102
{ACAD_REACTORS
330
C
102
}
330
C
100
AcDbDictionary
281
     1
  3
2dWireframe
350
2F
  3
Basic
350
2E
  3
Brighten
350
35
  3
ColorChange
350
39
  3
Conceptual
350
32
  3
Dim
350
34
  3
EdgeColorOff
350
41
  3
Facepattern
350
38
  3
Flat
350
2A
  3
FlatWithEdges
350
2B
  3
Gouraud
350
2C
  3
GouraudWithEdges
350
2D
  3
Hidden
350
31
  3
JitterOff
350
3F
  3
Linepattern
350
37
  3
OverhangOff
350
40
  3
Realistic
350
33
  3
Shaded
350
3E
  3
Shaded with edges
350
3D
  3
Shades of Gray
350
3A
  3
Sketchy
350
3B
  3
Thicken
350
36
  3
Wireframe
350
30
  3
X-Ray
350
3C
  0
XRECORD
  5
4C1
102
{ACAD_REACTORS
330
C
102
}
330
C
100
AcDbXrecord
280
     1
 90
        1
330
64
  0
DICTIONARY
  5
3DB
102
{ACAD_REACTORS
330
C
102
}
330
C
100
AcDbDictionary
281
     1
  3
CANNOSCALE
350
3E1
  3
CMLEADERSTYLE
350
3DD
  3
CTABLESTYLE
350
3DC
  3
CVIEWDETAILSTYLE
350
3DE
  3
CVIEWSECTIONSTYLE
350
3DF
  3
LAYEREVAL
350
3E3
  3
LAYERNOTIFY
350
3E4
  3
LIGHTINGUNITS
350
3E2
  3
MSLTSCALE
350
3E0
  0
DICTIONARY
  5
422
102
{ACAD_REACTORS
330
421
102
}
330
421
100
AcDbDictionary
281
     1
  0
XRECORD
  5
3D6
102
{ACAD_REACTORS
330
3D5
102
}
330
3D5
100
AcDbXrecord
280
     1
290
     1
  0
XRECORD
  5
3D8
102
{ACAD_REACTORS
330
3D7
102
}
330
3D7
100
AcDbXrecord
280
     1
290
     1
  0
XRECORD
  5
3DA
102
{ACAD_REACTORS
330
3D9
102
}
330
3D9
100
AcDbXrecord
280
     1
290
     1
  0
SORTENTSTABLE
  5
410
102
{ACAD_REACTORS
330
40F
102
}
330
40F
100
AcDbSortentsTable
330
6F
331
40E
  5
447
331
411
  5
446
331
412
  5
445
331
413
  5
444
331
414
  5
443
331
415
  5
442
331
416
  5
441
331
417
  5
440
331
418
  5
43F
331
419
  5
43E
331
41A
  5
43D
331
41B
  5
43C
331
41C
  5
43B
331
41D
  5
43A
331
427
  5
438
331
428
  5
439
331
429
  5
437
331
42A
  5
436
331
42B
  5
435
331
42C
  5
434
331
42D
  5
433
331
42E
  5
432
331
447
  5
40E
  0
ACDBDETAILVIEWSTYLE
  5
6A
102
{ACAD_REACTORS
330
69
102
}
330
69
100
AcDbModelDocViewStyle
 70
     0
  3
Imperial24
290
     0
300
Imperial24
 90
        0
100
AcDbDetailViewStyle
 70
     0
 71
     0
 90
        3
 71
     1
340
55
 62
   256
 40
0.24
340
0
 62
   256
 40
0.24
300

 40
0.36
280
     3
 71
     2
340
5C
 90
       25
 62
   256
 71
     3
340
55
 62
   256
 40
0.24
 90
        1
 40
0.75
 90
        1
300
%<\AcVar ViewType \f "%tc1">% %<\AcVar ViewDetailId>%\PSCALE %<\AcVar ViewScale \f "%sn">%
 71
     4
340
5C
 90
       25
 62
   256
340
5C
 90
       25
 62
   256
280
     0
  0
LAYOUT
  5
6E
102
{ACAD_REACTORS
330
61
102
}
330
61
100
AcDbPlotSettings
  1

  2
HP DeskJet 5000 series
  4

  6

 40
0.0
 41
0.0
 42
0.0
 43
0.0
 44
0.0
 45
0.0
 46
0.0
 47
0.0
 48
0.0
 49
0.0
140
0.0
141
0.0
142
1.0
143
1.0
 70
   688
 72
     0
 73
     0
 74
     5
  7

 75
    16
147
1.0
 76
     0
 77
     2
 78
   300
148
0.0
149
0.0
100
AcDbLayout
  1
Layout1
 70
     1
 71
     1
 10
0.0
 20
0.0
 11
12.0
 21
9.0
 12
0.0
 22
0.0
 32
0.0
 14
1.000000000000000E+20
 24
1.000000000000000E+20
 34
1.000000000000000E+20
 15
-1.000000000000000E+20
 25
-1.000000000000000E+20
 35
-1.000000000000000E+20
146
0.0
 13
0.0
 23
0.0
 33
0.0
 16
1.0
 26
0.0
 36
0.0
 17
0.0
 27
1.0
 37
0.0
 76
     0
330
6B
  0
LAYOUT
  5
72
102
{ACAD_REACTORS
330
61
102
}
330
61
100
AcDbPlotSettings
  1

  2
HP DeskJet 5000 series
  4

  6

 40
0.0
 41
0.0
 42
0.0
 43
0.0
 44
0.0
 45
0.0
 46
0.0
 47
0.0
 48
0.0
 49
0.0
140
0.0
141
0.0
142
1.0
143
1.0
 70
  1712
 72
     0
 73
     0
 74
     0
  7

 75
     0
147
1.0
 76
     0
 77
     2
 78
   300
148
0.0
149
0.0
100
AcDbLayout
  1
Model
 70
     1
 71
     0
 10
0.0
 20
0.0
 11
12.0
 21
9.0
 12
0.0
 22
0.0
 32
0.0
 14
0.0
 24
0.0
 34
0.0
 15
0.0
 25
0.0
 35
0.0
146
0.0
 13
0.0
 23
0.0
 33
0.0
 16
1.0
 26
0.0
 36
0.0
 17
0.0
 27
1.0
 37
0.0
 76
     0
330
6F
331
76
  0
MATERIAL
  5
19
102
{ACAD_XDICTIONARY
360
1A
102
}
102
{ACAD_REACTORS
330
10
102
}
330
10
100
AcDbMaterial
  1
ByBlock
 72
     0
 43
0.0208333333333333
 43
0.0
 43
0.0
 43
0.0
 43
0.0
 43
0.0208333333333333
 43
0.0
 43
0.0
 43
0.0
 43
0.0
 43
1.0
 43
0.0
 43
0.0
 43
0.0
 43
0.0
 43
1.0
 77
     0
 47
0.0208333333333333
 47
0.0
 47
0.0
 47
0.0
 47
0.0
 47
0.0208333333333333
 47
0.0
 47
0.0
 47
0.0
 47
0.0
 47
1.0
 47
0.0
 47
0.0
 47
0.0
 47
0.0
 47
1.0
171
     0
 49
0.0208333333333333
 49
0.0
 49
0.0
 49
0.0
 49
0.0
 49
0.0208333333333333
 49
0.0
 49
0.0
 49
0.0
 49
0.0
 49
1.0
 49
0.0
 49
0.0
 49
0.0
 49
0.0
 49
1.0
175
     0
142
0.0208333333333333
142
0.0
142
0.0
142
0.0
142
0.0
142
0.0208333333333333
142
0.0
142
0.0
142
0.0
142
0.0
142
1.0
142
0.0
142
0.0
142
0.0
142
0.0
142
1.0
179
     0
144
0.0208333333333333
144
0.0
144
0.0
144
0.0
144
0.0
144
0.0208333333333333
144
0.0
144
0.0
144
0.0
144
0.0
144
1.0
144
0.0
144
0.0
144
0.0
144
0.0
144
1.0
147
0.0208333333333333
147
0.0
147
0.0
147
0.0
147
0.0
147
0.0208333333333333
147
0.0
147
0.0
147
0.0
147
0.0
147
1.0
147
0.0
147
0.0
147
0.0
147
0.0
147
1.0
  0
MATERIAL
  5
11
102
{ACAD_XDICTIONARY
360
12
102
}
102
{ACAD_REACTORS
330
10
102
}
330
10
100
AcDbMaterial
  1
ByLayer
 72
     0
 43
0.0208333333333333
 43
0.0
 43
0.0
 43
0.0
 43
0.0
 43
0.0208333333333333
 43
0.0
 43
0.0
 43
0.0
 43
0.0
 43
1.0
 43
0.0
 43
0.0
 43
0.0
 43
0.0
 43
1.0
 77
     0
 47
0.0208333333333333
 47
0.0
 47
0.0
 47
0.0
 47
0.0
 47
0.0208333333333333
 47
0.0
 47
0.0
 47
0.0
 47
0.0
 47
1.0
 47
0.0
 47
0.0
 47
0.0
 47
0.0
 47
1.0
171
     0
 49
0.0208333333333333
 49
0.0
 49
0.0
 49
0.0
 49
0.0
 49
0.0208333333333333
 49
0.0
 49
0.0
 49
0.0
 49
0.0
 49
1.0
 49
0.0
 49
0.0
 49
0.0
 49
0.0
 49
1.0
175
     0
142
0.0208333333333333
142
0.0
142
0.0
142
0.0
142
0.0
142
0.0208333333333333
142
0.0
142
0.0
142
0.0
142
0.0
142
1.0
142
0.0
142
0.0
142
0.0
142
0.0
142
1.0
179
     0
144
0.0208333333333333
144
0.0
144
0.0
144
0.0
144
0.0
144
0.0208333333333333
144
0.0
144
0.0
144
0.0
144
0.0
144
1.0
144
0.0
144
0.0
144
0.0
144
0.0
144
1.0
147
0.0208333333333333
147
0.0
147
0.0
147
0.0
147
0.0
147
0.0208333333333333
147
0.0
147
0.0
147
0.0
147
0.0
147
1.0
147
0.0
147
0.0
147
0.0
147
0.0
147
1.0
  0
MATERIAL
  5
21
102
{ACAD_XDICTIONARY
360
22
102
}
102
{ACAD_REACTORS
330
10
102
}
330
10
100
AcDbMaterial
  1
Global
 72
     0
 43
0.0208333333333333
 43
0.0
 43
0.0
 43
0.0
 43
0.0
 43
0.0208333333333333
 43
0.0
 43
0.0
 43
0.0
 43
0.0
 43
1.0
 43
0.0
 43
0.0
 43
0.0
 43
0.0
 43
1.0
 77
     0
 47
0.0208333333333333
 47
0.0
 47
0.0
 47
0.0
 47
0.0
 47
0.0208333333333333
 47
0.0
 47
0.0
 47
0.0
 47
0.0
 47
1.0
 47
0.0
 47
0.0
 47
0.0
 47
0.0
 47
1.0
171
     0
 49
0.0208333333333333
 49
0.0
 49
0.0
 49
0.0
 49
0.0
 49
0.0208333333333333
 49
0.0
 49
0.0
 49
0.0
 49
0.0
 49
1.0
 49
0.0
 49
0.0
 49
0.0
 49
0.0
 49
1.0
175
     0
142
0.0208333333333333
142
0.0
142
0.0
142
0.0
142
0.0
142
0.0208333333333333
142
0.0
142
0.0
142
0.0
142
0.0
142
1.0
142
0.0
142
0.0
142
0.0
142
0.0
142
1.0
179
     0
144
0.0208333333333333
144
0.0
144
0.0
144
0.0
144
0.0
144
0.0208333333333333
144
0.0
144
0.0
144
0.0
144
0.0
144
1.0
144
0.0
144
0.0
144
0.0
144
0.0
144
1.0
147
0.0208333333333333
147
0.0
147
0.0
147
0.0
147
0.0
147
0.0208333333333333
147
0.0
147
0.0
147
0.0
147
0.0
147
1.0
147
0.0
147
0.0
147
0.0
147
0.0
147
1.0
  0
MLEADERSTYLE
  5
66
102
{ACAD_REACTORS
330
65
102
}
330
65
100
AcDbMLeaderStyle
179
     2
170
     2
171
     1
172
     0
 90
        2
 40
0.0
 41
0.0
173
     1
 91
-1056964608
340
5A
 92
       -2
290
     1
 42
0.09
291
     1
 43
0.36
  3
Standard
 44
0.18
300

342
55
174
     1
178
     6
175
     1
176
     0
 93
-1056964608
 45
0.18
292
     0
297
     0
 46
0.18
 94
-1056964608
 47
1.0
 49
1.0
140
1.0
293
     1
141
0.0
294
     1
177
     0
142
1.0
295
     0
296
     0
143
0.125
271
     0
272
     9
273
     9
298
     0
  0
MLINESTYLE
  5
5F
102
{ACAD_REACTORS
330
5E
102
}
330
5E
100
AcDbMlineStyle
  2
STANDARD
 70
     0
  3

 62
   256
 51
90.0
 52
90.0
 71
     2
 49
0.5
 62
   256
  6
BYLAYER
 49
-0.5
 62
   256
  6
BYLAYER
  0
ACDBPLACEHOLDER
  5
F
102
{ACAD_REACTORS
330
E
102
}
330
E
  0
SCALE
  5
43
102
{ACAD_REACTORS
330
42
102
}
330
42
100
AcDbScale
 70
     0
300
1:1
140
1.0
141
1.0
290
     1
  0
SCALE
  5
44
102
{ACAD_REACTORS
330
42
102
}
330
42
100
AcDbScale
 70
     0
300
1/128" = 1'-0"
140
0.0078125
141
12.0
290
     0
  0
SCALE
  5
45
102
{ACAD_REACTORS
330
42
102
}
330
42
100
AcDbScale
 70
     0
300
1/64" = 1'-0"
140
0.015625
141
12.0
290
     0
  0
SCALE
  5
46
102
{ACAD_REACTORS
330
42
102
}
330
42
100
AcDbScale
 70
     0
300
1/32" = 1'-0"
140
0.03125
141
12.0
290
     0
  0
SCALE
  5
47
102
{ACAD_REACTORS
330
42
102
}
330
42
100
AcDbScale
 70
     0
300
1/16" = 1'-0"
140
0.0625
141
12.0
290
     0
  0
SCALE
  5
48
102
{ACAD_REACTORS
330
42
102
}
330
42
100
AcDbScale
 70
     0
300
3/32" = 1'-0"
140
0.09375
141
12.0
290
     0
  0
SCALE
  5
49
102
{ACAD_REACTORS
330
42
102
}
330
42
100
AcDbScale
 70
     0
300
1/8" = 1'-0"
140
0.125
141
12.0
290
     0
  0
SCALE
  5
4A
102
{ACAD_REACTORS
330
42
102
}
330
42
100
AcDbScale
 70
     0
300
3/16" = 1'-0"
140
0.1875
141
12.0
290
     0
  0
SCALE
  5
4B
102
{ACAD_REACTORS
330
42
102
}
330
42
100
AcDbScale
 70
     0
300
1/4" = 1'-0"
140
0.25
141
12.0
290
     0
  0
SCALE
  5
4C
102
{ACAD_REACTORS
330
42
102
}
330
42
100
AcDbScale
 70
     0
300
3/8" = 1'-0"
140
0.375
141
12.0
290
     0
  0
SCALE
  5
4D
102
{ACAD_REACTORS
330
42
102
}
330
42
100
AcDbScale
 70
     0
300
1/2" = 1'-0"
140
0.5
141
12.0
290
     0
  0
SCALE
  5
4E
102
{ACAD_REACTORS
330
42
102
}
330
42
100
AcDbScale
 70
     0
300
3/4" = 1'-0"
140
0.75
141
12.0
290
     0
  0
SCALE
  5
4F
102
{ACAD_REACTORS
330
42
102
}
330
42
100
AcDbScale
 70
     0
300
1" = 1'-0"
140
1.0
141
12.0
290
     0
  0
SCALE
  5
50
102
{ACAD_REACTORS
330
42
102
}
330
42
100
AcDbScale
 70
     0
300
1-1/2" = 1'-0"
140
1.5
141
12.0
290
     0
  0
SCALE
  5
51
102
{ACAD_REACTORS
330
42
102
}
330
42
100
AcDbScale
 70
     0
300
3" = 1'-0"
140
3.0
141
12.0
290
     0
  0
SCALE
  5
52
102
{ACAD_REACTORS
330
42
102
}
330
42
100
AcDbScale
 70
     0
300
6" = 1'-0"
140
6.0
141
12.0
290
     0
  0
SCALE
  5
53
102
{ACAD_REACTORS
330
42
102
}
330
42
100
AcDbScale
 70
     0
300
1'-0" = 1'-0"
140
12.0
141
12.0
290
     0
  0
ACDBSECTIONVIEWSTYLE
  5
68
102
{ACAD_REACTORS
330
67
102
}
330
67
100
AcDbModelDocViewStyle
 70
     0
  3
Imperial24
290
     0
300
Imperial24
 90
        0
100
AcDbSectionViewStyle
 70
     0
 71
     0
 90
       78
 71
     1
340
55
 62
   256
 40
0.24
340
0
340
0
 62
   256
 40
0.24
300
I, O, Q, S, X, Z
 40
0.48
 90
        3
 40
0.18
 90
        1
 71
     2
340
5C
 90
       25
 62
   256
340
5C
 90
       50
 62
   256
 40
0.24
 40
0.0
 40
0.24
 71
     3
340
55
 62
   256
 40
0.24
 90
        1
 40
0.75
 90
        1
300
%<\AcVar ViewType \f "%tc1">% %<\AcVar ViewSectionStartId>%-%<\AcVar ViewSectionEndId>%\PSCALE %<\AcVar ViewScale \f "%sn">%
 71
     4
 62
   256
 62
   257
300
ANSI31
 40
1.0
 90
        0
290
     0
290
     0
 90
        6
 40
0.0
 40
1.570796326794896
 40
0.2617993877991494
 40
1.308996938995747
 40
-0.2617993877991494
 40
1.832595714594045
  0
TABLESTYLE
  5
64
102
{ACAD_XDICTIONARY
360
451
102
}
102
{ACAD_REACTORS
330
63
102
}
330
63
100
AcDbTableStyle
280
     0
  3
Standard
 70
     0
 71
     0
 40
0.06
 41
0.06
280
     0
281
     0
  7
STANDARD
140
0.18
170
     2
 62
     0
 63
     7
283
     0
 90
      512
 91
        0
  1

274
    -2
284
     1
 64
     0
275
    -2
285
     1
 65
     0
276
    -2
286
     1
 66
     0
277
    -2
287
     1
 67
     0
278
    -2
288
     1
 68
     0
279
    -2
289
     1
 69
     0
  7
STANDARD
140
0.25
170
     5
 62
     0
 63
     7
283
     0
 90
      512
 91
        0
  1

274
    -2
284
     1
 64
     0
275
    -2
285
     1
 65
     0
276
    -2
286
     1
 66
     0
277
    -2
287
     1
 67
     0
278
    -2
288
     1
 68
     0
279
    -2
289
     1
 69
     0
  7
STANDARD
140
0.18
170
     5
 62
     0
 63
     7
283
     0
 90
      512
 91
        0
  1

274
    -2
284
     1
 64
     0
275
    -2
285
     1
 65
     0
276
    -2
286
     1
 66
     0
277
    -2
287
     1
 67
     0
278
    -2
288
     1
 68
     0
279
    -2
289
     1
 69
     0
  0
VISUALSTYLE
  5
2F
102
{ACAD_REACTORS
330
29
102
}
330
29
100
AcDbVisualStyle
  2
2dWireframe
 70
     4
177
     3
291
     0
 70
    58
 90
        0
176
     1
 90
        2
176
     1
 90
        0
176
     1
 90
        0
176
     1
 40
0.6
176
     1
 40
30.0
176
     1
 62
     7
420
 16777215
176
     1
 90
        1
176
     1
 90
        4
176
     1
 62
     7
176
     1
 62
   257
176
     1
 90
        1
176
     1
 90
        1
176
     1
 40
1.0
176
     1
 90
        0
176
     1
 62
   257
176
     1
 40
1.0
176
     1
 90
        1
176
     1
 90
        6
176
     1
 90
        2
176
     1
 62
     7
176
     1
 90
        5
176
     1
 90
        0
176
     1
 90
        0
176
     1
290
     0
176
     1
 90
        1
176
     1
 40
0.0
176
     1
 90
        0
176
     1
290
     1
176
     1
290
     1
176
     1
290
     0
176
     1
290
     0
176
     1
290
     0
176
     1
290
     0
176
     1
290
     0
176
     1
290
     0
176
     1
290
     0
176
     1
 90
       50
176
     1
 40
0.0
176
     1
 40
1.0
176
     1
 90
        0
176
     1
 62
    18
176
     1
 90
       50
176
     1
 90
        3
176
     1
 62
     5
420
      255
176
     1
290
     0
176
     1
 90
       50
176
     1
 90
       50
176
     1
 90
       50
176
     1
290
     0
176
     1
 90
       50
176
     1
 62
   256
176
     0
 40
1.0
176
     0
 90
        2
176
     1
  1
strokes_ogs.tif
176
     1
290
     0
176
     1
 40
1.0
176
     1
 40
1.0
176
     1
  0
VISUALSTYLE
  5
2E
102
{ACAD_REACTORS
330
29
102
}
330
29
100
AcDbVisualStyle
  2
Basic
 70
     7
177
     3
291
     1
 70
    58
 90
        1
176
     1
 90
        0
176
     1
 90
        1
176
     1
 90
        0
176
     1
 40
0.6
176
     1
 40
30.0
176
     1
 62
     7
420
 16777215
176
     1
 90
        0
176
     1
 90
        4
176
     1
 62
     7
176
     1
 62
   257
176
     1
 90
        1
176
     1
 90
        1
176
     1
 40
1.0
176
     1
 90
        8
176
     1
 62
     7
176
     1
 40
1.0
176
     1
 90
        1
176
     1
 90
        6
176
     1
 90
        2
176
     1
 62
     7
176
     1
 90
        5
176
     1
 90
        0
176
     1
 90
        0
176
     1
290
     0
176
     1
 90
        1
176
     1
 40
0.0
176
     1
 90
        0
176
     1
290
     0
176
     1
290
     1
176
     1
290
     1
176
     1
290
     0
176
     1
290
     0
176
     1
290
     0
176
     1
290
     0
176
     1
290
     0
176
     1
290
     0
176
     1
 90
       50
176
     1
 40
0.0
176
     1
 40
1.0
176
     1
 90
        0
176
     1
 62
    18
176
     1
 90
       50
176
     1
 90
        3
176
     1
 62
     5
420
      255
176
     1
290
     0
176
     1
 90
       50
176
     1
 90
       50
176
     1
 90
       50
176
     1
290
     0
176
     1
 90
       50
176
     1
 62
   256
176
     0
 40
1.0
176
     0
 90
        2
176
     1
  1
strokes_ogs.tif
176
     1
290
     0
176
     1
 40
1.0
176
     1
 40
1.0
176
     1
  0
VISUALSTYLE
  5
35
102
{ACAD_REACTORS
330
29
102
}
330
29
100
AcDbVisualStyle
  2
Brighten
 70
    12
177
     3
291
     1
 70
    58
 90
        2
176
     1
 90
        2
176
     1
 90
        0
176
     1
 90
        0
176
     1
 40
0.6
176
     1
 40
30.0
176
     1
 62
     7
420
 16777215
176
     1
 90
        1
176
     1
 90
        4
176
     1
 62
     7
176
     1
 62
   257
176
     1
 90
        1
176
     1
 90
        1
176
     1
 40
1.0
176
     1
 90
        8
176
     1
 62
     7
176
     1
 40
1.0
176
     1
 90
        1
176
     1
 90
        6
176
     1
 90
        2
176
     1
 62
     7
176
     1
 90
        5
176
     1
 90
        0
176
     1
 90
        0
176
     1
290
     0
176
     1
 90
        1
176
     1
 40
50.0
176
     1
 90
        0
176
     1
290
     0
176
     1
290
     1
176
     1
290
     1
176
     1
290
     0
176
     1
290
     0
176
     1
290
     0
176
     1
290
     0
176
     1
290
     0
176
     1
290
     0
176
     1
 90
       50
176
     1
 40
0.0
176
     1
 40
1.0
176
     1
 90
        0
176
     1
 62
    18
176
     1
 90
       50
176
     1
 90
        3
176
     1
 62
     5
420
      255
176
     1
290
     0
176
     1
 90
       50
176
     1
 90
       50
176
     1
 90
       50
176
     1
290
     0
176
     1
 90
       50
176
     1
 62
   256
176
     0
 40
1.0
176
     0
 90
        2
176
     1
  1
strokes_ogs.tif
176
     1
290
     0
176
     1
 40
1.0
176
     1
 40
1.0
176
     1
  0
VISUALSTYLE
  5
39
102
{ACAD_REACTORS
330
29
102
}
330
29
100
AcDbVisualStyle
  2
ColorChange
 70
    16
177
     3
291
     1
 70
    58
 90
        2
176
     1
 90
        2
176
     1
 90
        3
176
     1
 90
        0
176
     1
 40
0.6
176
     1
 40
30.0
176
     1
 62
     8
420
  8421504
176
     1
 90
        1
176
     1
 90
        4
176
     1
 62
     7
176
     1
 62
   257
176
     1
 90
        1
176
     1
 90
        1
176
     1
 40
1.0
176
     1
 90
        8
176
     1
 62
     8
420
  8421504
176
     1
 40
1.0
176
     1
 90
        1
176
     1
 90
        6
176
     1
 90
        2
176
     1
 62
     7
176
     1
 90
        5
176
     1
 90
        0
176
     1
 90
        0
176
     1
290
     0
176
     1
 90
        1
176
     1
 40
0.0
176
     1
 90
        0
176
     1
290
     0
176
     1
290
     1
176
     1
290
     1
176
     1
290
     0
176
     1
290
     0
176
     1
290
     0
176
     1
290
     0
176
     1
290
     0
176
     1
290
     0
176
     1
 90
       50
176
     1
 40
0.0
176
     1
 40
1.0
176
     1
 90
        0
176
     1
 62
    18
176
     1
 90
       50
176
     1
 90
        3
176
     1
 62
     5
420
      255
176
     1
290
     0
176
     1
 90
       50
176
     1
 90
       50
176
     1
 90
       50
176
     1
290
     0
176
     1
 90
       50
176
     1
 62
   256
176
     0
 40
1.0
176
     0
 90
        2
176
     1
  1
strokes_ogs.tif
176
     1
290
     0
176
     1
 40
1.0
176
     1
 40
1.0
176
     1
  0
VISUALSTYLE
  5
32
102
{ACAD_REACTORS
330
29
102
}
330
29
100
AcDbVisualStyle
  2
Conceptual
 70
     9
177
     3
291
     0
 70
    58
 90
        3
176
     1
 90
        2
176
     1
 90
        0
176
     1
 90
        0
176
     1
 40
0.6
176
     1
 40
30.0
176
     1
 62
     7
420
 16777215
176
     1
 90
        2
176
     1
 90
        2
176
     1
 62
     7
176
     1
 62
   257
176
     1
 90
        1
176
     1
 90
        1
176
     1
 40
179.0
176
     1
 90
        8
176
     1
 62
     7
176
     1
 40
1.0
176
     1
 90
        1
176
     1
 90
        6
176
     1
 90
        2
176
     1
 62
     7
176
     1
 90
        3
176
     1
 90
        0
176
     1
 90
        0
176
     1
290
     0
176
     1
 90
        1
176
     1
 40
0.0
176
     1
 90
        0
176
     1
290
     0
176
     1
290
     1
176
     1
290
     1
176
     1
290
     0
176
     1
290
     0
176
     1
290
     0
176
     1
290
     0
176
     1
290
     0
176
     1
290
     0
176
     1
 90
       50
176
     1
 40
0.0
176
     1
 40
1.0
176
     1
 90
        0
176
     1
 62
    18
176
     1
 90
       50
176
     1
 90
        3
176
     1
 62
     5
420
      255
176
     1
290
     0
176
     1
 90
       50
176
     1
 90
       50
176
     1
 90
       50
176
     1
290
     0
176
     1
 90
       50
176
     1
 62
   256
176
     0
 40
1.0
176
     0
 90
        2
176
     1
  1
strokes_ogs.tif
176
     1
290
     0
176
     1
 40
1.0
176
     1
 40
1.0
176
     1
  0
VISUALSTYLE
  5
34
102
{ACAD_REACTORS
330
29
102
}
330
29
100
AcDbVisualStyle
  2
Dim
 70
    11
177
     3
291
     1
 70
    58
 90
        2
176
     1
 90
        2
176
     1
 90
        0
176
     1
 90
        0
176
     1
 40
0.6
176
     1
 40
30.0
176
     1
 62
     7
420
 16777215
176
     1
 90
        1
176
     1
 90
        4
176
     1
 62
     7
176
     1
 62
   257
176
     1
 90
        1
176
     1
 90
        1
176
     1
 40
1.0
176
     1
 90
        8
176
     1
 62
     7
176
     1
 40
1.0
176
     1
 90
        1
176
     1
 90
        6
176
     1
 90
        2
176
     1
 62
     7
176
     1
 90
        5
176
     1
 90
        0
176
     1
 90
        0
176
     1
290
     0
176
     1
 90
        1
176
     1
 40
-50.0
176
     1
 90
        0
176
     1
290
     0
176
     1
290
     1
176
     1
290
     1
176
     1
290
     0
176
     1
290
     0
176
     1
290
     0
176
     1
290
     0
176
     1
290
     0
176
     1
290
     0
176
     1
 90
       50
176
     1
 40
0.0
176
     1
 40
1.0
176
     1
 90
        0
176
     1
 62
    18
176
     1
 90
       50
176
     1
 90
        3
176
     1
 62
     5
420
      255
176
     1
290
     0
176
     1
 90
       50
176
     1
 90
       50
176
     1
 90
       50
176
     1
290
     0
176
     1
 90
       50
176
     1
 62
   256
176
     0
 40
1.0
176
     0
 90
        2
176
     1
  1
strokes_ogs.tif
176
     1
290
     0
176
     1
 40
1.0
176
     1
 40
1.0
176
     1
  0
VISUALSTYLE
  5
41
102
{ACAD_REACTORS
330
29
102
}
330
29
100
AcDbVisualStyle
  2
EdgeColorOff
 70
    22
177
     3
291
     1
 70
    58
 90
        2
176
     0
 90
        2
176
     0
 90
        0
176
     0
 90
        0
176
     0
 40
0.6
176
     0
 40
30.0
176
     0
 62
     7
420
 16777215
176
     0
 90
        1
176
     0
 90
        4
176
     0
 62
     7
176
     0
 62
   257
176
     0
 90
        1
176
     0
 90
        1
176
     0
 40
1.0
176
     0
 90
        8
176
     2
 62
     7
176
     0
 40
1.0
176
     0
 90
        1
176
     0
 90
        6
176
     0
 90
        2
176
     0
 62
     7
176
     0
 90
        5
176
     0
 90
        0
176
     0
 90
        0
176
     0
290
     0
176
     0
 90
        1
176
     0
 40
0.0
176
     0
 90
        0
176
     0
290
     0
176
     1
290
     1
176
     1
290
     1
176
     1
290
     0
176
     1
290
     0
176
     1
290
     0
176
     1
290
     0
176
     1
290
     0
176
     1
290
     0
176
     1
 90
       50
176
     0
 40
0.0
176
     0
 40
1.0
176
     0
 90
        0
176
     0
 62
    18
176
     0
 90
       50
176
     0
 90
        3
176
     0
 62
     5
420
      255
176
     0
290
     0
176
     1
 90
       50
176
     0
 90
       50
176
     0
 90
       50
176
     0
290
     0
176
     1
 90
       50
176
     0
 62
   256
176
     0
 40
1.0
176
     0
 90
        2
176
     0
  1
strokes_ogs.tif
176
     0
290
     0
176
     1
 40
1.0
176
     0
 40
1.0
176
     0
  0
VISUALSTYLE
  5
38
102
{ACAD_REACTORS
330
29
102
}
330
29
100
AcDbVisualStyle
  2
Facepattern
 70
    15
177
     3
291
     1
 70
    58
 90
        2
176
     1
 90
        2
176
     1
 90
        0
176
     1
 90
        0
176
     1
 40
0.6
176
     1
 40
30.0
176
     1
 62
     7
420
 16777215
176
     1
 90
        1
176
     1
 90
        4
176
     1
 62
     7
176
     1
 62
   257
176
     1
 90
        1
176
     1
 90
        1
176
     1
 40
1.0
176
     1
 90
        8
176
     1
 62
     7
176
     1
 40
1.0
176
     1
 90
        1
176
     1
 90
        6
176
     1
 90
        2
176
     1
 62
     7
176
     1
 90
        5
176
     1
 90
        0
176
     1
 90
        0
176
     1
290
     0
176
     1
 90
        1
176
     1
 40
0.0
176
     1
 90
        0
176
     1
290
     0
176
     1
290
     1
176
     1
290
     1
176
     1
290
     0
176
     1
290
     0
176
     1
290
     0
176
     1
290
     0
176
     1
290
     0
176
     1
290
     0
176
     1
 90
       50
176
     1
 40
0.0
176
     1
 40
1.0
176
     1
 90
        0
176
     1
 62
    18
176
     1
 90
       50
176
     1
 90
        3
176
     1
 62
     5
420
      255
176
     1
290
     0
176
     1
 90
       50
176
     1
 90
       50
176
     1
 90
       50
176
     1
290
     0
176
     1
 90
       50
176
     1
 62
   256
176
     0
 40
1.0
176
     0
 90
        2
176
     1
  1
strokes_ogs.tif
176
     1
290
     0
176
     1
 40
1.0
176
     1
 40
1.0
176
     1
  0
VISUALSTYLE
  5
2A
102
{ACAD_REACTORS
330
29
102
}
330
29
100
AcDbVisualStyle
  2
Flat
 70
     0
177
     3
291
     1
 70
    58
 90
        2
176
     1
 90
        1
176
     1
 90
        1
176
     1
 90
        2
176
     1
 40
0.6
176
     1
 40
30.0
176
     1
 62
     7
420
 16777215
176
     1
 90
        0
176
     1
 90
        0
176
     1
 62
     7
176
     1
 62
   257
176
     1
 90
        1
176
     1
 90
        1
176
     1
 40
1.0
176
     1
 90
        8
176
     1
 62
     7
176
     1
 40
1.0
176
     1
 90
        1
176
     1
 90
        6
176
     1
 90
        2
176
     1
 62
     7
176
     1
 90
        5
176
     1
 90
        0
176
     1
 90
        0
176
     1
290
     0
176
     1
 90
       13
176
     1
 40
0.0
176
     1
 90
        0
176
     1
290
     0
176
     1
290
     1
176
     1
290
     1
176
     1
290
     0
176
     1
290
     0
176
     1
290
     0
176
     1
290
     0
176
     1
290
     0
176
     1
290
     0
176
     1
 90
       50
176
     1
 40
0.0
176
     1
 40
1.0
176
     1
 90
        0
176
     1
 62
    18
176
     1
 90
       50
176
     1
 90
        3
176
     1
 62
     5
420
      255
176
     1
290
     0
176
     1
 90
       50
176
     1
 90
       50
176
     1
 90
       50
176
     1
290
     0
176
     1
 90
       50
176
     1
 62
   256
176
     0
 40
1.0
176
     0
 90
        2
176
     1
  1
strokes_ogs.tif
176
     1
290
     0
176
     1
 40
1.0
176
     1
 40
1.0
176
     1
  0
VISUALSTYLE
  5
2B
102
{ACAD_REACTORS
330
29
102
}
330
29
100
AcDbVisualStyle
  2
FlatWithEdges
 70
     1
177
     3
291
     1
 70
    58
 90
        2
176
     1
 90
        1
176
     1
 90
        1
176
     1
 90
        2
176
     1
 40
0.6
176
     1
 40
30.0
176
     1
 62
     7
420
 16777215
176
     1
 90
        1
176
     1
 90
        0
176
     1
 62
     7
176
     1
 62
   257
176
     1
 90
        1
176
     1
 90
        1
176
     1
 40
1.0
176
     1
 90
        0
176
     1
 62
   257
176
     1
 40
1.0
176
     1
 90
        1
176
     1
 90
        6
176
     1
 90
        2
176
     1
 62
     7
176
     1
 90
        5
176
     1
 90
        0
176
     1
 90
        0
176
     1
290
     0
176
     1
 90
       13
176
     1
 40
0.0
176
     1
 90
        0
176
     1
290
     0
176
     1
290
     1
176
     1
290
     1
176
     1
290
     0
176
     1
290
     0
176
     1
290
     0
176
     1
290
     0
176
     1
290
     0
176
     1
290
     0
176
     1
 90
       50
176
     1
 40
0.0
176
     1
 40
1.0
176
     1
 90
        0
176
     1
 62
    18
176
     1
 90
       50
176
     1
 90
        3
176
     1
 62
     5
420
      255
176
     1
290
     0
176
     1
 90
       50
176
     1
 90
       50
176
     1
 90
       50
176
     1
290
     0
176
     1
 90
       50
176
     1
 62
   256
176
     0
 40
1.0
176
     0
 90
        2
176
     1
  1
strokes_ogs.tif
176
     1
290
     0
176
     1
 40
1.0
176
     1
 40
1.0
176
     1
  0
VISUALSTYLE
  5
2C
102
{ACAD_REACTORS
330
29
102
}
330
29
100
AcDbVisualStyle
  2
Gouraud
 70
     2
177
     3
291
     1
 70
    58
 90
        2
176
     1
 90
        2
176
     1
 90
        1
176
     1
 90
        2
176
     1
 40
0.6
176
     1
 40
30.0
176
     1
 62
     7
420
 16777215
176
     1
 90
        0
176
     1
 90
        0
176
     1
 62
     7
176
     1
 62
   257
176
     1
 90
        1
176
     1
 90
        1
176
     1
 40
1.0
176
     1
 90
        0
176
     1
 62
     7
176
     1
 40
1.0
176
     1
 90
        1
176
     1
 90
        6
176
     1
 90
        2
176
     1
 62
     7
176
     1
 90
        5
176
     1
 90
        0
176
     1
 90
        0
176
     1
290
     0
176
     1
 90
       13
176
     1
 40
0.0
176
     1
 90
        0
176
     1
290
     0
176
     1
290
     1
176
     1
290
     1
176
     1
290
     0
176
     1
290
     0
176
     1
290
     0
176
     1
290
     0
176
     1
290
     0
176
     1
290
     0
176
     1
 90
       50
176
     1
 40
0.0
176
     1
 40
1.0
176
     1
 90
        0
176
     1
 62
    18
176
     1
 90
       50
176
     1
 90
        3
176
     1
 62
     5
420
      255
176
     1
290
     0
176
     1
 90
       50
176
     1
 90
       50
176
     1
 90
       50
176
     1
290
     0
176
     1
 90
       50
176
     1
 62
   256
176
     0
 40
1.0
176
     0
 90
        2
176
     1
  1
strokes_ogs.tif
176
     1
290
     0
176
     1
 40
1.0
176
     1
 40
1.0
176
     1
  0
VISUALSTYLE
  5
2D
102
{ACAD_REACTORS
330
29
102
}
330
29
100
AcDbVisualStyle
  2
GouraudWithEdges
 70
     3
177
     3
291
     1
 70
    58
 90
        2
176
     1
 90
        2
176
     1
 90
        1
176
     1
 90
        2
176
     1
 40
0.6
176
     1
 40
30.0
176
     1
 62
     7
420
 16777215
176
     1
 90
        1
176
     1
 90
        0
176
     1
 62
     7
176
     1
 62
   257
176
     1
 90
        1
176
     1
 90
        1
176
     1
 40
1.0
176
     1
 90
        0
176
     1
 62
   257
176
     1
 40
1.0
176
     1
 90
        1
176
     1
 90
        6
176
     1
 90
        2
176
     1
 62
     7
176
     1
 90
        5
176
     1
 90
        0
176
     1
 90
        0
176
     1
290
     0
176
     1
 90
       13
176
     1
 40
0.0
176
     1
 90
        0
176
     1
290
     0
176
     1
290
     1
176
     1
290
     1
176
     1
290
     0
176
     1
290
     0
176
     1
290
     0
176
     1
290
     0
176
     1
290
     0
176
     1
290
     0
176
     1
 90
       50
176
     1
 40
0.0
176
     1
 40
1.0
176
     1
 90
        0
176
     1
 62
    18
176
     1
 90
       50
176
     1
 90
        3
176
     1
 62
     5
420
      255
176
     1
290
     0
176
     1
 90
       50
176
     1
 90
       50
176
     1
 90
       50
176
     1
290
     0
176
     1
 90
       50
176
     1
 62
   256
176
     0
 40
1.0
176
     0
 90
        2
176
     1
  1
strokes_ogs.tif
176
     1
290
     0
176
     1
 40
1.0
176
     1
 40
1.0
176
     1
  0
VISUALSTYLE
  5
31
102
{ACAD_REACTORS
330
29
102
}
330
29
100
AcDbVisualStyle
  2
Hidden
 70
     6
177
     3
291
     0
 70
    58
 90
        1
176
     1
 90
        2
176
     1
 90
        2
176
     1
 90
        0
176
     1
 40
0.6
176
     1
 40
30.0
176
     1
 62
     7
420
 16777215
176
     1
 90
        2
176
     1
 90
        2
176
     1
 62
     7
176
     1
 62
   257
176
     1
 90
        2
176
     1
 90
        1
176
     1
 40
40.0
176
     1
 90
        0
176
     1
 62
   257
176
     1
 40
1.0
176
     1
 90
        1
176
     1
 90
        6
176
     1
 90
        2
176
     1
 62
     7
176
     1
 90
        3
176
     1
 90
        0
176
     1
 90
        0
176
     1
290
     0
176
     1
 90
        1
176
     1
 40
0.0
176
     1
 90
        0
176
     1
290
     0
176
     1
290
     1
176
     1
290
     1
176
     1
290
     0
176
     1
290
     0
176
     1
290
     0
176
     1
290
     0
176
     1
290
     0
176
     1
290
     0
176
     1
 90
       50
176
     1
 40
0.0
176
     1
 40
1.0
176
     1
 90
        0
176
     1
 62
    18
176
     1
 90
       50
176
     1
 90
        3
176
     1
 62
     5
420
      255
176
     1
290
     0
176
     1
 90
       50
176
     1
 90
       50
176
     1
 90
       50
176
     1
290
     0
176
     1
 90
       50
176
     1
 62
   256
176
     0
 40
1.0
176
     0
 90
        2
176
     1
  1
strokes_ogs.tif
176
     1
290
     0
176
     1
 40
1.0
176
     1
 40
1.0
176
     1
  0
VISUALSTYLE
  5
3F
102
{ACAD_REACTORS
330
29
102
}
330
29
100
AcDbVisualStyle
  2
JitterOff
 70
    20
177
     3
291
     1
 70
    58
 90
        2
176
     0
 90
        2
176
     0
 90
        0
176
     0
 90
        0
176
     0
 40
0.6
176
     0
 40
30.0
176
     0
 62
     7
420
 16777215
176
     0
 90
        1
176
     0
 90
        4
176
     0
 62
     7
176
     0
 62
   257
176
     0
 90
        1
176
     0
 90
        1
176
     0
 40
1.0
176
     0
 90
       10
176
     2
 62
     7
176
     0
 40
1.0
176
     0
 90
        1
176
     0
 90
        6
176
     0
 90
        2
176
     0
 62
     7
176
     0
 90
        5
176
     0
 90
        0
176
     0
 90
        0
176
     0
290
     0
176
     0
 90
        1
176
     0
 40
0.0
176
     0
 90
        0
176
     0
290
     0
176
     1
290
     1
176
     1
290
     1
176
     1
290
     0
176
     1
290
     0
176
     1
290
     0
176
     1
290
     0
176
     1
290
     0
176
     1
290
     0
176
     1
 90
       50
176
     0
 40
0.0
176
     0
 40
1.0
176
     0
 90
        0
176
     0
 62
    18
176
     0
 90
       50
176
     0
 90
        3
176
     0
 62
     5
420
      255
176
     0
290
     0
176
     1
 90
       50
176
     0
 90
       50
176
     0
 90
       50
176
     0
290
     0
176
     1
 90
       50
176
     0
 62
   256
176
     0
 40
1.0
176
     0
 90
        2
176
     0
  1
strokes_ogs.tif
176
     0
290
     0
176
     1
 40
1.0
176
     0
 40
1.0
176
     0
  0
VISUALSTYLE
  5
37
102
{ACAD_REACTORS
330
29
102
}
330
29
100
AcDbVisualStyle
  2
Linepattern
 70
    14
177
     3
291
     1
 70
    58
 90
        2
176
     1
 90
        2
176
     1
 90
        0
176
     1
 90
        0
176
     1
 40
0.6
176
     1
 40
30.0
176
     1
 62
     7
420
 16777215
176
     1
 90
        1
176
     1
 90
        4
176
     1
 62
     7
176
     1
 62
   257
176
     1
 90
        7
176
     1
 90
        7
176
     1
 40
1.0
176
     1
 90
        8
176
     1
 62
     7
176
     1
 40
1.0
176
     1
 90
        1
176
     1
 90
        6
176
     1
 90
        2
176
     1
 62
     7
176
     1
 90
        5
176
     1
 90
        0
176
     1
 90
        0
176
     1
290
     0
176
     1
 90
        1
176
     1
 40
0.0
176
     1
 90
        0
176
     1
290
     0
176
     1
290
     1
176
     1
290
     1
176
     1
290
     0
176
     1
290
     0
176
     1
290
     0
176
     1
290
     0
176
     1
290
     0
176
     1
290
     0
176
     1
 90
       50
176
     1
 40
0.0
176
     1
 40
1.0
176
     1
 90
        0
176
     1
 62
    18
176
     1
 90
       50
176
     1
 90
        3
176
     1
 62
     5
420
      255
176
     1
290
     0
176
     1
 90
       50
176
     1
 90
       50
176
     1
 90
       50
176
     1
290
     0
176
     1
 90
       50
176
     1
 62
   256
176
     0
 40
1.0
176
     0
 90
        2
176
     1
  1
strokes_ogs.tif
176
     1
290
     0
176
     1
 40
1.0
176
     1
 40
1.0
176
     1
  0
VISUALSTYLE
  5
40
102
{ACAD_REACTORS
330
29
102
}
330
29
100
AcDbVisualStyle
  2
OverhangOff
 70
    21
177
     3
291
     1
 70
    58
 90
        2
176
     0
 90
        2
176
     0
 90
        0
176
     0
 90
        0
176
     0
 40
0.6
176
     0
 40
30.0
176
     0
 62
     7
420
 16777215
176
     0
 90
        1
176
     0
 90
        4
176
     0
 62
     7
176
     0
 62
   257
176
     0
 90
        1
176
     0
 90
        1
176
     0
 40
1.0
176
     0
 90
        9
176
     2
 62
     7
176
     0
 40
1.0
176
     0
 90
        1
176
     0
 90
        6
176
     0
 90
        2
176
     0
 62
     7
176
     0
 90
        5
176
     0
 90
        0
176
     0
 90
        0
176
     0
290
     0
176
     0
 90
        1
176
     0
 40
0.0
176
     0
 90
        0
176
     0
290
     0
176
     1
290
     1
176
     1
290
     1
176
     1
290
     0
176
     1
290
     0
176
     1
290
     0
176
     1
290
     0
176
     1
290
     0
176
     1
290
     0
176
     1
 90
       50
176
     0
 40
0.0
176
     0
 40
1.0
176
     0
 90
        0
176
     0
 62
    18
176
     0
 90
       50
176
     0
 90
        3
176
     0
 62
     5
420
      255
176
     0
290
     0
176
     1
 90
       50
176
     0
 90
       50
176
     0
 90
       50
176
     0
290
     0
176
     1
 90
       50
176
     0
 62
   256
176
     0
 40
1.0
176
     0
 90
        2
176
     0
  1
strokes_ogs.tif
176
     0
290
     0
176
     1
 40
1.0
176
     0
 40
1.0
176
     0
  0
VISUALSTYLE
  5
33
102
{ACAD_REACTORS
330
29
102
}
330
29
100
AcDbVisualStyle
  2
Realistic
 70
     8
177
     3
291
     0
 70
    58
 90
        2
176
     1
 90
        3
176
     1
 90
        0
176
     1
 90
        2
176
     1
 40
0.6
176
     1
 40
30.0
176
     1
 62
     7
420
 16777215
176
     1
 90
        0
176
     1
 90
        0
176
     1
 62
     7
176
     1
 62
   257
176
     1
 90
        1
176
     1
 90
        1
176
     1
 40
1.0
176
     1
 90
        8
176
     1
 62
   257
176
     1
 40
1.0
176
     1
 90
        1
176
     1
 90
        6
176
     1
 90
        2
176
     1
 62
     7
176
     1
 90
        3
176
     1
 90
        0
176
     1
 90
        0
176
     1
290
     0
176
     1
 90
       13
176
     1
 40
0.0
176
     1
 90
        0
176
     1
290
     0
176
     1
290
     1
176
     1
290
     1
176
     1
290
     0
176
     1
290
     0
176
     1
290
     0
176
     1
290
     0
176
     1
290
     0
176
     1
290
     0
176
     1
 90
       50
176
     1
 40
0.0
176
     1
 40
1.0
176
     1
 90
        0
176
     1
 62
    18
176
     1
 90
       50
176
     1
 90
        3
176
     1
 62
     5
420
      255
176
     1
290
     0
176
     1
 90
       50
176
     1
 90
       50
176
     1
 90
       50
176
     1
290
     0
176
     1
 90
       50
176
     1
 62
   256
176
     0
 40
1.0
176
     0
 90
        2
176
     1
  1
strokes_ogs.tif
176
     1
290
     0
176
     1
 40
1.0
176
     1
 40
1.0
176
     1
  0
VISUALSTYLE
  5
3E
102
{ACAD_REACTORS
330
29
102
}
330
29
100
AcDbVisualStyle
  2
Shaded
 70
    27
177
     3
291
     0
 70
    58
 90
        2
176
     1
 90
        2
176
     1
 90
        1
176
     1
 90
        2
176
     1
 40
0.6
176
     1
 40
30.0
176
     1
 62
     7
420
 16777215
176
     1
 90
        0
176
     1
 90
        4
176
     1
 62
     7
176
     1
 62
   257
176
     1
 90
        1
176
     1
 90
        1
176
     1
 40
1.0
176
     1
 90
        8
176
     1
 62
   257
176
     1
 40
1.0
176
     1
 90
        1
176
     1
 90
        6
176
     1
 90
        2
176
     1
 62
     8
420
  7895160
176
     1
 90
        3
176
     1
 90
        0
176
     1
 90
        0
176
     1
290
     0
176
     1
 90
        5
176
     1
 40
0.0
176
     1
 90
        0
176
     1
290
     0
176
     1
290
     1
176
     1
290
     1
176
     1
290
     0
176
     1
290
     0
176
     1
290
     0
176
     1
290
     0
176
     1
290
     0
176
     1
290
     0
176
     1
 90
       50
176
     1
 40
0.0
176
     1
 40
1.0
176
     1
 90
        0
176
     1
 62
    18
176
     1
 90
       50
176
     1
 90
        3
176
     1
 62
     5
420
      255
176
     1
290
     0
176
     1
 90
       50
176
     1
 90
       50
176
     1
 90
       50
176
     1
290
     0
176
     1
 90
       50
176
     1
 62
   256
176
     0
 40
1.0
176
     0
 90
        2
176
     1
  1
strokes_ogs.tif
176
     1
290
     0
176
     1
 40
1.0
176
     1
 40
1.0
176
     1
  0
VISUALSTYLE
  5
3D
102
{ACAD_REACTORS
330
29
102
}
330
29
100
AcDbVisualStyle
  2
Shaded with edges
 70
    26
177
     3
291
     0
 70
    58
 90
        2
176
     1
 90
        2
176
     1
 90
        1
176
     1
 90
        2
176
     1
 40
0.6
176
     1
 40
30.0
176
     1
 62
     7
420
 16777215
176
     1
 90
        1
176
     1
 90
        2
176
     1
 62
     7
176
     1
 62
   257
176
     1
 90
        2
176
     1
 90
        1
176
     1
 40
1.0
176
     1
 90
        8
176
     1
 62
   257
176
     1
 40
1.0
176
     1
 90
        1
176
     1
 90
        6
176
     1
 90
        2
176
     1
 62
     7
176
     1
 90
        3
176
     1
 90
        0
176
     1
 90
        0
176
     1
290
     0
176
     1
 90
        5
176
     1
 40
0.0
176
     1
 90
        0
176
     1
290
     0
176
     1
290
     1
176
     1
290
     1
176
     1
290
     0
176
     1
290
     0
176
     1
290
     0
176
     1
290
     0
176
     1
290
     0
176
     1
290
     0
176
     1
 90
       50
176
     1
 40
0.0
176
     1
 40
1.0
176
     1
 90
        0
176
     1
 62
    18
176
     1
 90
       50
176
     1
 90
        3
176
     1
 62
     5
420
      255
176
     1
290
     0
176
     1
 90
       50
176
     1
 90
       50
176
     1
 90
       50
176
     1
290
     0
176
     1
 90
       50
176
     1
 62
   256
176
     0
 40
1.0
176
     0
 90
        2
176
     1
  1
strokes_ogs.tif
176
     1
290
     0
176
     1
 40
1.0
176
     1
 40
1.0
176
     1
  0
VISUALSTYLE
  5
3A
102
{ACAD_REACTORS
330
29
102
}
330
29
100
AcDbVisualStyle
  2
Shades of Gray
 70
    23
177
     3
291
     0
 70
    58
 90
        2
176
     1
 90
        2
176
     1
 90
        3
176
     1
 90
        0
176
     1
 40
0.6
176
     1
 40
30.0
176
     1
 62
     7
420
 16777215
176
     1
 90
        2
176
     1
 90
        2
176
     1
 62
     7
176
     1
 62
     7
176
     1
 90
        1
176
     1
 90
        1
176
     1
 40
40.0
176
     1
 90
        8
176
     1
 62
     7
176
     1
 40
1.0
176
     1
 90
        1
176
     1
 90
        6
176
     1
 90
        2
176
     1
 62
     7
176
     1
 90
        3
176
     1
 90
        0
176
     1
 90
        0
176
     1
290
     0
176
     1
 90
        1
176
     1
 40
0.0
176
     1
 90
        0
176
     1
290
     0
176
     1
290
     1
176
     1
290
     1
176
     1
290
     0
176
     1
290
     0
176
     1
290
     0
176
     1
290
     0
176
     1
290
     0
176
     1
290
     0
176
     1
 90
       50
176
     1
 40
0.0
176
     1
 40
1.0
176
     1
 90
        0
176
     1
 62
    18
176
     1
 90
       50
176
     1
 90
        3
176
     1
 62
     5
420
      255
176
     1
290
     0
176
     1
 90
       50
176
     1
 90
       50
176
     1
 90
       50
176
     1
290
     0
176
     1
 90
       50
176
     1
 62
   256
176
     0
 40
1.0
176
     0
 90
        2
176
     1
  1
strokes_ogs.tif
176
     1
290
     0
176
     1
 40
1.0
176
     1
 40
1.0
176
     1
  0
VISUALSTYLE
  5
3B
102
{ACAD_REACTORS
330
29
102
}
330
29
100
AcDbVisualStyle
  2
Sketchy
 70
    24
177
     3
291
     0
 70
    58
 90
        1
176
     1
 90
        2
176
     1
 90
        2
176
     1
 90
        0
176
     1
 40
0.6
176
     1
 40
30.0
176
     1
 62
     7
420
 16777215
176
     1
 90
        2
176
     1
 90
        2
176
     1
 62
     7
176
     1
 62
     7
176
     1
 90
        1
176
     1
 90
        1
176
     1
 40
40.0
176
     1
 90
       11
176
     1
 62
     7
176
     1
 40
1.0
176
     1
 90
        1
176
     1
 90
        6
176
     1
 90
        2
176
     1
 62
     7
176
     1
 90
        6
176
     1
 90
        0
176
     1
 90
        0
176
     1
290
     0
176
     1
 90
        1
176
     1
 40
0.0
176
     1
 90
        0
176
     1
290
     0
176
     1
290
     1
176
     1
290
     1
176
     1
290
     0
176
     1
290
     0
176
     1
290
     0
176
     1
290
     0
176
     1
290
     0
176
     1
290
     0
176
     1
 90
       50
176
     1
 40
0.0
176
     1
 40
1.0
176
     1
 90
        0
176
     1
 62
    18
176
     1
 90
       50
176
     1
 90
        3
176
     1
 62
     5
420
      255
176
     1
290
     0
176
     1
 90
       50
176
     1
 90
       50
176
     1
 90
       50
176
     1
290
     0
176
     1
 90
       50
176
     1
 62
   256
176
     0
 40
1.0
176
     0
 90
        2
176
     1
  1
strokes_ogs.tif
176
     1
290
     0
176
     1
 40
1.0
176
     1
 40
1.0
176
     1
  0
VISUALSTYLE
  5
36
102
{ACAD_REACTORS
330
29
102
}
330
29
100
AcDbVisualStyle
  2
Thicken
 70
    13
177
     3
291
     1
 70
    58
 90
        2
176
     1
 90
        2
176
     1
 90
        0
176
     1
 90
        0
176
     1
 40
0.6
176
     1
 40
30.0
176
     1
 62
     7
420
 16777215
176
     1
 90
        1
176
     1
 90
        4
176
     1
 62
     7
176
     1
 62
   257
176
     1
 90
        1
176
     1
 90
        1
176
     1
 40
1.0
176
     1
 90
       12
176
     1
 62
     7
176
     1
 40
1.0
176
     1
 90
        1
176
     1
 90
        6
176
     1
 90
        2
176
     1
 62
     7
176
     1
 90
        5
176
     1
 90
        0
176
     1
 90
        0
176
     1
290
     0
176
     1
 90
        1
176
     1
 40
0.0
176
     1
 90
        0
176
     1
290
     0
176
     1
290
     1
176
     1
290
     1
176
     1
290
     0
176
     1
290
     0
176
     1
290
     0
176
     1
290
     0
176
     1
290
     0
176
     1
290
     0
176
     1
 90
       50
176
     1
 40
0.0
176
     1
 40
1.0
176
     1
 90
        0
176
     1
 62
    18
176
     1
 90
       50
176
     1
 90
        3
176
     1
 62
     5
420
      255
176
     1
290
     0
176
     1
 90
       50
176
     1
 90
       50
176
     1
 90
       50
176
     1
290
     0
176
     1
 90
       50
176
     1
 62
   256
176
     0
 40
1.0
176
     0
 90
        2
176
     1
  1
strokes_ogs.tif
176
     1
290
     0
176
     1
 40
1.0
176
     1
 40
1.0
176
     1
  0
VISUALSTYLE
  5
30
102
{ACAD_REACTORS
330
29
102
}
330
29
100
AcDbVisualStyle
  2
Wireframe
 70
     5
177
     3
291
     0
 70
    58
 90
        0
176
     1
 90
        2
176
     1
 90
        0
176
     1
 90
        0
176
     1
 40
0.6
176
     1
 40
30.0
176
     1
 62
     7
420
 16777215
176
     1
 90
        1
176
     1
 90
        4
176
     1
 62
     7
176
     1
 62
   257
176
     1
 90
        1
176
     1
 90
        1
176
     1
 40
1.0
176
     1
 90
        0
176
     1
 62
   257
176
     1
 40
1.0
176
     1
 90
        1
176
     1
 90
        6
176
     1
 90
        2
176
     1
 62
     7
176
     1
 90
        3
176
     1
 90
        0
176
     1
 90
        0
176
     1
290
     0
176
     1
 90
        1
176
     1
 40
0.0
176
     1
 90
        0
176
     1
290
     0
176
     1
290
     1
176
     1
290
     1
176
     1
290
     0
176
     1
290
     0
176
     1
290
     0
176
     1
290
     0
176
     1
290
     0
176
     1
290
     0
176
     1
 90
       50
176
     1
 40
0.0
176
     1
 40
1.0
176
     1
 90
        0
176
     1
 62
    18
176
     1
 90
       50
176
     1
 90
        3
176
     1
 62
     5
420
      255
176
     1
290
     0
176
     1
 90
       50
176
     1
 90
       50
176
     1
 90
       50
176
     1
290
     0
176
     1
 90
       50
176
     1
 62
   256
176
     0
 40
1.0
176
     0
 90
        2
176
     1
  1
strokes_ogs.tif
176
     1
290
     0
176
     1
 40
1.0
176
     1
 40
1.0
176
     1
  0
VISUALSTYLE
  5
3C
102
{ACAD_REACTORS
330
29
102
}
330
29
100
AcDbVisualStyle
  2
X-Ray
 70
    25
177
     3
291
     0
 70
    58
 90
        2
176
     1
 90
        2
176
     1
 90
        1
176
     1
 90
        1
176
     1
 40
0.5
176
     1
 40
30.0
176
     1
 62
     7
420
 16777215
176
     1
 90
        1
176
     1
 90
        0
176
     1
 62
     7
176
     1
 62
   257
176
     1
 90
        1
176
     1
 90
        1
176
     1
 40
1.0
176
     1
 90
        8
176
     1
 62
     7
176
     1
 40
1.0
176
     1
 90
        1
176
     1
 90
        6
176
     1
 90
        2
176
     1
 62
     7
176
     1
 90
        3
176
     1
 90
        0
176
     1
 90
        0
176
     1
290
     0
176
     1
 90
       13
176
     1
 40
0.0
176
     1
 90
        0
176
     1
290
     0
176
     1
290
     1
176
     1
290
     1
176
     1
290
     0
176
     1
290
     0
176
     1
290
     0
176
     1
290
     0
176
     1
290
     0
176
     1
290
     0
176
     1
 90
       50
176
     1
 40
0.0
176
     1
 40
1.0
176
     1
 90
        0
176
     1
 62
    18
176
     1
 90
       50
176
     1
 90
        3
176
     1
 62
     5
420
      255
176
     1
290
     0
176
     1
 90
       50
176
     1
 90
       50
176
     1
 90
       50
176
     1
290
     0
176
     1
 90
       50
176
     1
 62
   256
176
     0
 40
1.0
176
     0
 90
        2
176
     1
  1
strokes_ogs.tif
176
     1
290
     0
176
     1
 40
1.0
176
     1
 40
1.0
176
     1
  0
DICTIONARYVAR
  5
3E1
102
{ACAD_REACTORS
330
3DB
102
}
330
3DB
100
DictionaryVariables
280
     0
  1
1:1
  0
DICTIONARYVAR
  5
3DD
102
{ACAD_REACTORS
330
3DB
102
}
330
3DB
100
DictionaryVariables
280
     0
  1
STANDARD
  0
DICTIONARYVAR
  5
3DC
102
{ACAD_REACTORS
330
3DB
102
}
330
3DB
100
DictionaryVariables
280
     0
  1
STANDARD
  0
DICTIONARYVAR
  5
3DE
102
{ACAD_REACTORS
330
3DB
102
}
330
3DB
100
DictionaryVariables
280
     0
  1
Imperial24
  0
DICTIONARYVAR
  5
3DF
102
{ACAD_REACTORS
330
3DB
102
}
330
3DB
100
DictionaryVariables
280
     0
  1
Imperial24
  0
DICTIONARYVAR
  5
3E3
102
{ACAD_REACTORS
330
3DB
102
}
330
3DB
100
DictionaryVariables
280
     0
  1
1
  0
DICTIONARYVAR
  5
3E4
102
{ACAD_REACTORS
330
3DB
102
}
330
3DB
100
DictionaryVariables
280
     0
  1
15
  0
DICTIONARYVAR
  5
3E2
102
{ACAD_REACTORS
330
3DB
102
}
330
3DB
100
DictionaryVariables
280
     0
  1
0
  0
DICTIONARYVAR
  5
3E0
102
{ACAD_REACTORS
330
3DB
102
}
330
3DB
100
DictionaryVariables
280
     0
  1
0
  0
DICTIONARY
  5
1A
330
19
100
AcDbDictionary
280
     1
281
     1
  3
BUMPTILE
360
1C
  3
DIFFUSETILE
360
1B
  3
OPACITYTILE
360
1F
  3
REFLECTIONTILE
360
1E
  3
REFRACTIONTILE
360
20
  3
SPECULARTILE
360
1D
  0
DICTIONARY
  5
12
330
11
100
AcDbDictionary
280
     1
281
     1
  3
BUMPTILE
360
14
  3
DIFFUSETILE
360
13
  3
OPACITYTILE
360
17
  3
REFLECTIONTILE
360
16
  3
REFRACTIONTILE
360
18
  3
SPECULARTILE
360
15
  0
DICTIONARY
  5
22
330
21
100
AcDbDictionary
280
     1
281
     1
  3
BUMPTILE
360
24
  3
DIFFUSETILE
360
23
  3
OPACITYTILE
360
27
  3
REFLECTIONTILE
360
26
  3
REFRACTIONTILE
360
28
  3
SPECULARTILE
360
25
  0
DICTIONARY
  5
451
330
64
100
AcDbDictionary
280
     1
281
     1
  3
ACAD_ROUNDTRIP_2008_TABLESTYLE_CELLSTYLEMAP
360
4C0
  0
XRECORD
  5
1C
102
{ACAD_REACTORS
330
1A
102
}
330
1A
100
AcDbXrecord
280
     1
270
     1
271
     1
  0
XRECORD
  5
1B
102
{ACAD_REACTORS
330
1A
102
}
330
1A
100
AcDbXrecord
280
     1
270
     1
271
     1
  0
XRECORD
  5
1F
102
{ACAD_REACTORS
330
1A
102
}
330
1A
100
AcDbXrecord
280
     1
270
     1
271
     1
  0
XRECORD
  5
1E
102
{ACAD_REACTORS
330
1A
102
}
330
1A
100
AcDbXrecord
280
     1
270
     1
271
     1
  0
XRECORD
  5
20
102
{ACAD_REACTORS
330
1A
102
}
330
1A
100
AcDbXrecord
280
     1
270
     1
271
     1
  0
XRECORD
  5
1D
102
{ACAD_REACTORS
330
1A
102
}
330
1A
100
AcDbXrecord
280
     1
270
     1
271
     1
  0
XRECORD
  5
14
102
{ACAD_REACTORS
330
12
102
}
330
12
100
AcDbXrecord
280
     1
270
     1
271
     1
  0
XRECORD
  5
13
102
{ACAD_REACTORS
330
12
102
}
330
12
100
AcDbXrecord
280
     1
270
     1
271
     1
  0
XRECORD
  5
17
102
{ACAD_REACTORS
330
12
102
}
330
12
100
AcDbXrecord
280
     1
270
     1
271
     1
  0
XRECORD
  5
16
102
{ACAD_REACTORS
330
12
102
}
330
12
100
AcDbXrecord
280
     1
270
     1
271
     1
  0
XRECORD
  5
18
102
{ACAD_REACTORS
330
12
102
}
330
12
100
AcDbXrecord
280
     1
270
     1
271
     1
  0
XRECORD
  5
15
102
{ACAD_REACTORS
330
12
102
}
330
12
100
AcDbXrecord
280
     1
270
     1
271
     1
  0
XRECORD
  5
24
102
{ACAD_REACTORS
330
22
102
}
330
22
100
AcDbXrecord
280
     1
270
     1
271
     1
  0
XRECORD
  5
23
102
{ACAD_REACTORS
330
22
102
}
330
22
100
AcDbXrecord
280
     1
270
     1
271
     1
  0
XRECORD
  5
27
102
{ACAD_REACTORS
330
22
102
}
330
22
100
AcDbXrecord
280
     1
270
     1
271
     1
  0
XRECORD
  5
26
102
{ACAD_REACTORS
330
22
102
}
330
22
100
AcDbXrecord
280
     1
270
     1
271
     1
  0
XRECORD
  5
28
102
{ACAD_REACTORS
330
22
102
}
330
22
100
AcDbXrecord
280
     1
270
     1
271
     1
  0
XRECORD
  5
25
102
{ACAD_REACTORS
330
22
102
}
330
22
100
AcDbXrecord
280
     1
270
     1
271
     1
  0
CELLSTYLEMAP
  5
4C0
102
{ACAD_REACTORS
330
451
102
}
330
451
100
AcDbCellStyleMap
 90
        3
300
CELLSTYLE
  1
TABLEFORMAT_BEGIN
 90
        5
170
     1
 91
        0
 92
    32768
 62
   257
 93
        1
300
CONTENTFORMAT
  1
CONTENTFORMAT_BEGIN
 90
        0
 91
        0
 92
      512
 93
        0
300

 40
0.0
140
1.0
 94
        5
 62
     0
340
55
144
0.25
309
CONTENTFORMAT_END
171
     1
301
MARGIN
  1
CELLMARGIN_BEGIN
 40
0.06
 40
0.06
 40
0.06
 40
0.06
 40
0.18
 40
0.18
309
CELLMARGIN_END
 94
        6
 95
        1
302
GRIDFORMAT
  1
GRIDFORMAT_BEGIN
 90
        0
 91
        1
 62
     0
 92
       -2
340
0
 93
        0
 40
0.045
309
GRIDFORMAT_END
 95
        2
302
GRIDFORMAT
  1
GRIDFORMAT_BEGIN
 90
        0
 91
        1
 62
     0
 92
       -2
340
0
 93
        0
 40
0.045
309
GRIDFORMAT_END
 95
        4
302
GRIDFORMAT
  1
GRIDFORMAT_BEGIN
 90
        0
 91
        1
 62
     0
 92
       -2
340
0
 93
        0
 40
0.045
309
GRIDFORMAT_END
 95
        8
302
GRIDFORMAT
  1
GRIDFORMAT_BEGIN
 90
        0
 91
        1
 62
     0
 92
       -2
340
0
 93
        0
 40
0.045
309
GRIDFORMAT_END
 95
       16
302
GRIDFORMAT
  1
GRIDFORMAT_BEGIN
 90
        0
 91
        1
 62
     0
 92
       -2
340
0
 93
        0
 40
0.045
309
GRIDFORMAT_END
 95
       32
302
GRIDFORMAT
  1
GRIDFORMAT_BEGIN
 90
        0
 91
        1
 62
     0
 92
       -2
340
0
 93
        0
 40
0.045
309
GRIDFORMAT_END
309
TABLEFORMAT_END
  1
CELLSTYLE_BEGIN
 90
        1
 91
        1
300
_TITLE
309
CELLSTYLE_END
300
CELLSTYLE
  1
TABLEFORMAT_BEGIN
 90
        5
170
     1
 91
        0
 92
        0
 62
   257
 93
        1
300
CONTENTFORMAT
  1
CONTENTFORMAT_BEGIN
 90
        0
 91
        0
 92
      512
 93
        0
300

 40
0.0
140
1.0
 94
        5
 62
     0
340
55
144
0.18
309
CONTENTFORMAT_END
171
     1
301
MARGIN
  1
CELLMARGIN_BEGIN
 40
0.06
 40
0.06
 40
0.06
 40
0.06
 40
0.18
 40
0.18
309
CELLMARGIN_END
 94
        6
 95
        1
302
GRIDFORMAT
  1
GRIDFORMAT_BEGIN
 90
        0
 91
        1
 62
     0
 92
       -2
340
0
 93
        0
 40
0.045
309
GRIDFORMAT_END
 95
        2
302
GRIDFORMAT
  1
GRIDFORMAT_BEGIN
 90
        0
 91
        1
 62
     0
 92
       -2
340
0
 93
        0
 40
0.045
309
GRIDFORMAT_END
 95
        4
302
GRIDFORMAT
  1
GRIDFORMAT_BEGIN
 90
        0
 91
        1
 62
     0
 92
       -2
340
0
 93
        0
 40
0.045
309
GRIDFORMAT_END
 95
        8
302
GRIDFORMAT
  1
GRIDFORMAT_BEGIN
 90
        0
 91
        1
 62
     0
 92
       -2
340
0
 93
        0
 40
0.045
309
GRIDFORMAT_END
 95
       16
302
GRIDFORMAT
  1
GRIDFORMAT_BEGIN
 90
        0
 91
        1
 62
     0
 92
       -2
340
0
 93
        0
 40
0.045
309
GRIDFORMAT_END
 95
       32
302
GRIDFORMAT
  1
GRIDFORMAT_BEGIN
 90
        0
 91
        1
 62
     0
 92
       -2
340
0
 93
        0
 40
0.045
309
GRIDFORMAT_END
309
TABLEFORMAT_END
  1
CELLSTYLE_BEGIN
 90
        2
 91
        1
300
_HEADER
309
CELLSTYLE_END
300
CELLSTYLE
  1
TABLEFORMAT_BEGIN
 90
        5
170
     1
 91
        0
 92
        0
 62
   257
 93
        1
300
CONTENTFORMAT
  1
CONTENTFORMAT_BEGIN
 90
        0
 91
        0
 92
      512
 93
        0
300

 40
0.0
140
1.0
 94
        2
 62
     0
340
55
144
0.18
309
CONTENTFORMAT_END
171
     1
301
MARGIN
  1
CELLMARGIN_BEGIN
 40
0.06
 40
0.06
 40
0.06
 40
0.06
 40
0.18
 40
0.18
309
CELLMARGIN_END
 94
        6
 95
        1
302
GRIDFORMAT
  1
GRIDFORMAT_BEGIN
 90
        0
 91
        1
 62
     0
 92
       -2
340
0
 93
        0
 40
0.045
309
GRIDFORMAT_END
 95
        2
302
GRIDFORMAT
  1
GRIDFORMAT_BEGIN
 90
        0
 91
        1
 62
     0
 92
       -2
340
0
 93
        0
 40
0.045
309
GRIDFORMAT_END
 95
        4
302
GRIDFORMAT
  1
GRIDFORMAT_BEGIN
 90
        0
 91
        1
 62
     0
 92
       -2
340
0
 93
        0
 40
0.045
309
GRIDFORMAT_END
 95
        8
302
GRIDFORMAT
  1
GRIDFORMAT_BEGIN
 90
        0
 91
        1
 62
     0
 92
       -2
340
0
 93
        0
 40
0.045
309
GRIDFORMAT_END
 95
       16
302
GRIDFORMAT
  1
GRIDFORMAT_BEGIN
 90
        0
 91
        1
 62
     0
 92
       -2
340
0
 93
        0
 40
0.045
309
GRIDFORMAT_END
 95
       32
302
GRIDFORMAT
  1
GRIDFORMAT_BEGIN
 90
        0
 91
        1
 62
     0
 92
       -2
340
0
 93
        0
 40
0.045
309
GRIDFORMAT_END
309
TABLEFORMAT_END
  1
CELLSTYLE_BEGIN
 90
        3
 91
        2
300
_DATA
309
CELLSTYLE_END
  0
ENDSEC
  0
SECTION
  2
ACDSDATA
 70
     2
 71
     8
  0
ACDSSCHEMA
 90
        0
  1
AcDb_Thumbnail_Schema
  2
AcDbDs::ID
280
    10
 91
        8
  2
Thumbnail_Data
280
    15
 91
        0
101
ACDSRECORD
 95
        0
 90
        1
  2
AcDbDs::TreatedAsObjectData
280
     1
291
     1
101
ACDSRECORD
 95
        0
 90
        2
  2
AcDbDs::Legacy
280
     1
291
     1
101
ACDSRECORD
  1
AcDbDs::ID
 90
        3
  2
AcDs:Indexable
280
     1
291
     1
101
ACDSRECORD
  1
AcDbDs::ID
 90
        4
  2
AcDbDs::HandleAttribute
280
     7
282
     1
  0
ACDSSCHEMA
 90
        1
  1
AcDbDs::TreatedAsObjectDataSchema
  2
AcDbDs::TreatedAsObjectData
280
     1
 91
        0
  0
ACDSSCHEMA
 90
        2
  1
AcDbDs::LegacySchema
  2
AcDbDs::Legacy
280
     1
 91
        0
  0
ACDSSCHEMA
 90
        3
  1
AcDbDs::IndexedPropertySchema
  2
AcDs:Indexable
280
     1
 91
        0
  0
ACDSSCHEMA
 90
        4
  1
AcDbDs::HandleAttributeSchema
  2
AcDbDs::HandleAttribute
280
     7
 91
        1
284
     1
  0
ACDSRECORD
 90
        0
  2
AcDbDs::ID
280
    10
320
72
  2
Thumbnail_Data
280
    15
 94
     2296
310
89504E470D0A1A0A0000000D49484452000001000000006C0803000000B2ED9CC100000300504C5445212830FFFFFF2128300000000000000000000000000000000000000000000000000000330000660000990000CC0000FF0033000033330033660033990033CC0033FF0066000066330066660066990066CC0066FF0099
310
000099330099660099990099CC0099FF00CC0000CC3300CC6600CC9900CCCC00CCFF00FF0000FF3300FF6600FF9900FFCC00FFFF3300003300333300663300993300CC3300FF3333003333333333663333993333CC3333FF3366003366333366663366993366CC3366FF3399003399333399663399993399CC3399FF33CC00
310
33CC3333CC6633CC9933CCCC33CCFF33FF0033FF3333FF6633FF9933FFCC33FFFF6600006600336600666600996600CC6600FF6633006633336633666633996633CC6633FF6666006666336666666666996666CC6666FF6699006699336699666699996699CC6699FF66CC0066CC3366CC6666CC9966CCCC66CCFF66FF0066
310
FF3366FF6666FF9966FFCC66FFFF9900009900339900669900999900CC9900FF9933009933339933669933999933CC9933FF9966009966339966669966999966CC9966FF9999009999339999669999999999CC9999FF99CC0099CC3399CC6699CC9999CCCC99CCFF99FF0099FF3399FF6699FF9999FFCC99FFFFCC0000CC00
310
33CC0066CC0099CC00CCCC00FFCC3300CC3333CC3366CC3399CC33CCCC33FFCC6600CC6633CC6666CC6699CC66CCCC66FFCC9900CC9933CC9966CC9999CC99CCCC99FFCCCC00CCCC33CCCC66CCCC99CCCCCCCCCCFFCCFF00CCFF33CCFF66CCFF99CCFFCCCCFFFFFF0000FF0033FF0066FF0099FF00CCFF00FFFF3300FF3333
310
FF3366FF3399FF33CCFF33FFFF6600FF6633FF6666FF6699FF66CCFF66FFFF9900FF9933FF9966FF9999FF99CCFF99FFFFCC00FFCC33FFCC66FFCC99FFCCCCFFCCFFFFFF00FFFF33FFFF66FFFF99FFFFCCFFFFFF0000000D0D0D1A1A1A2828283535354343435050505D5D5D6B6B6B787878868686939393A1A1A1AEAEAEBB
310
BBBBC9C9C9D6D6D6E4E4E4F1F1F1FFFFFF0000000000000000000000000000000000000000000000000000000000002E4550F1000005B04944415478DAED9C5177E32A0C84F9FFFFF77BBF67B78D03D20862106EF71EF4D06DB2B10D031A0D0369290B817D0DCDFBF47EF2F782EB75F51BE293E60ED72B18B46967F8FE9B56
310
FA961B1830C855EF0D0070B7F8010424F661D78B1DEC3FBDE6EF8F2AAA21A53385EA7F7E6C0EE087DF8E1C7A345DB755BC0140CCF9160D7E028110F757DBC0C2718D7BD3514322FE3FDD04C2D041F9893910A71EF5A8E0A6B399E8C1DD5FC911E411ED137F8007E8BCA5F39FAAF39FB4EFCD105F97863C207BCBF3FD770D32
310
69FAD9D0071321AEAB515F791000C3752102377B2FAEF369D0DCFF3900DCB3EAC65C1C5571F85737669F46C3FDD7CD4191CC1308D02BFFA655AF0466A5412FFCBC449422713702F2396D49AEF0989DFB721AD0E7C1671060CC7C351E14725A52DF8BA2F07E06013E297EB5C827AB1DD5BD0806FE0149A8164061A3BE5B9C02
310
C1F79D40AAAC4011B11F809E00AA468C8CEE57084821C0036A80B871344478A938329A42C38434550F230CB622A005D0D51E9C80235CB2DD1FFEAF1A400BAC7DB6AD38EC04C08D42CD46EF645DCC038CCAAAA556B5F6F48DDA8000910052E4AF3EC542F29B9545A7FC6E9B02C402C8B91618F6D6EBFD4F8C11E728D405F103
310
41C41E001CF562D8DF429050028D6BD29043A71EB07302B8A7BE96FDD88FCC93A0B53FDE4B44290BB729C2F0A62D21BF0C8C660174A918269300DC64C020432888B600D074BBCD4DB94225E7D90DA114E395B0D5210B6516C69E6B869D8E7177BB125836C10871866E5DB60B88F0A72C53D6102CE480A412FC1E146C32C808
310
8684409064150023BCDC722FE2C1743D688027989DCEFC5876839A1B799FC865A01684E4F65F3DF3A27E853EF9C37F3D8BA24743CB963C0D847FFD1EED3653D727811B7EEA0D66226D968780BA95CDB77AA92E26202BA173BADD2DA4F4F4601E00F2D75A00A86ABCCA02200D88BAB8A88FA6214024011125491331193A402B
310
7F8A6AC636008AD8C0379521F44F5685809EE0D61E205D1013796081FD4BDAD4EF4C86067A611A641AA4F45819B1F745D90301720D6AF6D14341485EFFDB9CE65B01051BB67908C85AF4DE3B64C037E45220ADC86FF98752D22701911F83F3A0E85F9323825BA3CBCA4F4A320431139AF372C6164840205EDEBD59C71F5A73
310
EEC1F41E993A4A5484096037A1D2F4B0AFAB2D04AD06A2B77A66AEFF6193B06A88582D4C03A033CF689C8F1058DC1718240041BE2F4F014622D06EDB47082C28C1324C80424083EB538008D69A0229431A583A2132EC7F5DFB09DD489653C09E542E6F1360900449A6A82680B71829C1118AF94620298956038D1158DE1E57
310
FD3779D7A8212481B20C80D11C052F02F868E77EB61D6102D8D328F4CA479E0EBE6CB9D223C2144F70D8FFD6AB4C52C3F4CBB339BDE64FC427AE06E827C07524AD2B385800C027D47500CE23509B1579B638FDFEEBE3A86B34682BDFC01A503490B81A844E026813C0AC0758665FB43F4594045B0E28B80A285B670F11CCB4
310
86F142D824A847203F820430EC4C86168AEE813D9AE011D8785899A8FFB53F952306E9E582F0A830DF98D90F00DE84ECBAB3790014BB0F88AD491B01004100D5C2240B00C5289A0C6CC77703104C80B64D284DC824006AD52D1C7B780E0010DBEF08B7665E0AD177A8D496C59300C86381D0F7E09601082CA8521D11781600
310
18356C07005277FD1000F79C475639B0B738F8A5004CB3A0AD71D678FCFD005CE9900280E7C0F20B012892051301A816596900DCDC35190340E7DB545300484B2E0980A0A8AE0190A305FB42981C00264ED28C00204B0CF72F4F01604AA70D0128F90088D32A1900CCF9B69F03A01A3E4782FE862470C0A4541D7240F4072A
310
6E02C0CDE99B03C007D7DD98014B5AF0A610BE0FC0EC9F3EE80350FE1900986DE001E07100D055E01F0040367C4906748AC04D00E697EC6300F4B74D5200E82E3B7F0B00D177FAEE01C0EEF8854F3E71E2C48913274E9C3871E2C48913274E9C3871E2C48913274E9C3871E2C489FF6BFC07D5C2363E97E119510000000049
310
454E44AE426082426082
  0
ENDSEC
  0
EOF
